Inconsolata.ufo
<glyph name="exclam" format="1">
  <advance width="500"/>
  <unicode hex="0021"/>
  <outline>
    <contour>
      <point x="298.6" y="47.8887" type="curve" smooth="yes"/>
      <point x="298.6" y="15.2754"/>
      <point x="272.101" y="-11.2334"/>
      <point x="239.464" y="-11.2334" type="curve" smooth="yes"/>
      <point x="206.837" y="-11.2334"/>
      <point x="180.327" y="15.2637"/>
      <point x="180.327" y="47.8906" type="curve" smooth="yes"/>
      <point x="180.327" y="80.5059"/>
      <point x="206.827" y="107.014"/>
      <point x="239.463" y="107.014" type="curve" smooth="yes"/>
      <point x="272.09" y="107.014"/>
      <point x="298.6" y="80.5156"/>
    </contour>
    <contour>
      <point x="241.012" y="667.963" type="curve" smooth="yes"/>
      <point x="259.78" y="667.963"/>
      <point x="280.823" y="655.368"/>
      <point x="288.54" y="625.089" type="curve" smooth="yes"/>
      <point x="290.047" y="619.181"/>
      <point x="292.35" y="607.975"/>
      <point x="292.35" y="584.467" type="curve" smooth="yes"/>
      <point x="292.35" y="546.261"/>
      <point x="285.562" y="508.407"/>
      <point x="283.064" y="470.335" type="curve" smooth="yes"/>
      <point x="264.941" y="194.175" type="line"/>
      <point x="214.887" y="194.175" type="line"/>
      <point x="200.216" y="470.335" type="line" smooth="yes"/>
      <point x="196.726" y="536.041"/>
      <point x="190.348" y="560.324"/>
      <point x="190.348" y="592.596" type="curve" smooth="yes"/>
      <point x="190.348" y="611.33"/>
      <point x="192.573" y="624.822"/>
      <point x="197.163" y="635.874" type="curve" smooth="yes"/>
      <point x="206.087" y="657.365"/>
      <point x="223.691" y="667.963"/>
    </contour>
  </outline>
</glyph>
<glyph name="quotedbl" format="1">
  <advance width="500"/>
  <unicode hex="0022"/>
  <outline>
    <contour>
      <point x="396.696" y="604.66" type="curve" smooth="yes"/>
      <point x="396.696" y="578.388"/>
      <point x="388.191" y="546.49"/>
      <point x="363.323" y="478.102" type="curve" smooth="yes"/>
      <point x="339.159" y="411.651" type="line"/>
      <point x="283.927" y="425.459" type="line"/>
      <point x="305.502" y="492.773" type="line" smooth="yes"/>
      <point x="310.896" y="509.602"/>
      <point x="315.257" y="528.471"/>
      <point x="315.257" y="548.096" type="curve" smooth="yes"/>
      <point x="315.257" y="569.807"/>
      <point x="308.992" y="589.799"/>
      <point x="308.992" y="611.451" type="curve" smooth="yes"/>
      <point x="308.992" y="650.961"/>
      <point x="332.395" y="666.359"/>
      <point x="351.677" y="666.359" type="curve" smooth="yes"/>
      <point x="371.32" y="666.359"/>
      <point x="396.696" y="649.91"/>
    </contour>
    <contour>
      <point x="224.097" y="604.66" type="curve" smooth="yes"/>
      <point x="224.097" y="578.388"/>
      <point x="215.592" y="546.49"/>
      <point x="190.724" y="478.102" type="curve" smooth="yes"/>
      <point x="166.56" y="411.651" type="line"/>
      <point x="111.327" y="425.459" type="line"/>
      <point x="132.902" y="492.773" type="line" smooth="yes"/>
      <point x="138.296" y="509.602"/>
      <point x="142.657" y="528.471"/>
      <point x="142.657" y="548.096" type="curve" smooth="yes"/>
      <point x="142.657" y="569.807"/>
      <point x="136.393" y="589.799"/>
      <point x="136.393" y="611.451" type="curve" smooth="yes"/>
      <point x="136.393" y="650.961"/>
      <point x="159.795" y="666.359"/>
      <point x="179.077" y="666.359" type="curve" smooth="yes"/>
      <point x="198.721" y="666.359"/>
      <point x="224.097" y="649.91"/>
    </contour>
  </outline>
</glyph>
<glyph name="numbersign" format="1">
  <advance width="500"/>
  <unicode hex="0023"/>
  <outline>
    <contour>
      <point x="173.463" y="623.949" type="line"/>
      <point x="233.873" y="626.538" type="line"/>
      <point x="213.109" y="455.117" type="line"/>
      <point x="323.269" y="456.433" type="line"/>
      <point x="342.611" y="618.771" type="line"/>
      <point x="404.747" y="621.36" type="line"/>
      <point x="384.689" y="457.168" type="line"/>
      <point x="475.513" y="458.253" type="line"/>
      <point x="470.335" y="409.925" type="line"/>
      <point x="378.807" y="409.01" type="line"/>
      <point x="358.247" y="240.704" type="line"/>
      <point x="457.39" y="242.503" type="line"/>
      <point x="452.212" y="195.901" type="line"/>
      <point x="352.577" y="194.29" type="line"/>
      <point x="330.529" y="13.8076" type="line"/>
      <point x="270.119" y="10.3564" type="line"/>
      <point x="291.917" y="193.311" type="line"/>
      <point x="181.181" y="191.521" type="line"/>
      <point x="159.655" y="13.8076" type="line"/>
      <point x="100.971" y="11.2188" type="line"/>
      <point x="122.189" y="190.568" type="line"/>
      <point x="25.0273" y="188.997" type="line"/>
      <point x="29.3418" y="234.736" type="line"/>
      <point x="127.626" y="236.52" type="line"/>
      <point x="147.76" y="406.699" type="line"/>
      <point x="38.835" y="405.61" type="line"/>
      <point x="42.2871" y="453.075" type="line"/>
      <point x="153.404" y="454.403" type="line"/>
    </contour>
    <contour>
      <point x="207.316" y="407.295" type="line"/>
      <point x="186.761" y="237.592" type="line"/>
      <point x="297.434" y="239.601" type="line"/>
      <point x="317.545" y="408.397" type="line"/>
    </contour>
  </outline>
</glyph>
<glyph name="dollar" format="1">
  <advance width="500"/>
  <unicode hex="0024"/>
  <outline>
    <contour>
      <point x="234.736" y="650.702" type="line"/>
      <point x="299.461" y="650.702" type="line" smooth="yes"/>
      <point x="299.931" y="649.634"/>
      <point x="300.173" y="648.472"/>
      <point x="300.173" y="647.29" type="curve" smooth="yes"/>
      <point x="300.173" y="639.882"/>
      <point x="293.42" y="639.594"/>
      <point x="293.42" y="629.99" type="curve" smooth="yes"/>
      <point x="293.42" y="591.612" type="line"/>
      <point x="352.508" y="585.658"/>
      <point x="405.134" y="559.05"/>
      <point x="441.856" y="515.211" type="curve"/>
      <point x="398.706" y="460.842" type="line" smooth="yes"/>
      <point x="396.574" y="461.4"/>
      <point x="393.878" y="463.31"/>
      <point x="393.526" y="467.773" type="curve" smooth="yes"/>
      <point x="393.299" y="470.667"/>
      <point x="394.033" y="473.433"/>
      <point x="392.556" y="476.49" type="curve" smooth="yes"/>
      <point x="392.118" y="477.395"/>
      <point x="391.432" y="478.475"/>
      <point x="388.32" y="482.248" type="curve" smooth="yes"/>
      <point x="367.538" y="507.457"/>
      <point x="336.74" y="526.091"/>
      <point x="293.42" y="532.617" type="curve"/>
      <point x="293.42" y="340.028" type="line"/>
      <point x="316.038" y="332.438"/>
      <point x="338.887" y="324.689"/>
      <point x="359.606" y="315.777" type="curve" smooth="yes"/>
      <point x="380.667" y="306.717"/>
      <point x="459.797" y="272.807"/>
      <point x="459.797" y="181.494" type="curve" smooth="yes"/>
      <point x="459.797" y="109.774"/>
      <point x="406.651" y="30.9785"/>
      <point x="293.42" y="16.2158" type="curve"/>
      <point x="293.42" y="-46.6016" type="line"/>
      <point x="234.736" y="-46.6016" type="line"/>
      <point x="234.736" y="14.3701" type="line"/>
      <point x="165.809" y="18.6738"/>
      <point x="104.055" y="45.7949"/>
      <point x="59.5469" y="94.0674" type="curve"/>
      <point x="102.697" y="153.614" type="line"/>
      <point x="107.644" y="151.358"/>
      <point x="107.165" y="145.604"/>
      <point x="107.098" y="144.353" type="curve" smooth="yes"/>
      <point x="106.864" y="139.98"/>
      <point x="106.342" y="137.284"/>
      <point x="110.177" y="133.204" type="curve" smooth="yes"/>
      <point x="138.252" y="103.329"/>
      <point x="182.163" y="77.8516"/>
      <point x="234.736" y="72.0107" type="curve"/>
      <point x="234.736" y="291.815" type="line"/>
      <point x="216.481" y="297.926"/>
      <point x="197.868" y="304.879"/>
      <point x="179.868" y="313.387" type="curve" smooth="yes"/>
      <point x="95.7998" y="353.125"/>
      <point x="79.2559" y="409.449"/>
      <point x="79.2559" y="445.863" type="curve" smooth="yes"/>
      <point x="79.2559" y="517.851"/>
      <point x="142.573" y="578.915"/>
      <point x="234.736" y="590.798" type="curve"/>
    </contour>
    <contour>
      <point x="293.42" y="273.44" type="curve"/>
      <point x="293.42" y="74.082" type="line"/>
      <point x="357.556" y="86.4912"/>
      <point x="394.501" y="131.66"/>
      <point x="394.501" y="176.832" type="curve" smooth="yes"/>
      <point x="394.501" y="197.364"/>
      <point x="386.836" y="230.634"/>
      <point x="344.854" y="253.468" type="curve" smooth="yes"/>
      <point x="331.121" y="260.937"/>
      <point x="313.371" y="267.152"/>
    </contour>
    <contour>
      <point x="234.736" y="360.816" type="curve"/>
      <point x="234.736" y="533.867" type="line"/>
      <point x="171.849" y="526.52"/>
      <point x="145.336" y="489.043"/>
      <point x="145.336" y="454.469" type="curve" smooth="yes"/>
      <point x="145.336" y="432.653"/>
      <point x="155.641" y="402.684"/>
      <point x="199.716" y="377.301" type="curve" smooth="yes"/>
      <point x="210.058" y="371.344"/>
      <point x="221.93" y="365.933"/>
    </contour>
  </outline>
</glyph>
<glyph name="percent" format="1">
  <advance width="500"/>
  <unicode hex="0025"/>
  <outline>
    <contour>
      <point x="390.939" y="623.086" type="line"/>
      <point x="458.253" y="623.086" type="line"/>
      <point x="109.601" y="0" type="line"/>
      <point x="45.7393" y="0" type="line"/>
    </contour>
    <contour>
      <point x="139.724" y="634.396" type="curve" smooth="yes"/>
      <point x="200.625" y="634.396"/>
      <point x="252.134" y="578.685"/>
      <point x="252.134" y="502.428" type="curve" smooth="yes"/>
      <point x="252.134" y="428.154"/>
      <point x="201.535" y="372.801"/>
      <point x="140.628" y="372.801" type="curve" smooth="yes"/>
      <point x="79.2578" y="372.801"/>
      <point x="28.3506" y="428.834"/>
      <point x="28.3506" y="503.516" type="curve" smooth="yes"/>
      <point x="28.3506" y="580.391"/>
      <point x="80.2949" y="634.396"/>
    </contour>
    <contour>
      <point x="138.365" y="581.666" type="curve" smooth="yes"/>
      <point x="118.646" y="581.666"/>
      <point x="88.8691" y="566.235"/>
      <point x="88.8691" y="506.952" type="curve" smooth="yes"/>
      <point x="88.8691" y="439.227"/>
      <point x="121.908" y="426.245"/>
      <point x="139.935" y="426.245" type="curve" smooth="yes"/>
      <point x="159.829" y="426.245"/>
      <point x="189.076" y="441.978"/>
      <point x="189.076" y="499.805" type="curve" smooth="yes"/>
      <point x="189.076" y="571.019"/>
      <point x="154.562" y="581.666"/>
    </contour>
    <contour>
      <point x="482.433" y="119.605" type="curve" smooth="yes"/>
      <point x="482.433" y="44.6562"/>
      <point x="431.485" y="-10.4629"/>
      <point x="370.827" y="-10.4629" type="curve" smooth="yes"/>
      <point x="309.859" y="-10.4629"/>
      <point x="258.883" y="44.9219"/>
      <point x="258.883" y="119.32" type="curve" smooth="yes"/>
      <point x="258.883" y="194.252"/>
      <point x="310.006" y="249.408"/>
      <point x="370.735" y="249.408" type="curve" smooth="yes"/>
      <point x="431.609" y="249.408"/>
      <point x="482.433" y="194.063"/>
    </contour>
    <contour>
      <point x="370.504" y="197.631" type="curve" smooth="yes"/>
      <point x="349.028" y="197.631"/>
      <point x="318.442" y="180.316"/>
      <point x="318.442" y="119.388" type="curve" smooth="yes"/>
      <point x="318.442" y="60.3154"/>
      <point x="347.918" y="40.3623"/>
      <point x="371.352" y="40.3623" type="curve" smooth="yes"/>
      <point x="392.764" y="40.3623"/>
      <point x="422.878" y="57.6436"/>
      <point x="422.878" y="117.284" type="curve" smooth="yes"/>
      <point x="422.878" y="181.515"/>
      <point x="391.074" y="197.631"/>
    </contour>
  </outline>
</glyph>
<glyph name="ampersand" format="1">
  <advance width="500"/>
  <unicode hex="0026"/>
  <outline>
    <contour>
      <point x="228.884" y="629.225" type="curve" smooth="yes"/>
      <point x="303.854" y="629.225"/>
      <point x="362.502" y="573.112"/>
      <point x="362.502" y="496.089" type="curve" smooth="yes"/>
      <point x="362.502" y="430.673"/>
      <point x="319.816" y="365.326"/>
      <point x="254.585" y="329.666" type="curve"/>
      <point x="366.775" y="173.463" type="line"/>
      <point x="390.53" y="201.048"/>
      <point x="404.206" y="230.194"/>
      <point x="411.677" y="253.802" type="curve" smooth="yes"/>
      <point x="412.427" y="256.172"/>
      <point x="413.016" y="258.832"/>
      <point x="413.016" y="261.607" type="curve" smooth="yes"/>
      <point x="413.016" y="265.551"/>
      <point x="411.634" y="269.438"/>
      <point x="411.634" y="273.517" type="curve" smooth="yes"/>
      <point x="411.634" y="278.4"/>
      <point x="413.598" y="281.778"/>
      <point x="415.966" y="283.927" type="curve" smooth="yes"/>
      <point x="480.691" y="239.051" type="line"/>
      <point x="458.172" y="198.542"/>
      <point x="432.805" y="159.609"/>
      <point x="404.747" y="122.546" type="curve"/>
      <point x="474.65" y="31.9307" type="line"/>
      <point x="415.966" y="-12.082" type="line"/>
      <point x="360.734" y="75.9443" type="line"/>
      <point x="321.041" y="26.7441"/>
      <point x="259.461" y="-10.3828"/>
      <point x="192.12" y="-10.3828" type="curve" smooth="yes"/>
      <point x="102.125" y="-10.3828"/>
      <point x="36.0146" y="57.1943"/>
      <point x="36.0146" y="146.22" type="curve" smooth="yes"/>
      <point x="36.0146" y="223.285"/>
      <point x="85.4004" y="300.594"/>
      <point x="162.244" y="342.611" type="curve"/>
      <point x="125.246" y="387.312"/>
      <point x="91.4678" y="443.112"/>
      <point x="91.4678" y="498.024" type="curve" smooth="yes"/>
      <point x="91.4678" y="572.654"/>
      <point x="152.849" y="629.225"/>
    </contour>
    <contour>
      <point x="160.431" y="496.754" type="curve" smooth="yes"/>
      <point x="160.431" y="470.456"/>
      <point x="171.306" y="434.905"/>
      <point x="220.928" y="372.816" type="curve"/>
      <point x="267.32" y="398.46"/>
      <point x="297.015" y="445.75"/>
      <point x="297.015" y="491.31" type="curve" smooth="yes"/>
      <point x="297.015" y="538.671"/>
      <point x="264.455" y="569.928"/>
      <point x="227.604" y="569.928" type="curve" smooth="yes"/>
      <point x="192.145" y="569.928"/>
      <point x="160.431" y="540.607"/>
    </contour>
    <contour>
      <point x="196.764" y="296.009" type="line"/>
      <point x="143.626" y="261.576"/>
      <point x="111.643" y="204.918"/>
      <point x="111.643" y="153.14" type="curve" smooth="yes"/>
      <point x="111.643" y="95.0615"/>
      <point x="151.904" y="54.2188"/>
      <point x="202.955" y="54.2188" type="curve" smooth="yes"/>
      <point x="269.606" y="54.2188"/>
      <point x="324.488" y="123.409"/>
      <point x="324.488" y="123.409" type="curve"/>
    </contour>
  </outline>
</glyph>
<glyph name="quotesingle" format="1">
  <advance width="500"/>
  <unicode hex="0027"/>
  <outline>
    <contour>
      <point x="319.026" y="604.66" type="curve" smooth="yes"/>
      <point x="319.026" y="578.388"/>
      <point x="310.521" y="546.49"/>
      <point x="285.653" y="478.102" type="curve" smooth="yes"/>
      <point x="261.489" y="411.651" type="line"/>
      <point x="206.257" y="425.459" type="line"/>
      <point x="227.832" y="492.773" type="line" smooth="yes"/>
      <point x="233.226" y="509.602"/>
      <point x="237.587" y="528.471"/>
      <point x="237.587" y="548.096" type="curve" smooth="yes"/>
      <point x="237.587" y="569.807"/>
      <point x="231.322" y="589.799"/>
      <point x="231.322" y="611.451" type="curve" smooth="yes"/>
      <point x="231.322" y="650.961"/>
      <point x="254.725" y="666.359"/>
      <point x="274.007" y="666.359" type="curve" smooth="yes"/>
      <point x="293.65" y="666.359"/>
      <point x="319.026" y="649.91"/>
    </contour>
  </outline>
</glyph>
<glyph name="parenleft" format="1">
  <advance width="500"/>
  <unicode hex="0028"/>
  <outline>
    <contour>
      <point x="391.802" y="666.236" type="curve"/>
      <point x="422.007" y="604.963" type="line" smooth="yes"/>
      <point x="418.619" y="603.032"/>
      <point x="415.387" y="602.901"/>
      <point x="413.954" y="602.901" type="curve" smooth="yes"/>
      <point x="409.988" y="602.901"/>
      <point x="406.813" y="604.041"/>
      <point x="403.3" y="604.041" type="curve" smooth="yes"/>
      <point x="399.324" y="604.041"/>
      <point x="396.918" y="602.494"/>
      <point x="394.249" y="600.92" type="curve" smooth="yes"/>
      <point x="277.414" y="532.011"/>
      <point x="208.219" y="404.626"/>
      <point x="208.219" y="261.786" type="curve" smooth="yes"/>
      <point x="208.219" y="106.42"/>
      <point x="288.785" y="-40.5342"/>
      <point x="425.459" y="-119.957" type="curve"/>
      <point x="392.665" y="-172.6" type="line"/>
      <point x="234.267" y="-89.457"/>
      <point x="138.667" y="76.7998"/>
      <point x="138.667" y="258.436" type="curve" smooth="yes"/>
      <point x="138.667" y="441.482"/>
      <point x="237.047" y="598.161"/>
    </contour>
  </outline>
</glyph>
<glyph name="parenright" format="1">
  <advance width="500"/>
  <unicode hex="0029"/>
  <outline>
    <contour>
      <point x="77.6699" y="603.237" type="curve"/>
      <point x="96.6562" y="665.373" type="line"/>
      <point x="259.129" y="590.596"/>
      <point x="364.186" y="428.594"/>
      <point x="364.186" y="250.52" type="curve" smooth="yes"/>
      <point x="364.186" y="70.8564"/>
      <point x="257.32" y="-95.2607"/>
      <point x="91.4775" y="-174.326" type="curve"/>
      <point x="72.4922" y="-113.916" type="line"/>
      <point x="207.633" y="-42.3877"/>
      <point x="293.444" y="97.1709"/>
      <point x="293.444" y="247.662" type="curve" smooth="yes"/>
      <point x="293.444" y="396.078"/>
      <point x="209.841" y="532.972"/>
    </contour>
  </outline>
</glyph>
<glyph name="asterisk" format="1">
  <advance width="500"/>
  <unicode hex="002A"/>
  <outline>
    <contour>
      <point x="213.161" y="518.663" type="line"/>
      <point x="294.283" y="518.663" type="line"/>
      <point x="292.588" y="506.769"/>
      <point x="289.528" y="504.343"/>
      <point x="288.242" y="491.91" type="curve" smooth="yes"/>
      <point x="272.708" y="341.748" type="line"/>
      <point x="431.5" y="414.24" type="line"/>
      <point x="458.253" y="352.967" type="line"/>
      <point x="286.516" y="301.188" type="line"/>
      <point x="412.514" y="150.162" type="line"/>
      <point x="358.145" y="107.012" type="line"/>
      <point x="250.27" y="272.708" type="line"/>
      <point x="138.08" y="106.149" type="line"/>
      <point x="83.7109" y="150.162" type="line"/>
      <point x="214.024" y="300.324" type="line"/>
      <point x="41.4238" y="352.967" type="line"/>
      <point x="67.3145" y="417.692" type="line"/>
      <point x="228.695" y="341.748" type="line"/>
    </contour>
  </outline>
</glyph>
<glyph name="plus" format="1">
  <advance width="500"/>
  <unicode hex="002B"/>
  <outline>
    <contour>
      <point x="221.791" y="522.979" type="line"/>
      <point x="284.79" y="522.979" type="line"/>
      <point x="284.79" y="352.104" type="line"/>
      <point x="455.664" y="352.104" type="line"/>
      <point x="455.664" y="290.831" type="line"/>
      <point x="284.79" y="290.831" type="line"/>
      <point x="284.79" y="103.56" type="line"/>
      <point x="221.791" y="103.56" type="line"/>
      <point x="221.791" y="290.831" type="line"/>
      <point x="44.876" y="290.831" type="line"/>
      <point x="44.876" y="352.104" type="line"/>
      <point x="221.791" y="352.104" type="line"/>
    </contour>
  </outline>
</glyph>
<glyph name="comma" format="1">
  <advance width="500"/>
  <unicode hex="002C"/>
  <outline>
    <contour>
      <point x="305.634" y="19.707" type="curve" smooth="yes"/>
      <point x="305.634" y="-32.3574"/>
      <point x="269.002" y="-97.5684"/>
      <point x="199.353" y="-168.285" type="curve"/>
      <point x="164.833" y="-138.08" type="line"/>
      <point x="188.55" y="-116.269"/>
      <point x="205.352" y="-91.9346"/>
      <point x="215.119" y="-75.8867" type="curve" smooth="yes"/>
      <point x="220.003" y="-67.8643"/>
      <point x="229.927" y="-50.7734"/>
      <point x="229.927" y="-34.2246" type="curve" smooth="yes"/>
      <point x="229.927" y="-13.6377"/>
      <point x="215.189" y="-4.42969"/>
      <point x="206.502" y="1.34863" type="curve" smooth="yes"/>
      <point x="197.667" y="7.22461"/>
      <point x="178.617" y="18.7227"/>
      <point x="178.617" y="45.6113" type="curve" smooth="yes"/>
      <point x="178.617" y="75.8145"/>
      <point x="203.268" y="102.637"/>
      <point x="236.179" y="102.637" type="curve" smooth="yes"/>
      <point x="271.747" y="102.637"/>
      <point x="305.634" y="70.8809"/>
    </contour>
  </outline>
</glyph>
<glyph name="period" format="1">
  <advance width="500"/>
  <unicode hex="002E"/>
  <outline>
    <contour>
      <point x="297.736" y="46.165" type="curve" smooth="yes"/>
      <point x="297.736" y="14.6787"/>
      <point x="271.458" y="-11.2588"/>
      <point x="238.569" y="-11.2588" type="curve" smooth="yes"/>
      <point x="205.752" y="-11.2588"/>
      <point x="179.463" y="14.6543"/>
      <point x="179.463" y="46.1777" type="curve" smooth="yes"/>
      <point x="179.463" y="77.6377"/>
      <point x="205.725" y="103.562"/>
      <point x="238.587" y="103.562" type="curve" smooth="yes"/>
      <point x="271.462" y="103.562"/>
      <point x="297.736" y="77.6367"/>
    </contour>
  </outline>
</glyph>
<glyph name="slash" format="1">
  <advance width="500"/>
  <unicode hex="002F"/>
  <outline>
    <contour>
      <point x="63.8623" y="-12.9453" type="line"/>
      <point x="377.131" y="664.51" type="line"/>
      <point x="436.678" y="634.305" type="line"/>
      <point x="122.546" y="-42.2871" type="line"/>
    </contour>
  </outline>
</glyph>
<glyph name="zero" format="1">
  <advance width="500"/>
  <unicode hex="0030"/>
  <outline>
    <contour>
      <point x="251.348" y="627.401" type="curve" smooth="yes"/>
      <point x="347.224" y="627.401"/>
      <point x="449.629" y="513.674"/>
      <point x="449.629" y="301.004" type="curve" smooth="yes"/>
      <point x="449.629" y="86.8994"/>
      <point x="342.881" y="-11.2373"/>
      <point x="252.449" y="-11.2373" type="curve" smooth="yes"/>
      <point x="153.923" y="-11.2373"/>
      <point x="50.0469" y="104.991"/>
      <point x="50.0469" y="306.557" type="curve" smooth="yes"/>
      <point x="50.0469" y="505.964"/>
      <point x="152.462" y="627.401"/>
    </contour>
    <contour>
      <point x="348.71" y="484.97" type="line"/>
      <point x="321.979" y="539.975"/>
      <point x="284.494" y="566.128"/>
      <point x="250.405" y="566.128" type="curve" smooth="yes"/>
      <point x="188.649" y="566.128"/>
      <point x="115.465" y="478.129"/>
      <point x="115.465" y="318.715" type="curve" smooth="yes"/>
      <point x="115.465" y="274.664"/>
      <point x="120.582" y="235.173"/>
      <point x="129.37" y="200.942" type="curve"/>
    </contour>
    <contour>
      <point x="371.835" y="418.146" type="curve"/>
      <point x="152.452" y="137.573" type="line"/>
      <point x="179.53" y="82.9209"/>
      <point x="217.86" y="52.5439"/>
      <point x="254.867" y="52.5439" type="curve" smooth="yes"/>
      <point x="309.846" y="52.5439"/>
      <point x="384.983" y="118.759"/>
      <point x="384.983" y="292.882" type="curve" smooth="yes"/>
      <point x="384.983" y="341.341"/>
      <point x="380.117" y="383.004"/>
    </contour>
  </outline>
</glyph>
<glyph name="one" format="1">
  <advance width="500"/>
  <unicode hex="0031"/>
  <outline>
    <contour>
      <point x="299.461" y="623.949" type="line"/>
      <point x="299.461" y="-0.863281" type="line"/>
      <point x="229.558" y="-0.863281" type="line"/>
      <point x="229.558" y="536.786" type="line"/>
      <point x="104.423" y="499.677" type="line"/>
      <point x="88.0264" y="538.512" type="line"/>
      <point x="251.133" y="623.949" type="line"/>
    </contour>
  </outline>
</glyph>
<glyph name="two" format="1">
  <advance width="500"/>
  <unicode hex="0032"/>
  <outline>
    <contour>
      <point x="77.6699" y="526.43" type="line"/>
      <point x="114.393" y="589.188"/>
      <point x="181.381" y="627.408"/>
      <point x="252.089" y="627.408" type="curve" smooth="yes"/>
      <point x="353.809" y="627.408"/>
      <point x="432.826" y="549.466"/>
      <point x="432.826" y="452.38" type="curve" smooth="yes"/>
      <point x="432.826" y="362.768"/>
      <point x="368.875" y="298.681"/>
      <point x="323.195" y="255.885" type="curve" smooth="yes"/>
      <point x="278.271" y="213.797"/>
      <point x="205.586" y="151.877"/>
      <point x="153.614" y="61.2734" type="curve"/>
      <point x="415.104" y="61.2734" type="line" smooth="yes"/>
      <point x="419.663" y="61.2734"/>
      <point x="421.741" y="61.9131"/>
      <point x="425.797" y="65.4102" type="curve" smooth="yes"/>
      <point x="427.875" y="67.2021"/>
      <point x="432.776" y="72.0566"/>
      <point x="439.267" y="69.9033" type="curve"/>
      <point x="439.267" y="0" type="line"/>
      <point x="73.3555" y="0" type="line"/>
      <point x="73.3555" y="44.0127" type="line"/>
      <point x="125.831" y="147.513"/>
      <point x="183.219" y="211.816"/>
      <point x="254.38" y="275.925" type="curve" smooth="yes"/>
      <point x="299.562" y="316.629"/>
      <point x="363.518" y="371.33"/>
      <point x="363.518" y="447.245" type="curve" smooth="yes"/>
      <point x="363.518" y="514.216"/>
      <point x="310.232" y="565.652"/>
      <point x="243.845" y="565.652" type="curve" smooth="yes"/>
      <point x="189.426" y="565.652"/>
      <point x="152.016" y="531.746"/>
      <point x="137.311" y="508.884" type="curve" smooth="yes"/>
      <point x="131.977" y="500.592"/>
      <point x="134.532" y="494.343"/>
      <point x="128.587" y="485.869" type="curve"/>
    </contour>
  </outline>
</glyph>
<glyph name="three" format="1">
  <advance width="500"/>
  <unicode hex="0033"/>
  <outline>
    <contour>
      <point x="410.821" y="467.188" type="curve" smooth="yes"/>
      <point x="410.821" y="406.61"/>
      <point x="373.495" y="353.081"/>
      <point x="317.584" y="332.255" type="curve"/>
      <point x="382.229" y="308.633"/>
      <point x="424.619" y="245.552"/>
      <point x="424.619" y="171.413" type="curve" smooth="yes"/>
      <point x="424.619" y="74.6025"/>
      <point x="352.14" y="-10.5205"/>
      <point x="232.771" y="-10.5205" type="curve" smooth="yes"/>
      <point x="170.368" y="-10.5205"/>
      <point x="110.83" y="13.9502"/>
      <point x="69.04" y="60.4102" type="curve"/>
      <point x="121.683" y="123.409" type="line"/>
      <point x="130.565" y="114.316"/>
      <point x="126.114" y="104.625"/>
      <point x="134.606" y="95.0576" type="curve" smooth="yes"/>
      <point x="139.034" y="90.0693"/>
      <point x="174.097" y="52.8691"/>
      <point x="232.145" y="52.8691" type="curve" smooth="yes"/>
      <point x="305.093" y="52.8691"/>
      <point x="357.543" y="111.461"/>
      <point x="357.543" y="179.892" type="curve" smooth="yes"/>
      <point x="357.543" y="254.159"/>
      <point x="295.54" y="298.234"/>
      <point x="211.166" y="298.234" type="curve" smooth="yes"/>
      <point x="200.577" y="298.234"/>
      <point x="189.997" y="297.485"/>
      <point x="179.504" y="296.009" type="curve"/>
      <point x="179.504" y="352.104" type="line"/>
      <point x="238.62" y="352.233"/>
      <point x="266.966" y="363.105"/>
      <point x="277.921" y="367.917" type="curve" smooth="yes"/>
      <point x="321.053" y="386.861"/>
      <point x="344.374" y="428.002"/>
      <point x="344.374" y="465.959" type="curve" smooth="yes"/>
      <point x="344.374" y="518.592"/>
      <point x="300.002" y="563.043"/>
      <point x="236.06" y="563.043" type="curve" smooth="yes"/>
      <point x="197.529" y="563.043"/>
      <point x="157.65" y="546.358"/>
      <point x="128.587" y="515.211" type="curve"/>
      <point x="89.752" y="558.361" type="line"/>
      <point x="128.859" y="601.083"/>
      <point x="183.271" y="625.062"/>
      <point x="239.476" y="625.062" type="curve" smooth="yes"/>
      <point x="338.026" y="625.062"/>
      <point x="410.821" y="552.244"/>
    </contour>
  </outline>
</glyph>
<glyph name="four" format="1">
  <advance width="500"/>
  <unicode hex="0034"/>
  <outline>
    <contour>
      <point x="313.269" y="623.949" type="line"/>
      <point x="371.953" y="623.949" type="line"/>
      <point x="371.953" y="233.873" type="line"/>
      <point x="452.212" y="233.873" type="line"/>
      <point x="452.212" y="171.737" type="line"/>
      <point x="371.953" y="171.737" type="line"/>
      <point x="371.953" y="0" type="line"/>
      <point x="299.461" y="0" type="line"/>
      <point x="299.461" y="172.6" type="line"/>
      <point x="48.3281" y="172.6" type="line"/>
      <point x="48.3281" y="224.38" type="line"/>
    </contour>
    <contour>
      <point x="300.324" y="512.622" type="line"/>
      <point x="117.368" y="233.873" type="line"/>
      <point x="300.324" y="233.873" type="line"/>
    </contour>
  </outline>
</glyph>
<glyph name="five" format="1">
  <advance width="500"/>
  <unicode hex="0035"/>
  <outline>
    <contour>
      <point x="106.149" y="623.086" type="line"/>
      <point x="422.007" y="623.086" type="line"/>
      <point x="422.007" y="560.087" type="line"/>
      <point x="164.833" y="560.087" type="line"/>
      <point x="155.34" y="380.583" type="line"/>
      <point x="187.624" y="396.688"/>
      <point x="222.43" y="404.759"/>
      <point x="256.84" y="404.759" type="curve" smooth="yes"/>
      <point x="361.168" y="404.759"/>
      <point x="445.348" y="330.382"/>
      <point x="445.348" y="196.994" type="curve" smooth="yes"/>
      <point x="445.348" y="61.9375"/>
      <point x="356.245" y="-11.2334"/>
      <point x="248.534" y="-11.2334" type="curve" smooth="yes"/>
      <point x="174.487" y="-11.2334"/>
      <point x="105.183" y="23.5811"/>
      <point x="63.8623" y="84.5742" type="curve"/>
      <point x="125.998" y="131.176" type="line"/>
      <point x="134.555" y="125.072"/>
      <point x="129.422" y="115.224"/>
      <point x="133.45" y="107.606" type="curve" smooth="yes"/>
      <point x="136.917" y="101.052"/>
      <point x="180.389" y="50.042"/>
      <point x="247.673" y="50.042" type="curve" smooth="yes"/>
      <point x="314.563" y="50.042"/>
      <point x="373.707" y="102.493"/>
      <point x="373.707" y="198.323" type="curve" smooth="yes"/>
      <point x="373.707" y="297.623"/>
      <point x="311.78" y="347.02"/>
      <point x="246.181" y="347.02" type="curve" smooth="yes"/>
      <point x="203.631" y="347.02"/>
      <point x="159.521" y="326.112"/>
      <point x="129.45" y="288.242" type="curve"/>
      <point x="84.5742" y="306.365" type="line"/>
    </contour>
  </outline>
</glyph>
<glyph name="six" format="1">
  <advance width="500"/>
  <unicode hex="0036"/>
  <outline>
    <contour>
      <point x="287.085" y="630.109" type="curve" smooth="yes"/>
      <point x="337.789" y="630.109"/>
      <point x="387.128" y="609.113"/>
      <point x="423.733" y="573.032" type="curve"/>
      <point x="375.405" y="519.526" type="line"/>
      <point x="366.229" y="526.275"/>
      <point x="366.421" y="535.639"/>
      <point x="360.316" y="542.03" type="curve" smooth="yes"/>
      <point x="356.498" y="546.029"/>
      <point x="328.945" y="568.066"/>
      <point x="287.518" y="568.066" type="curve" smooth="yes"/>
      <point x="242.722" y="568.066"/>
      <point x="140.161" y="540.227"/>
      <point x="136.354" y="327.077" type="curve"/>
      <point x="163.883" y="373.678"/>
      <point x="214.035" y="402.276"/>
      <point x="268.397" y="402.276" type="curve" smooth="yes"/>
      <point x="356.484" y="402.276"/>
      <point x="439.336" y="327.774"/>
      <point x="439.336" y="198.092" type="curve" smooth="yes"/>
      <point x="439.336" y="69.7812"/>
      <point x="356.205" y="-10.3584"/>
      <point x="261.486" y="-10.3584" type="curve" smooth="yes"/>
      <point x="206.002" y="-10.3584"/>
      <point x="150.558" y="17.5879"/>
      <point x="114.273" y="72.3896" type="curve" smooth="yes"/>
      <point x="74.2539" y="132.832"/>
      <point x="67.1504" y="210.729"/>
      <point x="67.1504" y="283.689" type="curve" smooth="yes"/>
      <point x="67.1504" y="343.486"/>
      <point x="72.9053" y="416.031"/>
      <point x="93.7979" y="475.389" type="curve" smooth="yes"/>
      <point x="132.145" y="584.329"/>
      <point x="212.809" y="630.109"/>
    </contour>
    <contour>
      <point x="261.859" y="340.963" type="curve" smooth="yes"/>
      <point x="215.609" y="340.963"/>
      <point x="167.896" y="308.286"/>
      <point x="139.806" y="257.174" type="curve"/>
      <point x="131.55" y="140.752"/>
      <point x="188.425" y="51.7324"/>
      <point x="264.439" y="51.7324" type="curve" smooth="yes"/>
      <point x="317.286" y="51.7324"/>
      <point x="371.235" y="97.0967"/>
      <point x="371.235" y="194.529" type="curve" smooth="yes"/>
      <point x="371.235" y="301.913"/>
      <point x="311.946" y="340.963"/>
    </contour>
  </outline>
</glyph>
<glyph name="seven" format="1">
  <advance width="500"/>
  <unicode hex="0037"/>
  <outline>
    <contour>
      <point x="78.5332" y="623.086" type="line"/>
      <point x="431.5" y="623.086" type="line"/>
      <point x="431.5" y="584.251" type="line"/>
      <point x="389.332" y="487.877"/>
      <point x="349.9" y="390.306"/>
      <point x="313.269" y="291.694" type="curve" smooth="yes"/>
      <point x="277.5" y="195.404"/>
      <point x="244.401" y="98.123"/>
      <point x="214.024" y="0" type="curve"/>
      <point x="135.491" y="0" type="line"/>
      <point x="172.421" y="112.004"/>
      <point x="212.135" y="223.088"/>
      <point x="254.585" y="333.118" type="curve" smooth="yes"/>
      <point x="283.525" y="408.128"/>
      <point x="313.735" y="482.648"/>
      <point x="345.2" y="556.635" type="curve"/>
      <point x="78.5332" y="556.635" type="line"/>
    </contour>
  </outline>
</glyph>
<glyph name="eight" format="1">
  <advance width="500"/>
  <unicode hex="0038"/>
  <outline>
    <contour>
      <point x="258.229" y="630.905" type="curve" smooth="yes"/>
      <point x="349.665" y="630.905"/>
      <point x="420.455" y="565.456"/>
      <point x="420.455" y="483.35" type="curve" smooth="yes"/>
      <point x="420.455" y="423.317"/>
      <point x="381.437" y="364.838"/>
      <point x="321.036" y="333.118" type="curve"/>
      <point x="391.283" y="300.712"/>
      <point x="441.308" y="234.207"/>
      <point x="441.308" y="160.846" type="curve" smooth="yes"/>
      <point x="441.308" y="65.916"/>
      <point x="358.944" y="-10.4111"/>
      <point x="249.513" y="-10.4111" type="curve" smooth="yes"/>
      <point x="142.203" y="-10.4111"/>
      <point x="60.2764" y="63.8525"/>
      <point x="60.2764" y="156.684" type="curve" smooth="yes"/>
      <point x="60.2764" y="228.586"/>
      <point x="110.732" y="296.627"/>
      <point x="184.682" y="331.392" type="curve"/>
      <point x="128.439" y="360.118"/>
      <point x="89.7119" y="416.011"/>
      <point x="89.7119" y="477.296" type="curve" smooth="yes"/>
      <point x="89.7119" y="561.24"/>
      <point x="162.861" y="630.905"/>
    </contour>
    <contour>
      <point x="237.325" y="302.913" type="curve"/>
      <point x="178.021" y="278.293"/>
      <point x="132.033" y="224.842"/>
      <point x="132.033" y="165.958" type="curve" smooth="yes"/>
      <point x="132.033" y="103.263"/>
      <point x="184.922" y="52.6387"/>
      <point x="252.708" y="52.6387" type="curve" smooth="yes"/>
      <point x="319.318" y="52.6387"/>
      <point x="370.447" y="101.497"/>
      <point x="370.447" y="161.573" type="curve" smooth="yes"/>
      <point x="370.447" y="222.463"/>
      <point x="317.492" y="277.62"/>
    </contour>
    <contour>
      <point x="252.861" y="572.183" type="curve" smooth="yes"/>
      <point x="198.48" y="572.183"/>
      <point x="156.996" y="532.379"/>
      <point x="156.996" y="483.265" type="curve" smooth="yes"/>
      <point x="156.996" y="400.923"/>
      <point x="266.667" y="358.145"/>
      <point x="266.667" y="358.145" type="curve"/>
      <point x="315.209" y="384.252"/>
      <point x="352.104" y="430.771"/>
      <point x="352.104" y="478.727" type="curve" smooth="yes"/>
      <point x="352.104" y="530.758"/>
      <point x="308.558" y="572.183"/>
    </contour>
  </outline>
</glyph>
<glyph name="nine" format="1">
  <advance width="500"/>
  <unicode hex="0039"/>
  <outline>
    <contour>
      <point x="217.195" y="-10.4912" type="curve" smooth="yes"/>
      <point x="165.761" y="-10.4912"/>
      <point x="116.136" y="10.1826"/>
      <point x="79.3965" y="46.6016" type="curve"/>
      <point x="127.724" y="100.108" type="line"/>
      <point x="138.357" y="93.3584"/>
      <point x="135.585" y="82.5889"/>
      <point x="144.024" y="76.0518" type="curve" smooth="yes"/>
      <point x="144.231" y="75.8916"/>
      <point x="174.35" y="53.4014"/>
      <point x="219.062" y="53.4014" type="curve" smooth="yes"/>
      <point x="263.851" y="53.4014"/>
      <point x="315.597" y="76.0049"/>
      <point x="342.246" y="139.006" type="curve" smooth="yes"/>
      <point x="348.816" y="154.536"/>
      <point x="364.68" y="196.541"/>
      <point x="367.638" y="293.42" type="curve"/>
      <point x="338.595" y="251.302"/>
      <point x="290.573" y="226.069"/>
      <point x="239.151" y="226.069" type="curve" smooth="yes"/>
      <point x="148.633" y="226.069"/>
      <point x="68.1719" y="303.044"/>
      <point x="68.1719" y="422.746" type="curve" smooth="yes"/>
      <point x="68.1719" y="543.494"/>
      <point x="149.583" y="629.127"/>
      <point x="246.515" y="629.127" type="curve" smooth="yes"/>
      <point x="311.558" y="629.127"/>
      <point x="383.295" y="589.219"/>
      <point x="415.756" y="493.921" type="curve" smooth="yes"/>
      <point x="430.261" y="451.34"/>
      <point x="437.251" y="397.531"/>
      <point x="437.251" y="319.535" type="curve" smooth="yes"/>
      <point x="437.251" y="217.554"/>
      <point x="421.507" y="163.495"/>
      <point x="410.571" y="134.658" type="curve" smooth="yes"/>
      <point x="372.819" y="35.1074"/>
      <point x="293.244" y="-10.4912"/>
    </contour>
    <contour>
      <point x="245.945" y="287.145" type="curve" smooth="yes"/>
      <point x="290.818" y="287.145"/>
      <point x="336.641" y="316.899"/>
      <point x="364.186" y="363.323" type="curve"/>
      <point x="375.243" y="489.103"/>
      <point x="315.982" y="567.028"/>
      <point x="245.059" y="567.028" type="curve" smooth="yes"/>
      <point x="188.528" y="567.028"/>
      <point x="136.327" y="516.302"/>
      <point x="136.327" y="425.628" type="curve" smooth="yes"/>
      <point x="136.327" y="332.867"/>
      <point x="190.394" y="287.145"/>
    </contour>
  </outline>
</glyph>
<glyph name="colon" format="1">
  <advance width="500"/>
  <unicode hex="003A"/>
  <outline>
    <contour>
      <point x="297.736" y="365.475" type="curve" smooth="yes"/>
      <point x="297.736" y="333.988"/>
      <point x="271.458" y="308.051"/>
      <point x="238.569" y="308.051" type="curve" smooth="yes"/>
      <point x="205.752" y="308.051"/>
      <point x="179.463" y="333.964"/>
      <point x="179.463" y="365.487" type="curve" smooth="yes"/>
      <point x="179.463" y="396.947"/>
      <point x="205.725" y="422.871"/>
      <point x="238.587" y="422.871" type="curve" smooth="yes"/>
      <point x="271.462" y="422.871"/>
      <point x="297.736" y="396.946"/>
    </contour>
    <contour>
      <point x="297.736" y="46.165" type="curve" smooth="yes"/>
      <point x="297.736" y="14.6787"/>
      <point x="271.458" y="-11.2588"/>
      <point x="238.569" y="-11.2588" type="curve" smooth="yes"/>
      <point x="205.752" y="-11.2588"/>
      <point x="179.463" y="14.6543"/>
      <point x="179.463" y="46.1777" type="curve" smooth="yes"/>
      <point x="179.463" y="77.6377"/>
      <point x="205.725" y="103.562"/>
      <point x="238.587" y="103.562" type="curve" smooth="yes"/>
      <point x="271.462" y="103.562"/>
      <point x="297.736" y="77.6367"/>
    </contour>
  </outline>
</glyph>
<glyph name="semicolon" format="1">
  <advance width="500"/>
  <unicode hex="003B"/>
  <outline>
    <contour>
      <point x="305.634" y="19.707" type="curve" smooth="yes"/>
      <point x="305.634" y="-32.3574"/>
      <point x="269.002" y="-97.5684"/>
      <point x="199.353" y="-168.285" type="curve"/>
      <point x="164.833" y="-138.08" type="line"/>
      <point x="188.55" y="-116.269"/>
      <point x="205.352" y="-91.9346"/>
      <point x="215.119" y="-75.8867" type="curve" smooth="yes"/>
      <point x="220.003" y="-67.8643"/>
      <point x="229.927" y="-50.7734"/>
      <point x="229.927" y="-34.2246" type="curve" smooth="yes"/>
      <point x="229.927" y="-13.6377"/>
      <point x="215.189" y="-4.42969"/>
      <point x="206.502" y="1.34863" type="curve" smooth="yes"/>
      <point x="197.667" y="7.22461"/>
      <point x="178.617" y="18.7227"/>
      <point x="178.617" y="45.6113" type="curve" smooth="yes"/>
      <point x="178.617" y="75.8145"/>
      <point x="203.268" y="102.637"/>
      <point x="236.179" y="102.637" type="curve" smooth="yes"/>
      <point x="271.747" y="102.637"/>
      <point x="305.634" y="70.8809"/>
    </contour>
    <contour>
      <point x="297.736" y="365.475" type="curve" smooth="yes"/>
      <point x="297.736" y="333.988"/>
      <point x="271.458" y="308.051"/>
      <point x="238.569" y="308.051" type="curve" smooth="yes"/>
      <point x="205.752" y="308.051"/>
      <point x="179.463" y="333.964"/>
      <point x="179.463" y="365.487" type="curve" smooth="yes"/>
      <point x="179.463" y="396.947"/>
      <point x="205.725" y="422.871"/>
      <point x="238.587" y="422.871" type="curve" smooth="yes"/>
      <point x="271.462" y="422.871"/>
      <point x="297.736" y="396.946"/>
    </contour>
  </outline>
</glyph>
<glyph name="less" format="1">
  <advance width="500"/>
  <unicode hex="003C"/>
  <outline>
    <contour>
      <point x="458.253" y="496.225" type="line"/>
      <point x="458.253" y="566.991" type="line"/>
      <point x="34.5195" y="344.337" type="line"/>
      <point x="34.5195" y="296.009" type="line"/>
      <point x="460.842" y="47.4648" type="line"/>
      <point x="460.842" y="122.546" type="line"/>
      <point x="111.327" y="319.31" type="line"/>
    </contour>
  </outline>
</glyph>
<glyph name="equal" format="1">
  <advance width="500"/>
  <unicode hex="003D"/>
  <outline>
    <contour>
      <point x="44.876" y="438.403" type="line"/>
      <point x="455.664" y="438.403" type="line"/>
      <point x="455.664" y="377.131" type="line"/>
      <point x="44.876" y="377.131" type="line"/>
    </contour>
    <contour>
      <point x="44.876" y="231.283" type="line"/>
      <point x="455.664" y="231.283" type="line"/>
      <point x="455.664" y="170.011" type="line"/>
      <point x="44.876" y="170.011" type="line"/>
    </contour>
  </outline>
</glyph>
<glyph name="greater" format="1">
  <advance width="500"/>
  <unicode hex="003E"/>
  <outline>
    <contour>
      <point x="42.2871" y="496.225" type="line"/>
      <point x="42.2871" y="566.991" type="line"/>
      <point x="466.02" y="344.337" type="line"/>
      <point x="466.02" y="296.009" type="line"/>
      <point x="39.6982" y="47.4648" type="line"/>
      <point x="39.6982" y="122.546" type="line"/>
      <point x="389.213" y="319.31" type="line"/>
    </contour>
  </outline>
</glyph>
<glyph name="question" format="1">
  <advance width="500"/>
  <unicode hex="003F"/>
  <outline>
    <contour>
      <point x="320.175" y="44.4385" type="curve" smooth="yes"/>
      <point x="320.175" y="12.9521"/>
      <point x="293.896" y="-12.9844"/>
      <point x="261.007" y="-12.9844" type="curve" smooth="yes"/>
      <point x="228.19" y="-12.9844"/>
      <point x="201.9" y="12.9277"/>
      <point x="201.9" y="44.4521" type="curve" smooth="yes"/>
      <point x="201.9" y="75.9121"/>
      <point x="228.162" y="101.836"/>
      <point x="261.024" y="101.836" type="curve" smooth="yes"/>
      <point x="293.899" y="101.836"/>
      <point x="320.175" y="75.9102"/>
    </contour>
    <contour>
      <point x="63.8623" y="560.95" type="line"/>
      <point x="107.379" y="627.998"/>
      <point x="181.779" y="665.425"/>
      <point x="256.658" y="665.425" type="curve" smooth="yes"/>
      <point x="369.968" y="665.425"/>
      <point x="434.296" y="582.208"/>
      <point x="434.296" y="489.009" type="curve" smooth="yes"/>
      <point x="434.296" y="395.043"/>
      <point x="368.196" y="356.994"/>
      <point x="335.193" y="327.66" type="curve" smooth="yes"/>
      <point x="294.018" y="291.062"/>
      <point x="291.694" y="261.347"/>
      <point x="291.694" y="226.106" type="curve" smooth="yes"/>
      <point x="291.694" y="184.682" type="line"/>
      <point x="226.106" y="184.682" type="line"/>
      <point x="226.106" y="226.106" type="line" smooth="yes"/>
      <point x="226.106" y="270.994"/>
      <point x="228.919" y="306.197"/>
      <point x="273.096" y="354.704" type="curve" smooth="yes"/>
      <point x="303.319" y="387.891"/>
      <point x="355.19" y="428.734"/>
      <point x="355.19" y="494.248" type="curve" smooth="yes"/>
      <point x="355.19" y="553.34"/>
      <point x="309.772" y="599.917"/>
      <point x="249.954" y="599.917" type="curve" smooth="yes"/>
      <point x="199.393" y="599.917"/>
      <point x="146.314" y="566.225"/>
      <point x="114.779" y="513.485" type="curve"/>
    </contour>
  </outline>
</glyph>
<glyph name="at" format="1">
  <advance width="500"/>
  <unicode hex="0040"/>
  <outline>
    <contour>
      <point x="434.952" y="30.2051" type="line"/>
      <point x="393.065" y="3.14355"/>
      <point x="344.418" y="-11.2236"/>
      <point x="294.87" y="-11.2236" type="curve" smooth="yes"/>
      <point x="170.19" y="-11.2236"/>
      <point x="31.0498" y="81.7695"/>
      <point x="31.0498" y="313.888" type="curve" smooth="yes"/>
      <point x="31.0498" y="540.72"/>
      <point x="162.191" y="632.579"/>
      <point x="271.369" y="632.579" type="curve" smooth="yes"/>
      <point x="343.866" y="632.579"/>
      <point x="410.593" y="592.864"/>
      <point x="442.733" y="521.914" type="curve" smooth="yes"/>
      <point x="464.52" y="473.82"/>
      <point x="465.157" y="425.646"/>
      <point x="465.157" y="377.994" type="curve" smooth="yes"/>
      <point x="465.157" y="175.189" type="line"/>
      <point x="404.747" y="175.189" type="line"/>
      <point x="404.747" y="213.161" type="line"/>
      <point x="379.983" y="183.59"/>
      <point x="343.399" y="166.508"/>
      <point x="304.855" y="166.508" type="curve" smooth="yes"/>
      <point x="233.265" y="166.508"/>
      <point x="174.904" y="224.52"/>
      <point x="174.904" y="296.842" type="curve" smooth="yes"/>
      <point x="174.904" y="350.751"/>
      <point x="207.959" y="403.983"/>
      <point x="269.94" y="428.551" type="curve" smooth="yes"/>
      <point x="309.423" y="444.2"/>
      <point x="349.297" y="444.445"/>
      <point x="387.487" y="444.445" type="curve" smooth="yes"/>
      <point x="402.158" y="444.445" type="line"/>
      <point x="402.105" y="518.433"/>
      <point x="343.219" y="579.085"/>
      <point x="268.478" y="579.085" type="curve" smooth="yes"/>
      <point x="181.844" y="579.085"/>
      <point x="88.8789" y="496.785"/>
      <point x="88.8789" y="316.931" type="curve" smooth="yes"/>
      <point x="88.8789" y="121.873"/>
      <point x="203.865" y="45.6807"/>
      <point x="300.746" y="45.6807" type="curve" smooth="yes"/>
      <point x="339.022" y="45.6807"/>
      <point x="376.443" y="57.1152"/>
      <point x="408.199" y="78.5332" type="curve"/>
    </contour>
    <contour>
      <point x="404.747" y="394.391" type="line"/>
      <point x="388.35" y="394.391" type="line" smooth="yes"/>
      <point x="352.586" y="394.391"/>
      <point x="310.594" y="394.053"/>
      <point x="276.854" y="370.893" type="curve" smooth="yes"/>
      <point x="249.926" y="352.407"/>
      <point x="237.262" y="325.363"/>
      <point x="237.262" y="299.78" type="curve" smooth="yes"/>
      <point x="237.262" y="256.513"/>
      <point x="272.484" y="221.76"/>
      <point x="316.374" y="221.76" type="curve" smooth="yes"/>
      <point x="345.248" y="221.76"/>
      <point x="374.612" y="237.188"/>
      <point x="390.084" y="267.254" type="curve" smooth="yes"/>
      <point x="405.685" y="297.569"/>
      <point x="404.747" y="335.765"/>
      <point x="404.747" y="375.405" type="curve" smooth="yes"/>
    </contour>
  </outline>
</glyph>
<glyph name="A" format="1">
  <advance width="500"/>
  <unicode hex="0041"/>
  <outline>
    <contour>
      <point x="14.6709" y="-0.863281" type="line"/>
      <point x="234.736" y="634.305" type="line"/>
      <point x="242.503" y="634.305" type="line"/>
      <point x="483.28" y="0" type="line"/>
      <point x="410.788" y="0" type="line"/>
      <point x="341.748" y="182.093" type="line"/>
      <point x="144.121" y="182.093" type="line"/>
      <point x="83.7109" y="-0.863281" type="line"/>
    </contour>
    <contour>
      <point x="326.214" y="236.462" type="line"/>
      <point x="238.188" y="473.787" type="line"/>
      <point x="157.929" y="236.462" type="line"/>
    </contour>
  </outline>
</glyph>
<glyph name="B" format="1">
  <advance width="500"/>
  <unicode hex="0042"/>
  <outline>
    <contour>
      <point x="48.3281" y="623.086" type="line"/>
      <point x="225.243" y="623.086" type="line" smooth="yes"/>
      <point x="263.56" y="623.086"/>
      <point x="302.657" y="622.654"/>
      <point x="341.644" y="605.702" type="curve" smooth="yes"/>
      <point x="400.193" y="580.241"/>
      <point x="432.363" y="526.854"/>
      <point x="432.363" y="470.861" type="curve" smooth="yes"/>
      <point x="432.363" y="411.125"/>
      <point x="395.935" y="356.792"/>
      <point x="340.022" y="333.981" type="curve"/>
      <point x="409.833" y="310.451"/>
      <point x="456.633" y="245.075"/>
      <point x="456.633" y="172.517" type="curve" smooth="yes"/>
      <point x="456.633" y="108.297"/>
      <point x="419.772" y="47.2842"/>
      <point x="352.719" y="18.79" type="curve" smooth="yes"/>
      <point x="309.66" y="0.492188"/>
      <point x="266.763" y="0"/>
      <point x="224.38" y="0" type="curve" smooth="yes"/>
      <point x="48.3281" y="0" type="line"/>
    </contour>
    <contour>
      <point x="117.368" y="563.539" type="line"/>
      <point x="117.368" y="365.049" type="line"/>
      <point x="214.887" y="365.049" type="line" smooth="yes"/>
      <point x="242.628" y="365.049"/>
      <point x="272.472" y="365.163"/>
      <point x="301.155" y="377.575" type="curve" smooth="yes"/>
      <point x="340.388" y="394.555"/>
      <point x="361.743" y="428.848"/>
      <point x="361.743" y="464.413" type="curve" smooth="yes"/>
      <point x="361.743" y="500.267"/>
      <point x="339.849" y="535.565"/>
      <point x="298.531" y="552.255" type="curve" smooth="yes"/>
      <point x="270.838" y="563.441"/>
      <point x="242.359" y="563.539"/>
      <point x="215.75" y="563.539" type="curve" smooth="yes"/>
    </contour>
    <contour>
      <point x="117.368" y="306.365" type="line"/>
      <point x="117.368" y="61.2734" type="line"/>
      <point x="236.462" y="61.2734" type="line" smooth="yes"/>
      <point x="263.392" y="61.2734"/>
      <point x="289.799" y="61.7451"/>
      <point x="316.708" y="73.8701" type="curve" smooth="yes"/>
      <point x="359.765" y="93.2715"/>
      <point x="383.471" y="134.955"/>
      <point x="383.471" y="179.513" type="curve" smooth="yes"/>
      <point x="383.471" y="224.575"/>
      <point x="358.945" y="269.044"/>
      <point x="312.696" y="290.995" type="curve" smooth="yes"/>
      <point x="281.594" y="305.758"/>
      <point x="250.678" y="306.365"/>
      <point x="219.202" y="306.365" type="curve" smooth="yes"/>
    </contour>
  </outline>
</glyph>
<glyph name="E" format="1">
  <advance width="500"/>
  <unicode hex="0045"/>
  <outline>
    <contour>
      <point x="58.6836" y="623.949" type="line"/>
      <point x="440.993" y="623.949" type="line"/>
      <point x="440.993" y="561.813" type="line"/>
      <point x="125.135" y="561.813" type="line"/>
      <point x="125.135" y="357.282" type="line"/>
      <point x="385.761" y="357.282" type="line"/>
      <point x="385.761" y="293.42" type="line"/>
      <point x="125.135" y="293.42" type="line"/>
      <point x="125.135" y="62.1357" type="line"/>
      <point x="438.404" y="62.1357" type="line"/>
      <point x="438.404" y="0" type="line"/>
      <point x="58.6836" y="0" type="line"/>
    </contour>
  </outline>
</glyph>
<glyph name="F" format="1">
  <advance width="500"/>
  <unicode hex="0046"/>
  <outline>
    <contour>
      <point x="77.6699" y="623.949" type="line"/>
      <point x="436.678" y="623.949" type="line"/>
      <point x="436.678" y="562.676" type="line"/>
      <point x="148.436" y="562.676" type="line"/>
      <point x="148.436" y="366.775" type="line"/>
      <point x="381.446" y="366.775" type="line"/>
      <point x="381.446" y="306.365" type="line"/>
      <point x="148.436" y="306.365" type="line"/>
      <point x="148.436" y="0" type="line"/>
      <point x="77.6699" y="0" type="line"/>
    </contour>
  </outline>
</glyph>
<glyph name="G" format="1">
  <advance width="500"/>
  <unicode hex="0047"/>
  <outline>
    <contour>
      <point x="277.244" y="629.146" type="curve" smooth="yes"/>
      <point x="354.012" y="629.146"/>
      <point x="422.629" y="589.273"/>
      <point x="458.253" y="524.704" type="curve"/>
      <point x="409.062" y="474.65" type="line"/>
      <point x="401.237" y="479.669"/>
      <point x="398.813" y="487.585"/>
      <point x="395.744" y="494.308" type="curve" smooth="yes"/>
      <point x="376.687" y="536.063"/>
      <point x="332.42" y="567.913"/>
      <point x="276.81" y="567.913" type="curve" smooth="yes"/>
      <point x="224.32" y="567.913"/>
      <point x="168.771" y="539.145"/>
      <point x="136.623" y="478.649" type="curve" smooth="yes"/>
      <point x="112.247" y="432.776"/>
      <point x="105.28" y="376.881"/>
      <point x="105.28" y="318.856" type="curve" smooth="yes"/>
      <point x="105.28" y="253.043"/>
      <point x="112.593" y="165.619"/>
      <point x="164.612" y="106.335" type="curve" smooth="yes"/>
      <point x="198.501" y="67.7129"/>
      <point x="242.792" y="51.7773"/>
      <point x="283.104" y="51.7773" type="curve" smooth="yes"/>
      <point x="320.232" y="51.7773"/>
      <point x="360.29" y="64.835"/>
      <point x="395.254" y="89.752" type="curve"/>
      <point x="395.254" y="238.188" type="line"/>
      <point x="282.201" y="238.188" type="line"/>
      <point x="282.201" y="298.598" type="line"/>
      <point x="459.979" y="298.598" type="line"/>
      <point x="459.979" y="55.2324" type="line"/>
      <point x="401.238" y="11.9805"/>
      <point x="334.64" y="-9.53516"/>
      <point x="276.923" y="-9.53516" type="curve" smooth="yes"/>
      <point x="168.19" y="-9.53516"/>
      <point x="36.1484" y="68.2715"/>
      <point x="36.1484" y="304.097" type="curve" smooth="yes"/>
      <point x="36.1484" y="577.489"/>
      <point x="194.378" y="629.146"/>
    </contour>
  </outline>
</glyph>
<glyph name="H" format="1">
  <advance width="500"/>
  <unicode hex="0048"/>
  <outline>
    <contour>
      <point x="54.3691" y="623.086" type="line"/>
      <point x="132.039" y="623.086" type="line" smooth="yes"/>
      <point x="132.749" y="621.668"/>
      <point x="133.119" y="620.091"/>
      <point x="133.119" y="618.48" type="curve" smooth="yes"/>
      <point x="133.119" y="610.614"/>
      <point x="126.861" y="609.605"/>
      <point x="126.861" y="598.922" type="curve" smooth="yes"/>
      <point x="126.861" y="356.419" type="line"/>
      <point x="371.09" y="356.419" type="line"/>
      <point x="371.09" y="623.086" type="line"/>
      <point x="447.034" y="623.086" type="line" smooth="yes"/>
      <point x="447.787" y="621.83"/>
      <point x="448.187" y="620.381"/>
      <point x="448.187" y="618.889" type="curve" smooth="yes"/>
      <point x="448.187" y="611.318"/>
      <point x="440.993" y="611.009"/>
      <point x="440.993" y="600.648" type="curve" smooth="yes"/>
      <point x="440.993" y="-0.863281" type="line"/>
      <point x="370.227" y="-0.863281" type="line"/>
      <point x="370.227" y="296.872" type="line"/>
      <point x="126.861" y="296.872" type="line"/>
      <point x="126.861" y="0" type="line"/>
      <point x="54.3691" y="0" type="line"/>
    </contour>
  </outline>
</glyph>
<glyph name="I" format="1">
  <advance width="500"/>
  <unicode hex="0049"/>
  <outline>
    <contour>
      <point x="88.0264" y="623.086" type="line"/>
      <point x="396.98" y="623.086" type="line"/>
      <point x="396.98" y="564.402" type="line"/>
      <point x="273.571" y="564.402" type="line"/>
      <point x="273.571" y="56.958" type="line"/>
      <point x="403.021" y="56.958" type="line"/>
      <point x="403.021" y="-0.863281" type="line"/>
      <point x="81.1221" y="-0.863281" type="line"/>
      <point x="81.1221" y="57.8213" type="line"/>
      <point x="203.668" y="57.8213" type="line"/>
      <point x="203.668" y="564.402" type="line"/>
      <point x="88.0264" y="564.402" type="line"/>
    </contour>
  </outline>
</glyph>
<glyph name="J" format="1">
  <advance width="500"/>
  <unicode hex="004A"/>
  <outline>
    <contour>
      <point x="171.737" y="623.086" type="line"/>
      <point x="456.527" y="623.086" type="line"/>
      <point x="456.527" y="564.402" type="line"/>
      <point x="360.734" y="564.402" type="line"/>
      <point x="360.734" y="208.846" type="line" smooth="yes"/>
      <point x="360.734" y="163.723"/>
      <point x="360.328" y="116.41"/>
      <point x="336.459" y="71.7422" type="curve" smooth="yes"/>
      <point x="307.582" y="17.7031"/>
      <point x="253.57" y="-11.3066"/>
      <point x="194.576" y="-11.3066" type="curve" smooth="yes"/>
      <point x="139.479" y="-11.3066"/>
      <point x="86.0996" y="13.6592"/>
      <point x="49.1914" y="57.8213" type="curve"/>
      <point x="95.793" y="114.779" type="line"/>
      <point x="101.727" y="109.324"/>
      <point x="97.5391" y="102.434"/>
      <point x="101.974" y="96.7148" type="curve" smooth="yes"/>
      <point x="104.132" y="93.9307"/>
      <point x="143.57" y="50.6426"/>
      <point x="195.692" y="50.6426" type="curve" smooth="yes"/>
      <point x="225.627" y="50.6426"/>
      <point x="252.676" y="65.5391"/>
      <point x="269.349" y="90.375" type="curve" smooth="yes"/>
      <point x="292.548" y="124.931"/>
      <point x="291.694" y="169.406"/>
      <point x="291.694" y="207.983" type="curve" smooth="yes"/>
      <point x="291.694" y="564.402" type="line"/>
      <point x="171.737" y="564.402" type="line"/>
    </contour>
  </outline>
</glyph>
<glyph name="K" format="1">
  <advance width="500"/>
  <unicode hex="004B"/>
  <outline>
    <contour>
      <point x="42.2871" y="623.949" type="line"/>
      <point x="125.998" y="623.949" type="line"/>
      <point x="127.108" y="617.196"/>
      <point x="122.679" y="612.602"/>
      <point x="120.359" y="609.588" type="curve" smooth="yes"/>
      <point x="116.866" y="605.044"/>
      <point x="116.505" y="602.387"/>
      <point x="116.505" y="598.059" type="curve" smooth="yes"/>
      <point x="116.505" y="335.707" type="line"/>
      <point x="377.131" y="628.264" type="line"/>
      <point x="394.269" y="623.902"/>
      <point x="411.982" y="623.086"/>
      <point x="428.911" y="623.086" type="curve" smooth="yes"/>
      <point x="454.801" y="623.086" type="line"/>
      <point x="219.202" y="353.83" type="line"/>
      <point x="471.198" y="-0.863281" type="line"/>
      <point x="421.843" y="-0.712891"/>
      <point x="382.309" y="-4.31543"/>
      <point x="382.309" y="-4.31543" type="curve"/>
      <point x="165.696" y="311.543" type="line"/>
      <point x="116.505" y="258.037" type="line"/>
      <point x="116.505" y="0" type="line"/>
      <point x="42.2871" y="0" type="line"/>
    </contour>
  </outline>
</glyph>
<glyph name="L" format="1">
  <advance width="500"/>
  <unicode hex="004C"/>
  <outline>
    <contour>
      <point x="66.4512" y="623.086" type="line"/>
      <point x="147.573" y="623.086" type="line"/>
      <point x="148.653" y="615.978"/>
      <point x="145.562" y="610.173"/>
      <point x="144.084" y="607.359" type="curve" smooth="yes"/>
      <point x="141.138" y="601.751"/>
      <point x="138.943" y="598.464"/>
      <point x="138.943" y="589.429" type="curve" smooth="yes"/>
      <point x="138.943" y="59.5469" type="line"/>
      <point x="439.267" y="59.5469" type="line"/>
      <point x="439.267" y="-0.863281" type="line"/>
      <point x="66.4512" y="-0.863281" type="line"/>
    </contour>
  </outline>
</glyph>
<glyph name="M" format="1">
  <advance width="500"/>
  <unicode hex="004D"/>
  <outline>
    <contour>
      <point x="40.5605" y="623.086" type="line"/>
      <point x="95.793" y="623.086" type="line"/>
      <point x="250.27" y="318.447" type="line"/>
      <point x="407.336" y="623.949" type="line"/>
      <point x="459.979" y="623.949" type="line"/>
      <point x="459.979" y="-0.863281" type="line"/>
      <point x="393.528" y="-0.863281" type="line"/>
      <point x="393.528" y="470.335" type="line"/>
      <point x="258.9" y="219.202" type="line"/>
      <point x="232.147" y="219.202" type="line"/>
      <point x="106.149" y="466.883" type="line"/>
      <point x="106.149" y="-0.863281" type="line"/>
      <point x="40.5605" y="-0.863281" type="line"/>
    </contour>
  </outline>
</glyph>
<glyph name="P" format="1">
  <advance width="500"/>
  <unicode hex="0050"/>
  <outline>
    <contour>
      <point x="58.6836" y="623.086" type="line"/>
      <point x="248.544" y="623.086" type="line" smooth="yes"/>
      <point x="288.725" y="623.086"/>
      <point x="327.379" y="622.059"/>
      <point x="366.45" y="601.938" type="curve" smooth="yes"/>
      <point x="425.311" y="571.625"/>
      <point x="455.678" y="510.652"/>
      <point x="455.678" y="447.638" type="curve" smooth="yes"/>
      <point x="455.678" y="384.469"/>
      <point x="425.357" y="324.791"/>
      <point x="367.736" y="295.499" type="curve" smooth="yes"/>
      <point x="329.892" y="276.261"/>
      <point x="292.537" y="275.297"/>
      <point x="253.722" y="275.297" type="curve"/>
      <point x="253.722" y="275.297" type="line"/>
      <point x="131.176" y="275.297" type="line"/>
      <point x="131.176" y="0" type="line"/>
      <point x="58.6836" y="0" type="line"/>
    </contour>
    <contour>
      <point x="131.176" y="557.498" type="line"/>
      <point x="130.313" y="336.57" type="line"/>
      <point x="256.311" y="336.57" type="line" smooth="yes"/>
      <point x="280.877" y="336.57"/>
      <point x="304.633" y="337.155"/>
      <point x="328.657" y="349.311" type="curve" smooth="yes"/>
      <point x="364.755" y="367.574"/>
      <point x="384.037" y="404.699"/>
      <point x="384.037" y="444.434" type="curve" smooth="yes"/>
      <point x="384.037" y="484.993"/>
      <point x="363.866" y="524.636"/>
      <point x="325.022" y="544.121" type="curve" smooth="yes"/>
      <point x="299.625" y="556.861"/>
      <point x="274.576" y="557.498"/>
      <point x="248.544" y="557.498" type="curve" smooth="yes"/>
    </contour>
  </outline>
</glyph>
<glyph name="Q" format="1">
  <advance width="500"/>
  <unicode hex="0051"/>
  <outline>
    <contour>
      <point x="250.694" y="566.149" type="curve" smooth="yes"/>
      <point x="182.762" y="566.149"/>
      <point x="97.4844" y="505.621"/>
      <point x="97.4844" y="322.656" type="curve" smooth="yes"/>
      <point x="97.4844" y="125.029"/>
      <point x="181.705" y="55.2256"/>
      <point x="254.953" y="55.2256" type="curve" smooth="yes"/>
      <point x="307.238" y="55.2256"/>
      <point x="403.988" y="93.499"/>
      <point x="403.988" y="300.547" type="curve" smooth="yes"/>
      <point x="403.988" y="352.937"/>
      <point x="400.191" y="413.528"/>
      <point x="378.501" y="466.695" type="curve" smooth="yes"/>
      <point x="348.475" y="540.289"/>
      <point x="294.562" y="566.149"/>
    </contour>
    <contour>
      <point x="471.211" y="308.851" type="curve" smooth="yes"/>
      <point x="471.211" y="254.151"/>
      <point x="467.271" y="176.936"/>
      <point x="434.172" y="110.287" type="curve" smooth="yes"/>
      <point x="399.911" y="41.2988"/>
      <point x="344.169" y="3.82812"/>
      <point x="287.396" y="-6.51465" type="curve"/>
      <point x="288.559" y="-41.085"/>
      <point x="298.022" y="-82.0596"/>
      <point x="360.647" y="-82.0596" type="curve" smooth="yes"/>
      <point x="383.014" y="-82.0596"/>
      <point x="410.078" y="-78.1807"/>
      <point x="441.856" y="-76.8066" type="curve"/>
      <point x="440.13" y="-144.984" type="line"/>
      <point x="368.184" y="-144.367"/>
      <point x="324.631" y="-148.963"/>
      <point x="285.856" y="-129.715" type="curve" smooth="yes"/>
      <point x="240.448" y="-107.177"/>
      <point x="225.079" y="-64.1963"/>
      <point x="225.925" y="-7.25391" type="curve"/>
      <point x="135.298" y="6.96582"/>
      <point x="29.3408" y="90.9961"/>
      <point x="29.3408" y="312.377" type="curve" smooth="yes"/>
      <point x="29.3408" y="557.806"/>
      <point x="160.907" y="629.99"/>
      <point x="253.554" y="629.99" type="curve" smooth="yes"/>
      <point x="321.919" y="629.99"/>
      <point x="393.137" y="592.034"/>
      <point x="433.767" y="511.128" type="curve" smooth="yes"/>
      <point x="467.078" y="444.792"/>
      <point x="471.211" y="367.927"/>
    </contour>
  </outline>
</glyph>
<glyph name="R" format="1">
  <advance width="500"/>
  <unicode hex="0052"/>
  <outline>
    <contour>
      <point x="56.0947" y="623.086" type="line"/>
      <point x="239.914" y="623.086" type="line" smooth="yes"/>
      <point x="280.188" y="623.086"/>
      <point x="319.524" y="622.18"/>
      <point x="358.998" y="602.131" type="curve" smooth="yes"/>
      <point x="416.353" y="573.002"/>
      <point x="447.157" y="514.764"/>
      <point x="447.157" y="452.193" type="curve" smooth="yes"/>
      <point x="447.157" y="369.704"/>
      <point x="395.685" y="298.515"/>
      <point x="320.173" y="277.886" type="curve"/>
      <point x="464.294" y="0" type="line"/>
      <point x="385.761" y="0" type="line"/>
      <point x="247.681" y="275.297" type="line"/>
      <point x="126.861" y="275.297" type="line"/>
      <point x="126.861" y="0" type="line"/>
      <point x="56.0947" y="0" type="line"/>
    </contour>
    <contour>
      <point x="126.861" y="557.498" type="line"/>
      <point x="126.861" y="336.57" type="line"/>
      <point x="247.681" y="336.57" type="line" smooth="yes"/>
      <point x="272.247" y="336.57"/>
      <point x="296.003" y="337.155"/>
      <point x="320.027" y="349.311" type="curve" smooth="yes"/>
      <point x="356.125" y="367.574"/>
      <point x="375.407" y="404.699"/>
      <point x="375.407" y="444.434" type="curve" smooth="yes"/>
      <point x="375.407" y="484.993"/>
      <point x="355.235" y="524.636"/>
      <point x="316.393" y="544.121" type="curve" smooth="yes"/>
      <point x="290.995" y="556.861"/>
      <point x="265.946" y="557.498"/>
      <point x="239.914" y="557.498" type="curve" smooth="yes"/>
    </contour>
  </outline>
</glyph>
<glyph name="T" format="1">
  <advance width="500"/>
  <unicode hex="0054"/>
  <outline>
    <contour>
      <point x="31.0684" y="623.949" type="line"/>
      <point x="462.568" y="623.949" type="line"/>
      <point x="462.568" y="560.95" type="line"/>
      <point x="278.749" y="560.95" type="line"/>
      <point x="278.749" y="-0.863281" type="line"/>
      <point x="207.983" y="-0.863281" type="line"/>
      <point x="207.983" y="560.95" type="line"/>
      <point x="31.0684" y="560.95" type="line"/>
    </contour>
  </outline>
</glyph>
<glyph name="V" format="1">
  <advance width="500"/>
  <unicode hex="0056"/>
  <outline>
    <contour>
      <point x="25.0273" y="623.949" type="line"/>
      <point x="98.3818" y="623.949" type="line"/>
      <point x="258.037" y="144.984" type="line"/>
      <point x="409.062" y="623.086" type="line"/>
      <point x="478.102" y="623.086" type="line"/>
      <point x="269.256" y="-4.31543" type="line"/>
      <point x="237.325" y="-4.31543" type="line"/>
    </contour>
  </outline>
</glyph>
<glyph name="W" format="1">
  <advance width="500"/>
  <unicode hex="0057"/>
  <outline>
    <contour>
      <point x="17.2598" y="623.086" type="line"/>
      <point x="81.9854" y="623.086" type="line"/>
      <point x="149.299" y="201.942" type="line"/>
      <point x="249.407" y="577.347" type="line"/>
      <point x="270.982" y="577.347" type="line"/>
      <point x="371.953" y="200.216" type="line"/>
      <point x="428.911" y="623.086" type="line"/>
      <point x="487.595" y="623.086" type="line"/>
      <point x="389.213" y="-4.31543" type="line"/>
      <point x="361.597" y="-4.31543" type="line"/>
      <point x="254.585" y="407.336" type="line"/>
      <point x="145.847" y="-4.31543" type="line"/>
      <point x="117.368" y="-4.31543" type="line"/>
    </contour>
  </outline>
</glyph>
<glyph name="X" format="1">
  <advance width="500"/>
  <unicode hex="0058"/>
  <outline>
    <contour>
      <point x="378.857" y="623.949" type="line"/>
      <point x="448.76" y="623.949" type="line"/>
      <point x="291.083" y="319.383" type="line"/>
      <point x="467.746" y="0" type="line"/>
      <point x="389.213" y="0" type="line"/>
      <point x="250.679" y="246.953" type="line"/>
      <point x="117.368" y="0" type="line"/>
      <point x="40.5605" y="0" type="line"/>
      <point x="210.953" y="317.758" type="line"/>
      <point x="44.0127" y="623.949" type="line"/>
      <point x="119.094" y="623.949" type="line"/>
      <point x="250.402" y="387.111" type="line"/>
    </contour>
  </outline>
</glyph>
<glyph name="Z" format="1">
  <advance width="500"/>
  <unicode hex="005A"/>
  <outline>
    <contour>
      <point x="62.1357" y="623.086" type="line"/>
      <point x="447.034" y="623.086" type="line"/>
      <point x="446.171" y="573.895" type="line"/>
      <point x="138.08" y="61.2734" type="line"/>
      <point x="432.363" y="61.2734" type="line" smooth="yes"/>
      <point x="446.293" y="61.2734"/>
      <point x="450.123" y="69.1602"/>
      <point x="462.568" y="67.3145" type="curve"/>
      <point x="462.568" y="-0.863281" type="line"/>
      <point x="50.0537" y="-0.863281" type="line"/>
      <point x="50.0537" y="48.3281" type="line"/>
      <point x="364.186" y="560.087" type="line"/>
      <point x="62.1357" y="560.087" type="line"/>
    </contour>
  </outline>
</glyph>
<glyph name="bracketleft" format="1">
  <advance width="500"/>
  <unicode hex="005B"/>
  <outline>
    <contour>
      <point x="131.176" y="669.688" type="line"/>
      <point x="416.829" y="669.688" type="line"/>
      <point x="416.829" y="610.141" type="line"/>
      <point x="195.038" y="610.141" type="line"/>
      <point x="195.038" y="-31.9307" type="line"/>
      <point x="417.692" y="-31.9307" type="line"/>
      <point x="417.692" y="-88.8887" type="line"/>
      <point x="131.176" y="-88.8887" type="line"/>
    </contour>
  </outline>
</glyph>
<glyph name="backslash" format="1">
  <advance width="500"/>
  <unicode hex="005C"/>
  <outline>
    <contour>
      <point x="436.678" y="-12.9453" type="line"/>
      <point x="377.994" y="-42.2871" type="line"/>
      <point x="63.8623" y="634.305" type="line"/>
      <point x="123.409" y="664.51" type="line"/>
    </contour>
  </outline>
</glyph>
<glyph name="bracketright" format="1">
  <advance width="500"/>
  <unicode hex="005D"/>
  <outline>
    <contour>
      <point x="369.364" y="669.688" type="line"/>
      <point x="369.364" y="-88.8887" type="line"/>
      <point x="82.8477" y="-88.8887" type="line"/>
      <point x="82.8477" y="-31.9307" type="line"/>
      <point x="305.502" y="-31.9307" type="line"/>
      <point x="305.502" y="610.141" type="line"/>
      <point x="83.7109" y="610.141" type="line"/>
      <point x="83.7109" y="669.688" type="line"/>
    </contour>
  </outline>
</glyph>
<glyph name="asciicircum" format="1">
  <advance width="500"/>
  <unicode hex="005E"/>
  <outline>
    <contour>
      <point x="93.2041" y="366.775" type="line"/>
      <point x="245.955" y="623.086" type="line"/>
      <point x="267.53" y="623.086" type="line"/>
      <point x="403.021" y="367.638" type="line"/>
      <point x="349.515" y="342.611" type="line"/>
      <point x="252.859" y="517.8" type="line"/>
      <point x="143.258" y="342.611" type="line"/>
    </contour>
  </outline>
</glyph>
<glyph name="underscore" format="1">
  <advance width="500"/>
  <unicode hex="005F"/>
  <outline>
    <contour>
      <point x="34.5195" y="-18.9863" type="line"/>
      <point x="466.02" y="-18.9863" type="line"/>
      <point x="466.02" y="-80.2588" type="line"/>
      <point x="34.5195" y="-80.2588" type="line"/>
    </contour>
  </outline>
</glyph>
<glyph name="grave" format="1">
  <advance width="500"/>
  <unicode hex="0060"/>
  <outline>
    <contour>
      <point x="219.348" y="460.946" type="curve" smooth="yes"/>
      <point x="202.46" y="481.072"/>
      <point x="188.472" y="510.974"/>
      <point x="163.562" y="579.348" type="curve" smooth="yes"/>
      <point x="139.36" y="645.784" type="line"/>
      <point x="190.546" y="670.709" type="line"/>
      <point x="217.287" y="605.275" type="line" smooth="yes"/>
      <point x="223.973" y="588.917"/>
      <point x="232.761" y="571.659"/>
      <point x="245.375" y="556.626" type="curve" smooth="yes"/>
      <point x="259.331" y="539.994"/>
      <point x="276.98" y="528.706"/>
      <point x="290.898" y="512.119" type="curve" smooth="yes"/>
      <point x="316.295" y="481.854"/>
      <point x="308.266" y="455.015"/>
      <point x="293.494" y="442.62" type="curve" smooth="yes"/>
      <point x="278.446" y="429.993"/>
      <point x="248.434" y="426.283"/>
    </contour>
  </outline>
</glyph>
<glyph name="b" format="1">
  <advance width="500"/>
  <unicode hex="0062"/>
  <outline>
    <contour>
      <point x="59.5469" y="665.373" type="line"/>
      <point x="144.121" y="665.373" type="line"/>
      <point x="145.826" y="659.363"/>
      <point x="140.356" y="655.496"/>
      <point x="138.681" y="654.164" type="curve" smooth="yes"/>
      <point x="133.985" y="650.435"/>
      <point x="132.902" y="648.248"/>
      <point x="132.902" y="642.935" type="curve" smooth="yes"/>
      <point x="132.902" y="386.624" type="line"/>
      <point x="161.873" y="436.836"/>
      <point x="215.497" y="467.807"/>
      <point x="273.682" y="467.807" type="curve" smooth="yes"/>
      <point x="363.467" y="467.807"/>
      <point x="457.395" y="393.646"/>
      <point x="457.395" y="234.046" type="curve" smooth="yes"/>
      <point x="457.395" y="68.3115"/>
      <point x="360.083" y="-11.2852"/>
      <point x="266.404" y="-11.2852" type="curve" smooth="yes"/>
      <point x="211.584" y="-11.2852"/>
      <point x="161.179" y="15.8369"/>
      <point x="131.176" y="60.4102" type="curve"/>
      <point x="106.149" y="0" type="line"/>
      <point x="59.5469" y="0" type="line"/>
    </contour>
    <contour>
      <point x="248.604" y="405.914" type="curve" smooth="yes"/>
      <point x="203.382" y="405.914"/>
      <point x="161.871" y="380.336"/>
      <point x="144.85" y="339.145" type="curve" smooth="yes"/>
      <point x="134.463" y="314.008"/>
      <point x="132.875" y="284.603"/>
      <point x="132.875" y="243.283" type="curve" smooth="yes"/>
      <point x="132.875" y="203.747"/>
      <point x="132.543" y="176.828"/>
      <point x="135.684" y="153.065" type="curve" smooth="yes"/>
      <point x="147.196" y="65.9707"/>
      <point x="216.214" y="53.4824"/>
      <point x="247.46" y="53.4824" type="curve" smooth="yes"/>
      <point x="292.145" y="53.4824"/>
      <point x="382.515" y="79.0166"/>
      <point x="382.515" y="218.925" type="curve" smooth="yes"/>
      <point x="382.515" y="380.224"/>
      <point x="291.536" y="405.914"/>
    </contour>
  </outline>
</glyph>
<glyph name="d" format="1">
  <advance width="500"/>
  <unicode hex="0064"/>
  <outline>
    <contour>
      <point x="371.09" y="390.076" type="curve"/>
      <point x="371.09" y="665.373" type="line"/>
      <point x="447.897" y="665.373" type="line"/>
      <point x="448.267" y="658.568"/>
      <point x="444.474" y="653.601"/>
      <point x="442.411" y="650.413" type="curve" smooth="yes"/>
      <point x="438.848" y="644.904"/>
      <point x="438.396" y="642.106"/>
      <point x="438.404" y="636.895" type="curve" smooth="yes"/>
      <point x="439.267" y="42.2871" type="line" smooth="yes"/>
      <point x="439.287" y="28.458"/>
      <point x="439.979" y="13.9893"/>
      <point x="443.582" y="0" type="curve"/>
      <point x="371.953" y="0" type="line"/>
      <point x="368.292" y="11.0879"/>
      <point x="367.638" y="22.8027"/>
      <point x="367.638" y="33.6572" type="curve" smooth="yes"/>
      <point x="367.638" y="73.3555" type="line"/>
      <point x="338.946" y="22.0771"/>
      <point x="284.961" y="-10.1338"/>
      <point x="226.539" y="-10.1338" type="curve" smooth="yes"/>
      <point x="138.229" y="-10.1338"/>
      <point x="44.875" y="63.5762"/>
      <point x="44.875" y="232.223" type="curve" smooth="yes"/>
      <point x="44.875" y="406.825"/>
      <point x="150.032" y="468.686"/>
      <point x="237.114" y="468.686" type="curve" smooth="yes"/>
      <point x="300.242" y="468.686"/>
      <point x="349.127" y="437.033"/>
    </contour>
    <contour>
      <point x="240.464" y="409.96" type="curve" smooth="yes"/>
      <point x="187.899" y="409.96"/>
      <point x="114.67" y="374.059"/>
      <point x="114.67" y="243.997" type="curve" smooth="yes"/>
      <point x="114.67" y="93.5176"/>
      <point x="191.529" y="53.3418"/>
      <point x="243.254" y="53.3418" type="curve" smooth="yes"/>
      <point x="290.901" y="53.3418"/>
      <point x="338.185" y="85.1934"/>
      <point x="355.78" y="139.99" type="curve" smooth="yes"/>
      <point x="363.188" y="163.059"/>
      <point x="365.299" y="188.663"/>
      <point x="365.299" y="223.108" type="curve" smooth="yes"/>
      <point x="365.299" y="274.106"/>
      <point x="363.282" y="299.605"/>
      <point x="357.619" y="320.853" type="curve" smooth="yes"/>
      <point x="339.542" y="388.681"/>
      <point x="280.521" y="409.96"/>
    </contour>
  </outline>
</glyph>
<glyph name="f" format="1">
  <advance width="500"/>
  <unicode hex="0066"/>
  <outline>
    <contour>
      <point x="343.493" y="670.942" type="curve" smooth="yes"/>
      <point x="400.959" y="670.942"/>
      <point x="450.591" y="647.756"/>
      <point x="483.28" y="608.415" type="curve"/>
      <point x="450.486" y="541.964" type="line" smooth="yes"/>
      <point x="447.408" y="541.651"/>
      <point x="442.918" y="543.449"/>
      <point x="442.367" y="550.3" type="curve" smooth="yes"/>
      <point x="442.023" y="554.571"/>
      <point x="442.824" y="557.305"/>
      <point x="439.615" y="562.16" type="curve" smooth="yes"/>
      <point x="420.4" y="591.222"/>
      <point x="383.799" y="614.44"/>
      <point x="339.806" y="614.44" type="curve" smooth="yes"/>
      <point x="302.023" y="614.44"/>
      <point x="266.759" y="597.606"/>
      <point x="247.917" y="563.847" type="curve" smooth="yes"/>
      <point x="230.849" y="533.262"/>
      <point x="231.284" y="498.249"/>
      <point x="231.284" y="465.157" type="curve" smooth="yes"/>
      <point x="231.284" y="429.774" type="line"/>
      <point x="380.583" y="429.774" type="line"/>
      <point x="380.583" y="372.816" type="line"/>
      <point x="231.284" y="372.816" type="line"/>
      <point x="231.284" y="0" type="line"/>
      <point x="162.244" y="0" type="line"/>
      <point x="162.244" y="372.816" type="line"/>
      <point x="62.999" y="372.816" type="line"/>
      <point x="62.999" y="429.774" type="line"/>
      <point x="162.244" y="429.774" type="line"/>
      <point x="162.244" y="474.65" type="line" smooth="yes"/>
      <point x="162.244" y="515.202"/>
      <point x="163.906" y="553.269"/>
      <point x="187.321" y="591.35" type="curve" smooth="yes"/>
      <point x="219.25" y="643.274"/>
      <point x="279.303" y="670.942"/>
    </contour>
  </outline>
</glyph>
<glyph name="g" format="1">
  <advance width="500"/>
  <unicode hex="0067"/>
  <outline>
    <contour>
      <point x="125.958" y="314.358" type="curve" smooth="yes"/>
      <point x="125.958" y="259.031"/>
      <point x="170.997" y="214.023"/>
      <point x="226.53" y="214.023" type="curve" smooth="yes"/>
      <point x="282.057" y="214.023"/>
      <point x="327.128" y="259.036"/>
      <point x="327.128" y="314.396" type="curve" smooth="yes"/>
      <point x="327.128" y="369.721"/>
      <point x="282.096" y="414.733"/>
      <point x="226.568" y="414.733" type="curve" smooth="yes"/>
      <point x="171.038" y="414.733"/>
      <point x="125.958" y="369.723"/>
    </contour>
    <contour>
      <point x="230.947" y="471.671" type="curve" smooth="yes"/>
      <point x="272.61" y="471.671"/>
      <point x="310.992" y="456.119"/>
      <point x="339.159" y="428.048" type="curve"/>
      <point x="374.509" y="457.677"/>
      <point x="420.069" y="472.23"/>
      <point x="466.02" y="468.609" type="curve"/>
      <point x="474.65" y="409.925" type="line"/>
      <point x="465.945" y="411.427"/>
      <point x="457.127" y="412.182"/>
      <point x="448.293" y="412.182" type="curve" smooth="yes"/>
      <point x="420.144" y="412.182"/>
      <point x="392.564" y="404.519"/>
      <point x="368.501" y="390.076" type="curve"/>
      <point x="383.661" y="367.259"/>
      <point x="391.804" y="340.338"/>
      <point x="391.804" y="312.646" type="curve" smooth="yes"/>
      <point x="391.804" y="228.319"/>
      <point x="317.667" y="156.153"/>
      <point x="227.19" y="156.153" type="curve" smooth="yes"/>
      <point x="207.379" y="156.153"/>
      <point x="187.725" y="159.674"/>
      <point x="169.148" y="166.559" type="curve"/>
      <point x="164.658" y="162.854"/>
      <point x="136.513" y="139.65"/>
      <point x="136.513" y="115.474" type="curve" smooth="yes"/>
      <point x="136.513" y="101.074"/>
      <point x="146.697" y="90.3027"/>
      <point x="164.196" y="85.4941" type="curve" smooth="yes"/>
      <point x="173.937" y="82.8174"/>
      <point x="195.332" y="79.7451"/>
      <point x="229.44" y="79.7451" type="curve" smooth="yes"/>
      <point x="281.211" y="79.7451"/>
      <point x="336.395" y="86.1689"/>
      <point x="384.086" y="66.8027" type="curve" smooth="yes"/>
      <point x="432.613" y="47.0977"/>
      <point x="455.122" y="7.17578"/>
      <point x="455.122" y="-32.373" type="curve" smooth="yes"/>
      <point x="455.122" y="-93.6494"/>
      <point x="399.644" y="-172.068"/>
      <point x="244.915" y="-172.068" type="curve" smooth="yes"/>
      <point x="84.8027" y="-172.068"/>
      <point x="38.3418" y="-113.655"/>
      <point x="38.3418" y="-63.8477" type="curve" smooth="yes"/>
      <point x="38.3418" y="-27.5479"/>
      <point x="63.6064" y="6.04688"/>
      <point x="112.64" y="37.3496" type="curve"/>
      <point x="83.7764" y="52.5176"/>
      <point x="75.9932" y="79.21"/>
      <point x="75.9932" y="98.2324" type="curve" smooth="yes"/>
      <point x="75.9932" y="127.585"/>
      <point x="94.7627" y="158.463"/>
      <point x="127.724" y="186.408" type="curve"/>
      <point x="85.8594" y="213.649"/>
      <point x="60.1855" y="260.146"/>
      <point x="60.1855" y="310.128" type="curve" smooth="yes"/>
      <point x="60.1855" y="399.396"/>
      <point x="139.995" y="471.671"/>
    </contour>
    <contour>
      <point x="161.314" y="24.4199" type="curve"/>
      <point x="135.063" y="10.0049"/>
      <point x="104.4" y="-13.9873"/>
      <point x="104.4" y="-46.8262" type="curve" smooth="yes"/>
      <point x="104.4" y="-62.7891"/>
      <point x="112.492" y="-87.9258"/>
      <point x="149.421" y="-102.61" type="curve" smooth="yes"/>
      <point x="183.956" y="-116.341"/>
      <point x="222.834" y="-117.54"/>
      <point x="243.693" y="-117.54" type="curve" smooth="yes"/>
      <point x="274.273" y="-117.54"/>
      <point x="312.907" y="-115.605"/>
      <point x="346.384" y="-97.54" type="curve" smooth="yes"/>
      <point x="377.756" y="-80.6084"/>
      <point x="389.131" y="-56.7021"/>
      <point x="389.131" y="-36.9023" type="curve" smooth="yes"/>
      <point x="389.131" y="-16.7871"/>
      <point x="376.98" y="9.87402"/>
      <point x="334.616" y="16.2598" type="curve" smooth="yes"/>
      <point x="308.408" y="20.21"/>
      <point x="271.549" y="17.6738"/>
      <point x="237.834" y="18.9229" type="curve" smooth="yes"/>
      <point x="202.874" y="20.2178"/>
      <point x="178.63" y="22.1807"/>
    </contour>
  </outline>
</glyph>
<glyph name="h" format="1">
  <advance width="500"/>
  <unicode hex="0068"/>
  <outline>
    <contour>
      <point x="69.9033" y="0" type="line"/>
      <point x="69.9033" y="664.51" type="line"/>
      <point x="152.751" y="664.51" type="line" smooth="yes"/>
      <point x="153.078" y="663.549"/>
      <point x="153.245" y="662.535"/>
      <point x="153.245" y="661.513" type="curve" smooth="yes"/>
      <point x="153.245" y="656.298"/>
      <point x="149.184" y="653.219"/>
      <point x="146.888" y="650.797" type="curve" smooth="yes"/>
      <point x="143.49" y="647.212"/>
      <point x="143.258" y="644.602"/>
      <point x="143.258" y="641.209" type="curve" smooth="yes"/>
      <point x="143.258" y="376.268" type="line"/>
      <point x="176.804" y="427.187"/>
      <point x="233.113" y="467.748"/>
      <point x="295.109" y="467.748" type="curve" smooth="yes"/>
      <point x="347.169" y="467.748"/>
      <point x="393.997" y="438.516"/>
      <point x="416.742" y="387.114" type="curve" smooth="yes"/>
      <point x="432.992" y="350.39"/>
      <point x="433.226" y="312.694"/>
      <point x="433.226" y="277.023" type="curve"/>
      <point x="433.226" y="277.023" type="line"/>
      <point x="433.226" y="0" type="line"/>
      <point x="362.46" y="0" type="line"/>
      <point x="362.46" y="275.297" type="line" smooth="yes"/>
      <point x="362.46" y="307.566"/>
      <point x="362.254" y="346.773"/>
      <point x="337.528" y="376.32" type="curve" smooth="yes"/>
      <point x="321.119" y="395.928"/>
      <point x="298.519" y="405.248"/>
      <point x="275.591" y="405.248" type="curve" smooth="yes"/>
      <point x="227.281" y="405.248"/>
      <point x="183.379" y="364.865"/>
      <point x="165.962" y="341.655" type="curve" smooth="yes"/>
      <point x="146.958" y="316.332"/>
      <point x="143.258" y="293.982"/>
      <point x="143.258" y="263.215" type="curve" smooth="yes"/>
      <point x="143.258" y="0" type="line"/>
    </contour>
  </outline>
</glyph>
<glyph name="j" format="1">
  <advance width="500"/>
  <unicode hex="006A"/>
  <outline>
    <contour>
      <point x="125.998" y="457.39" type="line"/>
      <point x="368.501" y="457.39" type="line"/>
      <point x="368.501" y="31.9307" type="line" smooth="yes"/>
      <point x="368.501" y="-7.49512"/>
      <point x="367.441" y="-44.9668"/>
      <point x="347.93" y="-83.1768" type="curve" smooth="yes"/>
      <point x="316.96" y="-143.825"/>
      <point x="253.064" y="-174.481"/>
      <point x="187.874" y="-174.481" type="curve" smooth="yes"/>
      <point x="131.19" y="-174.481"/>
      <point x="81.0381" y="-151.049"/>
      <point x="48.3281" y="-110.464" type="curve"/>
      <point x="94.9297" y="-48.3281" type="line"/>
      <point x="101.147" y="-53.4609"/>
      <point x="99.5547" y="-59.9629"/>
      <point x="103.655" y="-66.665" type="curve" smooth="yes"/>
      <point x="107.338" y="-72.6846"/>
      <point x="137.225" y="-112.203"/>
      <point x="192.463" y="-112.203" type="curve" smooth="yes"/>
      <point x="231.104" y="-112.203"/>
      <point x="267.104" y="-91.7354"/>
      <point x="284.323" y="-54.5762" type="curve" smooth="yes"/>
      <point x="295.575" y="-30.293"/>
      <point x="296.009" y="-6.27832"/>
      <point x="296.009" y="18.123" type="curve" smooth="yes"/>
      <point x="296.009" y="397.843" type="line"/>
      <point x="125.998" y="397.843" type="line"/>
    </contour>
    <contour>
      <point x="333.12" y="655.88" type="curve" smooth="yes"/>
      <point x="361.744" y="655.88"/>
      <point x="384.914" y="632.821"/>
      <point x="384.914" y="604.525" type="curve" smooth="yes"/>
      <point x="384.914" y="576.248"/>
      <point x="361.754" y="553.176"/>
      <point x="333.109" y="553.176" type="curve" smooth="yes"/>
      <point x="304.482" y="553.176"/>
      <point x="281.322" y="576.238"/>
      <point x="281.322" y="604.52" type="curve" smooth="yes"/>
      <point x="281.322" y="632.807"/>
      <point x="304.485" y="655.88"/>
    </contour>
  </outline>
</glyph>
<glyph name="k" format="1">
  <advance width="500"/>
  <unicode hex="006B"/>
  <outline>
    <contour>
      <point x="66.4512" y="664.51" type="line"/>
      <point x="148.436" y="664.51" type="line"/>
      <point x="149.546" y="657.758"/>
      <point x="145.116" y="653.163"/>
      <point x="142.797" y="650.149" type="curve" smooth="yes"/>
      <point x="139.305" y="645.604"/>
      <point x="138.943" y="642.947"/>
      <point x="138.943" y="638.62" type="curve" smooth="yes"/>
      <point x="138.943" y="246.818" type="line"/>
      <point x="367.638" y="459.116" type="line"/>
      <point x="385.355" y="454.757"/>
      <point x="403.629" y="453.938"/>
      <point x="421.144" y="453.938" type="curve" smooth="yes"/>
      <point x="447.034" y="453.938" type="line"/>
      <point x="254.585" y="272.708" type="line"/>
      <point x="478.965" y="-0.863281" type="line" smooth="yes"/>
      <point x="476.634" y="-0.847656"/>
      <point x="474.302" y="-0.839844"/>
      <point x="471.972" y="-0.839844" type="curve" smooth="yes"/>
      <point x="424.079" y="-0.839844"/>
      <point x="385.761" y="-4.31543"/>
      <point x="385.761" y="-4.31543" type="curve"/>
      <point x="199.353" y="228.695" type="line"/>
      <point x="138.943" y="172.6" type="line"/>
      <point x="138.943" y="-0.863281" type="line"/>
      <point x="66.4512" y="-0.863281" type="line"/>
    </contour>
  </outline>
</glyph>
<glyph name="m" format="1">
  <advance width="500"/>
  <unicode hex="006D"/>
  <outline>
    <contour>
      <point x="37.9717" y="0" type="line"/>
      <point x="37.9717" y="456.527" type="line"/>
      <point x="104.423" y="456.527" type="line"/>
      <point x="103.56" y="411.651" type="line"/>
      <point x="124.562" y="443.597"/>
      <point x="159.586" y="467.794"/>
      <point x="197.059" y="467.794" type="curve" smooth="yes"/>
      <point x="238.001" y="467.794"/>
      <point x="270.724" y="439.026"/>
      <point x="277.886" y="401.295" type="curve"/>
      <point x="295.633" y="441.703"/>
      <point x="336.432" y="467.748"/>
      <point x="380.252" y="467.748" type="curve" smooth="yes"/>
      <point x="405.949" y="467.748"/>
      <point x="434.21" y="457.887"/>
      <point x="451.719" y="431.451" type="curve" smooth="yes"/>
      <point x="471.938" y="400.928"/>
      <point x="470.335" y="362.294"/>
      <point x="470.335" y="324.488" type="curve" smooth="yes"/>
      <point x="470.335" y="-0.863281" type="line"/>
      <point x="402.158" y="-0.863281" type="line"/>
      <point x="402.158" y="323.625" type="line" smooth="yes"/>
      <point x="402.158" y="344.396"/>
      <point x="404.389" y="370.539"/>
      <point x="395.975" y="389.776" type="curve" smooth="yes"/>
      <point x="388.587" y="406.669"/>
      <point x="374.483" y="415.279"/>
      <point x="359.702" y="415.279" type="curve" smooth="yes"/>
      <point x="331.961" y="415.279"/>
      <point x="314.144" y="386.85"/>
      <point x="306.58" y="374.092" type="curve" smooth="yes"/>
      <point x="289.712" y="345.643"/>
      <point x="287.379" y="326.06"/>
      <point x="287.379" y="302.05" type="curve" smooth="yes"/>
      <point x="287.379" y="0" type="line"/>
      <point x="220.065" y="0" type="line"/>
      <point x="220.065" y="317.584" type="line" smooth="yes"/>
      <point x="220.065" y="336.425"/>
      <point x="221.453" y="358.466"/>
      <point x="215.556" y="377.573" type="curve" smooth="yes"/>
      <point x="207.813" y="402.652"/>
      <point x="189.514" y="412.771"/>
      <point x="173.239" y="412.771" type="curve" smooth="yes"/>
      <point x="154.943" y="412.771"/>
      <point x="134.528" y="400.838"/>
      <point x="118" y="370.146" type="curve" smooth="yes"/>
      <point x="105.052" y="346.105"/>
      <point x="103.56" y="326.151"/>
      <point x="103.56" y="304.639" type="curve" smooth="yes"/>
      <point x="103.56" y="0" type="line"/>
    </contour>
  </outline>
</glyph>
<glyph name="q" format="1">
  <advance width="500"/>
  <unicode hex="0071"/>
  <outline>
    <contour>
      <point x="373.679" y="390.076" type="curve" smooth="yes"/>
      <point x="373.679" y="456.527" type="line"/>
      <point x="441.856" y="456.527" type="line"/>
      <point x="441.856" y="-166.559" type="line"/>
      <point x="370.227" y="-166.559" type="line"/>
      <point x="370.227" y="73.3555" type="line"/>
      <point x="341.66" y="22.4863"/>
      <point x="288.266" y="-10.0596"/>
      <point x="230.085" y="-10.0596" type="curve" smooth="yes"/>
      <point x="129.206" y="-10.0596"/>
      <point x="42.2842" y="84.6436"/>
      <point x="42.2842" y="232.697" type="curve" smooth="yes"/>
      <point x="42.2842" y="387.954"/>
      <point x="140.415" y="468.666"/>
      <point x="240.504" y="468.666" type="curve" smooth="yes"/>
      <point x="341.867" y="468.666"/>
      <point x="373.679" y="389.746"/>
    </contour>
    <contour>
      <point x="243.322" y="409.954" type="curve" smooth="yes"/>
      <point x="182.027" y="409.954"/>
      <point x="114.676" y="362.181"/>
      <point x="114.676" y="242.999" type="curve" smooth="yes"/>
      <point x="114.676" y="113.915"/>
      <point x="180.932" y="53.3252"/>
      <point x="246.1" y="53.3252" type="curve" smooth="yes"/>
      <point x="293.736" y="53.3252"/>
      <point x="340.829" y="85.4941"/>
      <point x="358.36" y="139.947" type="curve" smooth="yes"/>
      <point x="365.816" y="163.104"/>
      <point x="367.892" y="188.749"/>
      <point x="367.892" y="222.905" type="curve" smooth="yes"/>
      <point x="367.892" y="278.143"/>
      <point x="365.729" y="306.905"/>
      <point x="356.72" y="332.128" type="curve" smooth="yes"/>
      <point x="336.713" y="388.152"/>
      <point x="284.111" y="409.954"/>
    </contour>
  </outline>
</glyph>
<glyph name="t" format="1">
  <advance width="500"/>
  <unicode hex="0074"/>
  <outline>
    <contour>
      <point x="188.134" y="579.073" type="line"/>
      <point x="266.667" y="592.018" type="line"/>
      <point x="270.179" y="581.878"/>
      <point x="262.991" y="575.708"/>
      <point x="261.004" y="565.006" type="curve" smooth="yes"/>
      <point x="256.303" y="539.677"/>
      <point x="249.407" y="457.39"/>
      <point x="249.407" y="457.39" type="curve"/>
      <point x="398.706" y="457.39" type="line"/>
      <point x="398.706" y="397.843" type="line"/>
      <point x="248.544" y="397.843" type="line"/>
      <point x="242.771" y="338.449"/>
      <point x="239.875" y="278.807"/>
      <point x="239.875" y="219.091" type="curve" smooth="yes"/>
      <point x="239.875" y="152.87"/>
      <point x="242.274" y="135.292"/>
      <point x="242.811" y="131.272" type="curve" smooth="yes"/>
      <point x="250.122" y="76.4092"/>
      <point x="285.574" y="57.5391"/>
      <point x="319.676" y="57.5391" type="curve" smooth="yes"/>
      <point x="347.812" y="57.5391"/>
      <point x="383.24" y="70.4199"/>
      <point x="422.007" y="99.2451" type="curve"/>
      <point x="444.445" y="42.2871" type="line"/>
      <point x="405.809" y="14.0068"/>
      <point x="352.808" y="-8.73438"/>
      <point x="298.411" y="-8.73438" type="curve" smooth="yes"/>
      <point x="251.749" y="-8.73438"/>
      <point x="216.045" y="9.39648"/>
      <point x="194.381" y="39.9219" type="curve" smooth="yes"/>
      <point x="167.792" y="77.3848"/>
      <point x="167.422" y="123.294"/>
      <point x="167.422" y="164.279" type="curve" smooth="yes"/>
      <point x="167.422" y="241.863"/>
      <point x="170.539" y="319.619"/>
      <point x="176.915" y="397.843" type="curve"/>
      <point x="69.9033" y="397.843" type="line"/>
      <point x="70.7656" y="456.527" type="line"/>
      <point x="179.504" y="456.527" type="line"/>
    </contour>
  </outline>
</glyph>
<glyph name="v" format="1">
  <advance width="500"/>
  <unicode hex="0076"/>
  <outline>
    <contour>
      <point x="39.6982" y="457.39" type="line"/>
      <point x="125.998" y="457.39" type="line"/>
      <point x="127.724" y="449.218"/>
      <point x="122.801" y="443.896"/>
      <point x="122.801" y="437.814" type="curve" smooth="yes"/>
      <point x="122.801" y="435.409"/>
      <point x="123.437" y="433.614"/>
      <point x="124.272" y="431.5" type="curve" smooth="yes"/>
      <point x="256.311" y="97.5186" type="line"/>
      <point x="329.666" y="267.53" type="line" smooth="yes"/>
      <point x="355.527" y="327.469"/>
      <point x="379.712" y="390.821"/>
      <point x="391.802" y="457.39" type="curve"/>
      <point x="456.527" y="457.39" type="line"/>
      <point x="441.326" y="387.757"/>
      <point x="415.675" y="321.146"/>
      <point x="388.35" y="257.174" type="curve" smooth="yes"/>
      <point x="277.023" y="-3.45215" type="line"/>
      <point x="220.928" y="-3.45215" type="line"/>
    </contour>
  </outline>
</glyph>
<glyph name="w" format="1">
  <advance width="500"/>
  <unicode hex="0077"/>
  <outline>
    <contour>
      <point x="15.5342" y="457.39" type="line"/>
      <point x="88.8887" y="457.39" type="line"/>
      <point x="91.5186" y="449.62"/>
      <point x="88.8877" y="442.921"/>
      <point x="87.2383" y="437.607" type="curve" smooth="yes"/>
      <point x="84.7598" y="429.629"/>
      <point x="84.9697" y="426.021"/>
      <point x="86.2998" y="419.418" type="curve" smooth="yes"/>
      <point x="152.751" y="89.752" type="line"/>
      <point x="231.284" y="414.24" type="line"/>
      <point x="275.297" y="414.24" type="line"/>
      <point x="371.953" y="90.6152" type="line"/>
      <point x="411.315" y="350.559"/>
      <point x="416.043" y="401.313"/>
      <point x="414.24" y="456.527" type="curve"/>
      <point x="480.691" y="456.527" type="line"/>
      <point x="461.012" y="303.187"/>
      <point x="435.678" y="150.609"/>
      <point x="404.747" y="-0.863281" type="curve"/>
      <point x="337.433" y="-0.863281" type="line"/>
      <point x="252.859" y="295.146" type="line"/>
      <point x="172.6" y="-0.863281" type="line"/>
      <point x="107.875" y="-0.863281" type="line"/>
    </contour>
  </outline>
</glyph>
<glyph name="x" format="1">
  <advance width="500"/>
  <unicode hex="0078"/>
  <outline>
    <contour>
      <point x="362.46" y="457.39" type="line"/>
      <point x="435.815" y="457.39" type="line"/>
      <point x="287.765" y="234.905" type="line"/>
      <point x="455.664" y="0" type="line"/>
      <point x="373.679" y="0" type="line"/>
      <point x="247.732" y="177.636" type="line"/>
      <point x="128.587" y="0" type="line"/>
      <point x="47.4648" y="0" type="line"/>
      <point x="207.859" y="232.189" type="line"/>
      <point x="50.0537" y="457.39" type="line"/>
      <point x="128.587" y="457.39" type="line"/>
      <point x="248.317" y="288.171" type="line"/>
    </contour>
  </outline>
</glyph>
<glyph name="z" format="1">
  <advance width="500"/>
  <unicode hex="007A"/>
  <outline>
    <contour>
      <point x="70.7656" y="457.39" type="line"/>
      <point x="426.322" y="457.39" type="line"/>
      <point x="426.322" y="408.199" type="line"/>
      <point x="147.573" y="61.2734" type="line"/>
      <point x="419.418" y="61.2734" type="line" smooth="yes"/>
      <point x="433.349" y="61.2734"/>
      <point x="437.178" y="69.1602"/>
      <point x="449.623" y="67.3145" type="curve"/>
      <point x="449.623" y="-0.863281" type="line"/>
      <point x="50.0537" y="-0.863281" type="line"/>
      <point x="50.0537" y="48.3281" type="line"/>
      <point x="333.118" y="394.391" type="line"/>
      <point x="70.7656" y="394.391" type="line"/>
    </contour>
  </outline>
</glyph>
<glyph name="braceleft" format="1">
  <advance width="500"/>
  <unicode hex="007B"/>
  <outline>
    <contour>
      <point x="52.6426" y="283.927" type="line"/>
      <point x="72.4922" y="283.927" type="line" smooth="yes"/>
      <point x="90.2529" y="283.927"/>
      <point x="117.571" y="283.568"/>
      <point x="139.404" y="306.471" type="curve" smooth="yes"/>
      <point x="162.842" y="331.054"/>
      <point x="165.311" y="366.911"/>
      <point x="165.311" y="391.363" type="curve" smooth="yes"/>
      <point x="165.311" y="415.532"/>
      <point x="162.76" y="438.172"/>
      <point x="162.76" y="462.935" type="curve" smooth="yes"/>
      <point x="162.76" y="500.574"/>
      <point x="168.128" y="556.807"/>
      <point x="212.102" y="596.89" type="curve" smooth="yes"/>
      <point x="260.081" y="640.626"/>
      <point x="324.333" y="636.895"/>
      <point x="377.994" y="636.895" type="curve" smooth="yes"/>
      <point x="408.199" y="636.895" type="line"/>
      <point x="408.199" y="579.936" type="line"/>
      <point x="373.679" y="579.936" type="line" smooth="yes"/>
      <point x="329.961" y="579.936"/>
      <point x="299.5" y="584.028"/>
      <point x="272.6" y="567.232" type="curve" smooth="yes"/>
      <point x="234.1" y="543.193"/>
      <point x="232.518" y="494.521"/>
      <point x="232.518" y="474.214" type="curve" smooth="yes"/>
      <point x="232.518" y="450.271"/>
      <point x="235.475" y="428.366"/>
      <point x="235.475" y="403.938" type="curve" smooth="yes"/>
      <point x="235.475" y="380.152"/>
      <point x="232.812" y="350.589"/>
      <point x="219.581" y="323.529" type="curve" smooth="yes"/>
      <point x="204.814" y="293.332"/>
      <point x="179.37" y="269.582"/>
      <point x="148.436" y="256.311" type="curve"/>
      <point x="186.372" y="243.124"/>
      <point x="232.903" y="205.062"/>
      <point x="232.903" y="100.553" type="curve" smooth="yes"/>
      <point x="232.903" y="69.6377"/>
      <point x="229.735" y="43.417"/>
      <point x="229.735" y="16.9443" type="curve" smooth="yes"/>
      <point x="229.735" y="-17.4736"/>
      <point x="234.82" y="-61.252"/>
      <point x="270.566" y="-85.8789" type="curve" smooth="yes"/>
      <point x="297.926" y="-104.727"/>
      <point x="329.11" y="-102.697"/>
      <point x="370.227" y="-102.697" type="curve" smooth="yes"/>
      <point x="407.336" y="-102.697" type="line"/>
      <point x="407.336" y="-158.792" type="line"/>
      <point x="371.09" y="-158.792" type="line" smooth="yes"/>
      <point x="309.317" y="-158.792"/>
      <point x="258.103" y="-161.817"/>
      <point x="214.907" y="-128.668" type="curve" smooth="yes"/>
      <point x="162.226" y="-88.2393"/>
      <point x="159.169" y="-19.8535"/>
      <point x="159.169" y="16.4463" type="curve" smooth="yes"/>
      <point x="159.169" y="55.4199"/>
      <point x="162.921" y="85.2285"/>
      <point x="162.921" y="116.404" type="curve" smooth="yes"/>
      <point x="162.921" y="159.585"/>
      <point x="156.172" y="188.703"/>
      <point x="136.543" y="207.937" type="curve" smooth="yes"/>
      <point x="116.033" y="228.035"/>
      <point x="90.2754" y="227.832"/>
      <point x="73.3555" y="227.832" type="curve" smooth="yes"/>
      <point x="52.6426" y="227.832" type="line"/>
    </contour>
  </outline>
</glyph>
<glyph name="bar" format="1">
  <advance width="500"/>
  <unicode hex="007C"/>
  <outline>
    <contour>
      <point x="216.613" y="652.428" type="line"/>
      <point x="283.927" y="652.428" type="line"/>
      <point x="283.927" y="-151.025" type="line"/>
      <point x="216.613" y="-151.025" type="line"/>
    </contour>
  </outline>
</glyph>
<glyph name="braceright" format="1">
  <advance width="500"/>
  <unicode hex="007D"/>
  <outline>
    <contour>
      <point x="447.897" y="283.927" type="line"/>
      <point x="447.897" y="227.832" type="line"/>
      <point x="427.185" y="227.832" type="line" smooth="yes"/>
      <point x="410.265" y="227.832"/>
      <point x="384.507" y="228.035"/>
      <point x="363.997" y="207.937" type="curve" smooth="yes"/>
      <point x="344.368" y="188.703"/>
      <point x="337.619" y="159.585"/>
      <point x="337.619" y="116.404" type="curve" smooth="yes"/>
      <point x="337.619" y="85.2285"/>
      <point x="341.37" y="55.4199"/>
      <point x="341.37" y="16.4463" type="curve" smooth="yes"/>
      <point x="341.37" y="-19.8535"/>
      <point x="338.314" y="-88.2393"/>
      <point x="285.633" y="-128.668" type="curve" smooth="yes"/>
      <point x="242.438" y="-161.817"/>
      <point x="191.223" y="-158.792"/>
      <point x="129.45" y="-158.792" type="curve" smooth="yes"/>
      <point x="93.2041" y="-158.792" type="line"/>
      <point x="93.2041" y="-102.697" type="line"/>
      <point x="130.313" y="-102.697" type="line" smooth="yes"/>
      <point x="171.43" y="-102.697"/>
      <point x="202.614" y="-104.727"/>
      <point x="229.974" y="-85.8789" type="curve" smooth="yes"/>
      <point x="265.72" y="-61.252"/>
      <point x="270.805" y="-17.4736"/>
      <point x="270.805" y="16.9443" type="curve" smooth="yes"/>
      <point x="270.805" y="43.417"/>
      <point x="267.637" y="69.6377"/>
      <point x="267.637" y="100.553" type="curve" smooth="yes"/>
      <point x="267.637" y="205.062"/>
      <point x="314.168" y="243.124"/>
      <point x="352.104" y="256.311" type="curve"/>
      <point x="321.17" y="269.582"/>
      <point x="295.726" y="293.332"/>
      <point x="280.959" y="323.529" type="curve" smooth="yes"/>
      <point x="267.728" y="350.589"/>
      <point x="265.065" y="380.152"/>
      <point x="265.065" y="403.938" type="curve" smooth="yes"/>
      <point x="265.065" y="428.366"/>
      <point x="268.022" y="450.271"/>
      <point x="268.022" y="474.214" type="curve" smooth="yes"/>
      <point x="268.022" y="494.521"/>
      <point x="266.44" y="543.193"/>
      <point x="227.94" y="567.232" type="curve" smooth="yes"/>
      <point x="201.04" y="584.028"/>
      <point x="170.579" y="579.936"/>
      <point x="126.861" y="579.936" type="curve" smooth="yes"/>
      <point x="92.3408" y="579.936" type="line"/>
      <point x="92.3408" y="636.895" type="line"/>
      <point x="122.546" y="636.895" type="line" smooth="yes"/>
      <point x="176.207" y="636.895"/>
      <point x="240.459" y="640.626"/>
      <point x="288.438" y="596.89" type="curve" smooth="yes"/>
      <point x="332.412" y="556.807"/>
      <point x="337.78" y="500.574"/>
      <point x="337.78" y="462.935" type="curve" smooth="yes"/>
      <point x="337.78" y="438.172"/>
      <point x="335.229" y="415.532"/>
      <point x="335.229" y="391.363" type="curve" smooth="yes"/>
      <point x="335.229" y="366.911"/>
      <point x="337.698" y="331.054"/>
      <point x="361.136" y="306.471" type="curve" smooth="yes"/>
      <point x="382.969" y="283.568"/>
      <point x="410.287" y="283.927"/>
      <point x="428.048" y="283.927" type="curve" smooth="yes"/>
    </contour>
  </outline>
</glyph>
<glyph name="asciitilde" format="1">
  <advance width="500"/>
  <unicode hex="007E"/>
  <outline>
    <contour>
      <point x="91.4775" y="341.748" type="curve"/>
      <point x="41.4238" y="374.542" type="line"/>
      <point x="70.9375" y="424.626"/>
      <point x="122.113" y="464.338"/>
      <point x="178.773" y="464.338" type="curve" smooth="yes"/>
      <point x="261.3" y="464.338"/>
      <point x="287.506" y="389.212"/>
      <point x="344.564" y="389.212" type="curve" smooth="yes"/>
      <point x="377.363" y="389.212"/>
      <point x="400.992" y="414.804"/>
      <point x="429.774" y="453.938" type="curve"/>
      <point x="475.513" y="415.966" type="line"/>
      <point x="449.46" y="376.514"/>
      <point x="399.897" y="323.95"/>
      <point x="337.032" y="323.95" type="curve" smooth="yes"/>
      <point x="255.98" y="323.95"/>
      <point x="235.519" y="403.534"/>
      <point x="174.477" y="403.534" type="curve" smooth="yes"/>
      <point x="146.212" y="403.534"/>
      <point x="116.784" y="383.157"/>
    </contour>
  </outline>
</glyph>
<glyph name="exclamdown" format="1">
  <advance width="500"/>
  <unicode hex="00A1"/>
  <outline>
    <contour>
      <point x="180.329" y="608.842" type="curve" smooth="yes"/>
      <point x="180.329" y="641.455"/>
      <point x="206.828" y="667.964"/>
      <point x="239.465" y="667.964" type="curve" smooth="yes"/>
      <point x="272.092" y="667.964"/>
      <point x="298.602" y="641.467"/>
      <point x="298.602" y="608.84" type="curve" smooth="yes"/>
      <point x="298.602" y="576.225"/>
      <point x="272.102" y="549.717"/>
      <point x="239.466" y="549.717" type="curve" smooth="yes"/>
      <point x="206.839" y="549.717"/>
      <point x="180.329" y="576.215"/>
    </contour>
    <contour>
      <point x="237.917" y="-11.2324" type="curve" smooth="yes"/>
      <point x="219.148" y="-11.2324"/>
      <point x="198.105" y="1.3623"/>
      <point x="190.389" y="31.6416" type="curve" smooth="yes"/>
      <point x="188.882" y="37.5498"/>
      <point x="186.579" y="48.7559"/>
      <point x="186.579" y="72.2637" type="curve" smooth="yes"/>
      <point x="186.579" y="110.47"/>
      <point x="193.367" y="148.323"/>
      <point x="195.864" y="186.396" type="curve" smooth="yes"/>
      <point x="213.987" y="462.556" type="line"/>
      <point x="264.042" y="462.556" type="line"/>
      <point x="278.713" y="186.396" type="line" smooth="yes"/>
      <point x="282.203" y="120.689"/>
      <point x="288.581" y="96.4062"/>
      <point x="288.581" y="64.1348" type="curve" smooth="yes"/>
      <point x="288.581" y="45.4004"/>
      <point x="286.355" y="31.9082"/>
      <point x="281.766" y="20.8564" type="curve" smooth="yes"/>
      <point x="272.842" y="-0.634766"/>
      <point x="255.237" y="-11.2324"/>
    </contour>
  </outline>
</glyph>
<glyph name="cent" format="1">
  <advance width="500"/>
  <unicode hex="00A2"/>
  <outline>
    <contour>
      <point x="284.79" y="623.949" type="line"/>
      <point x="352.104" y="617.045" type="line"/>
      <point x="352.773" y="610.571"/>
      <point x="349.698" y="605.22"/>
      <point x="348.502" y="603.088" type="curve" smooth="yes"/>
      <point x="345.936" y="598.514"/>
      <point x="344.378" y="596.275"/>
      <point x="343.474" y="589.429" type="curve" smooth="yes"/>
      <point x="332.649" y="507.291" type="line"/>
      <point x="387.006" y="496.434"/>
      <point x="426.973" y="467.137"/>
      <point x="451.349" y="429.774" type="curve"/>
      <point x="407.336" y="372.816" type="line"/>
      <point x="402.683" y="376.059"/>
      <point x="402.768" y="381.46"/>
      <point x="402.768" y="382.782" type="curve" smooth="yes"/>
      <point x="402.768" y="388.436"/>
      <point x="404.494" y="392.723"/>
      <point x="399.353" y="398.821" type="curve" smooth="yes"/>
      <point x="386.448" y="414.129"/>
      <point x="361.301" y="435.507"/>
      <point x="324.654" y="446.617" type="curve"/>
      <point x="278.535" y="96.6562" type="line"/>
      <point x="279.153" y="96.6553" type="line" smooth="yes"/>
      <point x="327.476" y="96.6553"/>
      <point x="375.15" y="117.014"/>
      <point x="409.925" y="152.751" type="curve"/>
      <point x="446.171" y="104.423" type="line"/>
      <point x="403.272" y="57.3242"/>
      <point x="342.361" y="32.7842"/>
      <point x="277.544" y="32.7842" type="curve" smooth="yes"/>
      <point x="275.06" y="32.7842"/>
      <point x="272.589" y="32.8184"/>
      <point x="270.131" y="32.8877" type="curve" smooth="yes"/>
      <point x="255.448" y="-78.5332" type="line"/>
      <point x="197.627" y="-71.6289" type="line"/>
      <point x="211.799" y="41.4707" type="line"/>
      <point x="113.427" y="68.6738"/>
      <point x="48.3281" y="157.317"/>
      <point x="48.3281" y="272.566" type="curve" smooth="yes"/>
      <point x="48.3281" y="406.658"/>
      <point x="136.705" y="505.033"/>
      <point x="270.699" y="511.508" type="curve"/>
    </contour>
    <contour>
      <point x="220.103" y="107.733" type="curve"/>
      <point x="263.452" y="453.665" type="line"/>
      <point x="181.177" y="448.754"/>
      <point x="119.051" y="386.412"/>
      <point x="119.051" y="281.808" type="curve" smooth="yes"/>
      <point x="119.051" y="194.733"/>
      <point x="159.631" y="132.005"/>
    </contour>
  </outline>
</glyph>
<glyph name="sterling" format="1">
  <advance width="500"/>
  <unicode hex="00A3"/>
  <outline>
    <contour>
      <point x="417.692" y="572.169" type="curve"/>
      <point x="373.679" y="516.938" type="line"/>
      <point x="365.518" y="522.921"/>
      <point x="366.145" y="530.957"/>
      <point x="360.312" y="537.367" type="curve" smooth="yes"/>
      <point x="356.067" y="542.031"/>
      <point x="327.945" y="566.238"/>
      <point x="285.953" y="566.238" type="curve" smooth="yes"/>
      <point x="232.296" y="566.238"/>
      <point x="179.315" y="525.912"/>
      <point x="179.315" y="442.681" type="curve" smooth="yes"/>
      <point x="179.315" y="421.295"/>
      <point x="182.722" y="399.841"/>
      <point x="187.416" y="377.994" type="curve"/>
      <point x="286.516" y="377.994" type="line"/>
      <point x="286.516" y="321.036" type="line"/>
      <point x="200.915" y="321.036" type="line"/>
      <point x="208.186" y="290.091"/>
      <point x="214.487" y="257.909"/>
      <point x="214.487" y="223.674" type="curve" smooth="yes"/>
      <point x="214.487" y="174.289"/>
      <point x="201.524" y="128.155"/>
      <point x="177.778" y="89.752" type="curve"/>
      <point x="186.624" y="91.2979"/>
      <point x="195.594" y="92.0605"/>
      <point x="204.586" y="92.0605" type="curve" smooth="yes"/>
      <point x="271.07" y="92.0605"/>
      <point x="312.411" y="50.8447"/>
      <point x="369.674" y="50.8447" type="curve" smooth="yes"/>
      <point x="397.261" y="50.8447"/>
      <point x="423.273" y="61.1475"/>
      <point x="443.582" y="78.5332" type="curve"/>
      <point x="470.335" y="26.7529" type="line"/>
      <point x="447.816" y="8.84863"/>
      <point x="409.678" y="-14.8115"/>
      <point x="366.033" y="-14.8115" type="curve" smooth="yes"/>
      <point x="302.273" y="-14.8115"/>
      <point x="260.456" y="29.917"/>
      <point x="187.852" y="29.917" type="curve" smooth="yes"/>
      <point x="167.417" y="29.917"/>
      <point x="128.831" y="26.1191"/>
      <point x="64.7246" y="-7.7666" type="curve"/>
      <point x="38.835" y="49.1914" type="line"/>
      <point x="85.3613" y="70.6846"/>
      <point x="97.4756" y="75.4717"/>
      <point x="113.301" y="100.091" type="curve" smooth="yes"/>
      <point x="135.536" y="134.681"/>
      <point x="147.758" y="176.654"/>
      <point x="147.758" y="221.662" type="curve" smooth="yes"/>
      <point x="147.758" y="255.941"/>
      <point x="140.628" y="288.658"/>
      <point x="132.747" y="321.036" type="curve"/>
      <point x="67.3145" y="321.036" type="line"/>
      <point x="67.3145" y="377.994" type="line"/>
      <point x="119.375" y="377.994" type="line"/>
      <point x="115.124" y="398.989"/>
      <point x="112.129" y="420.145"/>
      <point x="112.129" y="441.794" type="curve" smooth="yes"/>
      <point x="112.129" y="553.945"/>
      <point x="194.914" y="623.091"/>
      <point x="287.699" y="623.091" type="curve" smooth="yes"/>
      <point x="335.349" y="623.091"/>
      <point x="381.807" y="605.082"/>
    </contour>
  </outline>
</glyph>
<glyph name="currency" format="1">
  <advance width="500"/>
  <unicode hex="00A4"/>
  <outline>
    <contour>
      <point x="68.0908" y="491.824" type="line"/>
      <point x="103.646" y="527.379" type="line"/>
      <point x="160.072" y="470.953" type="line"/>
      <point x="185.654" y="489.495"/>
      <point x="217.047" y="500.454"/>
      <point x="250.874" y="500.454" type="curve" smooth="yes"/>
      <point x="284.172" y="500.454"/>
      <point x="315.109" y="489.836"/>
      <point x="340.471" y="471.818" type="curve"/>
      <point x="396.031" y="527.379" type="line"/>
      <point x="431.586" y="491.824" type="line"/>
      <point x="376.277" y="436.515" type="line"/>
      <point x="395.084" y="410.824"/>
      <point x="406.214" y="379.206"/>
      <point x="406.214" y="345.114" type="curve" smooth="yes"/>
      <point x="406.214" y="311.287"/>
      <point x="395.256" y="279.895"/>
      <point x="376.714" y="254.312" type="curve"/>
      <point x="431.586" y="199.439" type="line"/>
      <point x="396.031" y="163.884" type="line"/>
      <point x="341.074" y="218.84" type="line"/>
      <point x="315.603" y="200.562"/>
      <point x="284.437" y="189.774"/>
      <point x="250.874" y="189.774" type="curve" smooth="yes"/>
      <point x="216.782" y="189.774"/>
      <point x="185.163" y="200.903"/>
      <point x="159.473" y="219.71" type="curve"/>
      <point x="103.646" y="163.884" type="line"/>
      <point x="68.0908" y="199.439" type="line"/>
      <point x="124.169" y="255.518" type="line"/>
      <point x="106.151" y="280.878"/>
      <point x="95.5342" y="311.816"/>
      <point x="95.5342" y="345.114" type="curve" smooth="yes"/>
      <point x="95.5342" y="378.677"/>
      <point x="106.321" y="409.843"/>
      <point x="124.6" y="435.314" type="curve"/>
    </contour>
    <contour>
      <point x="250.874" y="445.522" type="curve" smooth="yes"/>
      <point x="195.649" y="445.522"/>
      <point x="150.466" y="400.339"/>
      <point x="150.466" y="345.114" type="curve" smooth="yes"/>
      <point x="150.466" y="289.888"/>
      <point x="195.649" y="244.706"/>
      <point x="250.874" y="244.706" type="curve" smooth="yes"/>
      <point x="306.101" y="244.706"/>
      <point x="351.283" y="289.888"/>
      <point x="351.283" y="345.114" type="curve" smooth="yes"/>
      <point x="351.283" y="400.339"/>
      <point x="306.101" y="445.522"/>
    </contour>
  </outline>
</glyph>
<glyph name="yen" format="1">
  <advance width="500"/>
  <unicode hex="00A5"/>
  <outline>
    <contour>
      <point x="36.2461" y="623.949" type="line"/>
      <point x="113.916" y="623.949" type="line"/>
      <point x="258.9" y="363.323" type="line"/>
      <point x="391.802" y="623.086" type="line"/>
      <point x="466.02" y="623.086" type="line"/>
      <point x="291.694" y="295.146" type="line"/>
      <point x="291.694" y="274.434" type="line"/>
      <point x="426.322" y="274.434" type="line"/>
      <point x="426.322" y="217.476" type="line"/>
      <point x="291.694" y="217.476" type="line"/>
      <point x="291.694" y="154.477" type="line"/>
      <point x="426.322" y="154.477" type="line"/>
      <point x="426.322" y="98.3818" type="line"/>
      <point x="291.694" y="98.3818" type="line"/>
      <point x="291.694" y="0" type="line"/>
      <point x="223.517" y="0" type="line"/>
      <point x="223.517" y="98.3818" type="line"/>
      <point x="83.7109" y="98.3818" type="line"/>
      <point x="83.7109" y="154.477" type="line"/>
      <point x="223.517" y="154.477" type="line"/>
      <point x="223.517" y="217.476" type="line"/>
      <point x="83.7109" y="217.476" type="line"/>
      <point x="83.7109" y="274.434" type="line"/>
      <point x="223.517" y="274.434" type="line"/>
      <point x="223.517" y="295.146" type="line"/>
    </contour>
  </outline>
</glyph>
<glyph name="brokenbar" format="1">
  <advance width="500"/>
  <unicode hex="00A6"/>
  <outline>
    <contour>
      <point x="216.613" y="652.428" type="line"/>
      <point x="283.927" y="652.428" type="line"/>
      <point x="283.927" y="295.146" type="line"/>
      <point x="216.613" y="295.146" type="line"/>
    </contour>
    <contour>
      <point x="283.927" y="-151.025" type="line"/>
      <point x="216.613" y="-151.025" type="line"/>
      <point x="216.613" y="195.901" type="line"/>
      <point x="283.927" y="195.901" type="line"/>
    </contour>
  </outline>
</glyph>
<glyph name="section" format="1">
  <advance width="500"/>
  <unicode hex="00A7"/>
  <outline>
    <contour>
      <point x="412.514" y="583.388" type="curve"/>
      <point x="356.419" y="533.334" type="line"/>
      <point x="349.085" y="538.875"/>
      <point x="351.062" y="546.89"/>
      <point x="348.555" y="553.841" type="curve" smooth="yes"/>
      <point x="340.418" y="576.412"/>
      <point x="310.569" y="612.656"/>
      <point x="257.478" y="612.656" type="curve" smooth="yes"/>
      <point x="204.798" y="612.656"/>
      <point x="166.554" y="577.484"/>
      <point x="166.554" y="535.855" type="curve" smooth="yes"/>
      <point x="166.554" y="515.584"/>
      <point x="175.814" y="484.596"/>
      <point x="219.502" y="461.492" type="curve" smooth="yes"/>
      <point x="248.205" y="446.312"/>
      <point x="285.711" y="437.884"/>
      <point x="325.987" y="418.652" type="curve" smooth="yes"/>
      <point x="395.784" y="385.323"/>
      <point x="417.844" y="341.459"/>
      <point x="417.844" y="305.435" type="curve" smooth="yes"/>
      <point x="417.844" y="263.631"/>
      <point x="387.46" y="226.562"/>
      <point x="343.939" y="208.741" type="curve"/>
      <point x="387.757" y="178.973"/>
      <point x="408.35" y="135.096"/>
      <point x="408.35" y="92.5791" type="curve" smooth="yes"/>
      <point x="408.35" y="14.6621"/>
      <point x="339.092" y="-54.3867"/>
      <point x="237.993" y="-54.3867" type="curve" smooth="yes"/>
      <point x="171.412" y="-54.3867"/>
      <point x="106.58" y="-23.7363"/>
      <point x="64.7246" y="31.0684" type="curve"/>
      <point x="117.368" y="92.3408" type="line"/>
      <point x="125.13" y="89.165"/>
      <point x="123.508" y="80.4502"/>
      <point x="125.674" y="74.8281" type="curve" smooth="yes"/>
      <point x="128.707" y="66.9531"/>
      <point x="162.834" y="11.875"/>
      <point x="238.208" y="11.875" type="curve" smooth="yes"/>
      <point x="299.411" y="11.875"/>
      <point x="336.769" y="49.2246"/>
      <point x="336.769" y="90.6377" type="curve" smooth="yes"/>
      <point x="336.769" y="114.012"/>
      <point x="324.822" y="141.517"/>
      <point x="290.815" y="161.639" type="curve" smooth="yes"/>
      <point x="249.363" y="186.167"/>
      <point x="192.589" y="189.751"/>
      <point x="142.71" y="219.226" type="curve" smooth="yes"/>
      <point x="98.3066" y="245.464"/>
      <point x="79.1191" y="281.498"/>
      <point x="79.1191" y="315.933" type="curve" smooth="yes"/>
      <point x="79.1191" y="361.104"/>
      <point x="112.978" y="399.668"/>
      <point x="160.695" y="416.676" type="curve"/>
      <point x="113.005" y="446.296"/>
      <point x="93.9814" y="489.934"/>
      <point x="93.9814" y="529.564" type="curve" smooth="yes"/>
      <point x="93.9814" y="605.81"/>
      <point x="163.436" y="671.646"/>
      <point x="257.118" y="671.646" type="curve" smooth="yes"/>
      <point x="323.275" y="671.646"/>
      <point x="381.686" y="637.612"/>
    </contour>
    <contour>
      <point x="197.406" y="398.53" type="curve"/>
      <point x="170.809" y="389.838"/>
      <point x="151.854" y="365.17"/>
      <point x="151.854" y="336.102" type="curve" smooth="yes"/>
      <point x="151.854" y="313.788"/>
      <point x="163.428" y="282.977"/>
      <point x="205.8" y="262.245" type="curve" smooth="yes"/>
      <point x="235.961" y="247.488"/>
      <point x="270.585" y="242.916"/>
      <point x="306.571" y="228.338" type="curve"/>
      <point x="328.438" y="239.36"/>
      <point x="343.002" y="261.995"/>
      <point x="343.002" y="288" type="curve" smooth="yes"/>
      <point x="343.002" y="310.799"/>
      <point x="331.548" y="343.616"/>
      <point x="285.051" y="366.562" type="curve" smooth="yes"/>
      <point x="259.366" y="379.237"/>
      <point x="228.375" y="386.154"/>
    </contour>
  </outline>
</glyph>
<glyph name="dieresis" format="1">
  <advance width="500"/>
  <unicode hex="00A8"/>
  <outline>
    <contour>
      <point x="213.177" y="614.022" type="curve" smooth="yes"/>
      <point x="213.177" y="586.159"/>
      <point x="190.541" y="563.523"/>
      <point x="162.677" y="563.523" type="curve" smooth="yes"/>
      <point x="134.811" y="563.523"/>
      <point x="112.174" y="586.157"/>
      <point x="112.174" y="614.023" type="curve" smooth="yes"/>
      <point x="112.174" y="641.89"/>
      <point x="134.81" y="664.526"/>
      <point x="162.676" y="664.526" type="curve" smooth="yes"/>
      <point x="190.542" y="664.526"/>
      <point x="213.177" y="641.89"/>
    </contour>
    <contour>
      <point x="390.94" y="614.035" type="curve" smooth="yes"/>
      <point x="390.94" y="586.122"/>
      <point x="368.463" y="563.531"/>
      <point x="340.89" y="563.531" type="curve" smooth="yes"/>
      <point x="313.321" y="563.531"/>
      <point x="290.829" y="586.111"/>
      <point x="290.829" y="614.036" type="curve" smooth="yes"/>
      <point x="290.829" y="641.953"/>
      <point x="313.313" y="664.54"/>
      <point x="340.892" y="664.54" type="curve" smooth="yes"/>
      <point x="368.445" y="664.54"/>
      <point x="390.94" y="641.966"/>
    </contour>
  </outline>
</glyph>
<glyph name="copyright" format="1">
  <advance width="500"/>
  <unicode hex="00A9"/>
  <outline>
    <contour>
      <point x="262.024" y="423.812" type="curve" smooth="yes"/>
      <point x="324.957" y="423.812"/>
      <point x="373.7" y="384.473"/>
      <point x="386.624" y="331.392" type="curve"/>
      <point x="334.844" y="311.543" type="line"/>
      <point x="329.249" y="318.323"/>
      <point x="332.576" y="325.371"/>
      <point x="330.966" y="331.937" type="curve" smooth="yes"/>
      <point x="329.17" y="339.26"/>
      <point x="313.598" y="373.811"/>
      <point x="264.178" y="373.811" type="curve" smooth="yes"/>
      <point x="216.978" y="373.811"/>
      <point x="170.871" y="344.378"/>
      <point x="170.871" y="282.193" type="curve" smooth="yes"/>
      <point x="170.871" y="221.714"/>
      <point x="212.643" y="174.28"/>
      <point x="265.144" y="174.28" type="curve" smooth="yes"/>
      <point x="296.468" y="174.28"/>
      <point x="325.21" y="191.626"/>
      <point x="340.022" y="219.202" type="curve"/>
      <point x="384.035" y="189.86" type="line"/>
      <point x="356.381" y="147.941"/>
      <point x="309.881" y="121.66"/>
      <point x="260.738" y="121.66" type="curve" smooth="yes"/>
      <point x="179.403" y="121.66"/>
      <point x="114.646" y="192.22"/>
      <point x="114.646" y="275.668" type="curve" smooth="yes"/>
      <point x="114.646" y="361.025"/>
      <point x="181.434" y="423.812"/>
    </contour>
    <contour>
      <point x="255.713" y="18.8887" type="curve" smooth="yes"/>
      <point x="123.361" y="18.8887"/>
      <point x="13.5918" y="131.423"/>
      <point x="13.5918" y="273.895" type="curve" smooth="yes"/>
      <point x="13.5918" y="417.122"/>
      <point x="123.729" y="529.898"/>
      <point x="256.108" y="529.898" type="curve" smooth="yes"/>
      <point x="388.122" y="529.898"/>
      <point x="497.966" y="417.49"/>
      <point x="497.966" y="274.66" type="curve" smooth="yes"/>
      <point x="497.966" y="131.549"/>
      <point x="387.894" y="18.8887"/>
    </contour>
    <contour>
      <point x="59.3105" y="274.261" type="curve" smooth="yes"/>
      <point x="59.3105" y="155.091"/>
      <point x="149.243" y="62.0586"/>
      <point x="257.024" y="62.0586" type="curve" smooth="yes"/>
      <point x="364.472" y="62.0586"/>
      <point x="454.806" y="155.036"/>
      <point x="454.806" y="275.024" type="curve" smooth="yes"/>
      <point x="454.806" y="394.694"/>
      <point x="364.755" y="487.595"/>
      <point x="257.296" y="487.595" type="curve" smooth="yes"/>
      <point x="149.676" y="487.595"/>
      <point x="59.3105" y="394.441"/>
    </contour>
  </outline>
</glyph>
<glyph name="ordfeminine" format="1">
  <advance width="500"/>
  <unicode hex="00AA"/>
  <outline>
    <contour>
      <point x="122.546" y="566.128" type="line"/>
      <point x="158.476" y="607.418"/>
      <point x="209.794" y="622.468"/>
      <point x="257" y="622.468" type="curve" smooth="yes"/>
      <point x="311.229" y="622.468"/>
      <point x="357.017" y="600.876"/>
      <point x="377.616" y="556.604" type="curve" smooth="yes"/>
      <point x="388.165" y="533.934"/>
      <point x="389.213" y="511.294"/>
      <point x="389.213" y="485.006" type="curve" smooth="yes"/>
      <point x="389.213" y="266.667" type="line"/>
      <point x="326.214" y="266.667" type="line"/>
      <point x="326.214" y="300.324" type="line"/>
      <point x="296.544" y="272.335"/>
      <point x="258.291" y="257.173"/>
      <point x="219.521" y="257.173" type="curve" smooth="yes"/>
      <point x="150.205" y="257.173"/>
      <point x="101.83" y="305.963"/>
      <point x="101.83" y="361.566" type="curve" smooth="yes"/>
      <point x="101.83" y="394.704"/>
      <point x="119.674" y="431.827"/>
      <point x="161.356" y="454.023" type="curve" smooth="yes"/>
      <point x="206.119" y="477.859"/>
      <point x="261.183" y="475.513"/>
      <point x="310.68" y="475.513" type="curve" smooth="yes"/>
      <point x="325.351" y="475.513" type="line"/>
      <point x="325.351" y="487.595" type="line" smooth="yes"/>
      <point x="325.351" y="504.499"/>
      <point x="325.036" y="522.303"/>
      <point x="314.306" y="539.026" type="curve" smooth="yes"/>
      <point x="302.999" y="556.646"/>
      <point x="282.023" y="568.735"/>
      <point x="250.717" y="568.735" type="curve" smooth="yes"/>
      <point x="216.084" y="568.735"/>
      <point x="179.533" y="555.508"/>
      <point x="157.066" y="524.704" type="curve"/>
    </contour>
    <contour>
      <point x="327.94" y="423.733" type="line"/>
      <point x="311.543" y="423.733" type="line" smooth="yes"/>
      <point x="285.648" y="423.733"/>
      <point x="252.205" y="425.599"/>
      <point x="225.839" y="420.922" type="curve" smooth="yes"/>
      <point x="181.709" y="413.094"/>
      <point x="166.442" y="385.977"/>
      <point x="166.442" y="364.32" type="curve" smooth="yes"/>
      <point x="166.442" y="336.317"/>
      <point x="190.907" y="311.273"/>
      <point x="229.428" y="311.273" type="curve" smooth="yes"/>
      <point x="260.148" y="311.273"/>
      <point x="287.973" y="326.127"/>
      <point x="305.733" y="342.65" type="curve" smooth="yes"/>
      <point x="327.355" y="362.765"/>
      <point x="327.94" y="383.224"/>
      <point x="327.94" y="406.473" type="curve" smooth="yes"/>
    </contour>
    <contour>
      <point x="75.9443" y="206.257" type="line"/>
      <point x="425.459" y="206.257" type="line"/>
      <point x="425.459" y="151.888" type="line"/>
      <point x="75.9443" y="151.888" type="line"/>
    </contour>
  </outline>
</glyph>
<glyph name="guillemotleft" format="1">
  <advance width="500"/>
  <unicode hex="00AB"/>
  <outline>
    <contour>
      <point x="248.544" y="252.859" type="line"/>
      <point x="400.432" y="400.432" type="line"/>
      <point x="439.267" y="359.008" type="line"/>
      <point x="318.446" y="240.777" type="line"/>
      <point x="446.171" y="100.971" type="line"/>
      <point x="406.473" y="61.2734" type="line"/>
      <point x="248.544" y="229.558" type="line"/>
    </contour>
    <contour>
      <point x="67.3145" y="252.859" type="line"/>
      <point x="219.202" y="400.432" type="line"/>
      <point x="258.037" y="359.008" type="line"/>
      <point x="137.217" y="240.777" type="line"/>
      <point x="264.941" y="100.971" type="line"/>
      <point x="225.243" y="61.2734" type="line"/>
      <point x="67.3145" y="229.558" type="line"/>
    </contour>
  </outline>
</glyph>
<glyph name="logicalnot" format="1">
  <advance width="500"/>
  <unicode hex="00AC"/>
  <outline>
    <contour>
      <point x="91.4775" y="346.926" type="line"/>
      <point x="414.24" y="346.926" type="line"/>
      <point x="414.24" y="157.066" type="line"/>
      <point x="350.378" y="157.066" type="line"/>
      <point x="350.378" y="283.927" type="line"/>
      <point x="91.4775" y="283.927" type="line"/>
    </contour>
  </outline>
</glyph>
<glyph name="softhyphen" format="1">
  <advance width="500"/>
  <unicode hex="00AD"/>
  <outline>
    <contour>
      <point x="70.7656" y="347.789" type="line"/>
      <point x="430.637" y="347.789" type="line"/>
      <point x="430.637" y="281.338" type="line"/>
      <point x="70.7656" y="281.338" type="line"/>
    </contour>
  </outline>
</glyph>
<glyph name="registered" format="1">
  <advance width="500"/>
  <unicode hex="00AE"/>
  <outline>
    <contour>
      <point x="255.713" y="18.8887" type="curve" smooth="yes"/>
      <point x="123.361" y="18.8887"/>
      <point x="13.5918" y="131.423"/>
      <point x="13.5918" y="273.895" type="curve" smooth="yes"/>
      <point x="13.5918" y="417.122"/>
      <point x="123.729" y="529.898"/>
      <point x="256.108" y="529.898" type="curve" smooth="yes"/>
      <point x="388.122" y="529.898"/>
      <point x="497.966" y="417.49"/>
      <point x="497.966" y="274.66" type="curve" smooth="yes"/>
      <point x="497.966" y="131.549"/>
      <point x="387.894" y="18.8887"/>
    </contour>
    <contour>
      <point x="59.3105" y="274.261" type="curve" smooth="yes"/>
      <point x="59.3105" y="155.091"/>
      <point x="149.243" y="62.0586"/>
      <point x="257.024" y="62.0586" type="curve" smooth="yes"/>
      <point x="364.472" y="62.0586"/>
      <point x="454.806" y="155.036"/>
      <point x="454.806" y="275.024" type="curve" smooth="yes"/>
      <point x="454.806" y="394.694"/>
      <point x="364.755" y="487.595"/>
      <point x="257.296" y="487.595" type="curve" smooth="yes"/>
      <point x="149.676" y="487.595"/>
      <point x="59.3105" y="394.441"/>
    </contour>
    <contour>
      <point x="155.34" y="132.902" type="line"/>
      <point x="155.34" y="424.596" type="line"/>
      <point x="249.407" y="424.596" type="line" smooth="yes"/>
      <point x="271.709" y="424.596"/>
      <point x="295.139" y="424.441"/>
      <point x="318.145" y="414.708" type="curve" smooth="yes"/>
      <point x="351.884" y="400.432"/>
      <point x="370.227" y="370.651"/>
      <point x="370.227" y="339.788" type="curve" smooth="yes"/>
      <point x="370.227" y="304.337"/>
      <point x="346.177" y="272.929"/>
      <point x="311.543" y="263.215" type="curve"/>
      <point x="376.268" y="138.08" type="line"/>
      <point x="328.803" y="131.176" type="line"/>
      <point x="266.667" y="256.311" type="line"/>
      <point x="201.079" y="256.311" type="line"/>
      <point x="201.079" y="132.902" type="line"/>
    </contour>
    <contour>
      <point x="201.079" y="384.035" type="line"/>
      <point x="201.079" y="296.009" type="line"/>
      <point x="252.859" y="296.009" type="line" smooth="yes"/>
      <point x="269.274" y="296.009"/>
      <point x="288.93" y="295.928"/>
      <point x="304.803" y="305.972" type="curve" smooth="yes"/>
      <point x="318.301" y="314.513"/>
      <point x="324.489" y="327.487"/>
      <point x="324.489" y="339.756" type="curve" smooth="yes"/>
      <point x="324.489" y="352.754"/>
      <point x="317.52" y="366.581"/>
      <point x="302.299" y="375.142" type="curve" smooth="yes"/>
      <point x="286.166" y="384.216"/>
      <point x="266.699" y="384.035"/>
      <point x="250.27" y="384.035" type="curve" smooth="yes"/>
    </contour>
  </outline>
</glyph>
<glyph name="macron" format="1">
  <advance width="500"/>
  <unicode hex="00AF"/>
  <outline>
    <contour>
      <point x="123.409" y="621.36" type="line"/>
      <point x="377.131" y="621.36" type="line"/>
      <point x="377.131" y="565.265" type="line"/>
      <point x="123.409" y="565.265" type="line"/>
    </contour>
  </outline>
</glyph>
<glyph name="degree" format="1">
  <advance width="500"/>
  <unicode hex="00B0"/>
  <outline>
    <contour>
      <point x="390.939" y="504.382" type="curve" smooth="yes"/>
      <point x="390.939" y="430.418"/>
      <point x="330.493" y="370.143"/>
      <point x="255.827" y="370.143" type="curve" smooth="yes"/>
      <point x="181.198" y="370.143"/>
      <point x="120.735" y="430.408"/>
      <point x="120.735" y="504.403" type="curve" smooth="yes"/>
      <point x="120.735" y="578.354"/>
      <point x="181.171" y="638.627"/>
      <point x="255.824" y="638.627" type="curve" smooth="yes"/>
      <point x="330.49" y="638.627"/>
      <point x="390.939" y="578.346"/>
    </contour>
    <contour>
      <point x="256.859" y="585.978" type="curve" smooth="yes"/>
      <point x="216.198" y="585.978"/>
      <point x="182.073" y="550.846"/>
      <point x="182.073" y="505.564" type="curve" smooth="yes"/>
      <point x="182.073" y="460.505"/>
      <point x="216.068" y="425.354"/>
      <point x="256.821" y="425.354" type="curve" smooth="yes"/>
      <point x="297.359" y="425.354"/>
      <point x="331.464" y="460.459"/>
      <point x="331.464" y="505.831" type="curve" smooth="yes"/>
      <point x="331.464" y="550.876"/>
      <point x="297.486" y="585.978"/>
    </contour>
  </outline>
</glyph>
<glyph name="plusminus" format="1">
  <advance width="500"/>
  <unicode hex="00B1"/>
  <outline>
    <contour>
      <point x="45.7393" y="80.2588" type="line"/>
      <point x="457.39" y="80.2588" type="line"/>
      <point x="457.39" y="17.2598" type="line"/>
      <point x="45.7393" y="17.2598" type="line"/>
    </contour>
    <contour>
      <point x="221.791" y="574.759" type="line"/>
      <point x="284.79" y="574.759" type="line"/>
      <point x="284.79" y="403.884" type="line"/>
      <point x="455.664" y="403.884" type="line"/>
      <point x="455.664" y="342.611" type="line"/>
      <point x="284.79" y="342.611" type="line"/>
      <point x="284.79" y="155.34" type="line"/>
      <point x="221.791" y="155.34" type="line"/>
      <point x="221.791" y="342.611" type="line"/>
      <point x="44.876" y="342.611" type="line"/>
      <point x="44.876" y="403.884" type="line"/>
      <point x="221.791" y="403.884" type="line"/>
    </contour>
  </outline>
</glyph>
<glyph name="uni00B2" format="1">
  <advance width="500"/>
  <unicode hex="00B2"/>
  <outline>
    <contour>
      <point x="111.327" y="554.046" type="line"/>
      <point x="141.338" y="606.246"/>
      <point x="197.478" y="637.143"/>
      <point x="258.12" y="637.143" type="curve" smooth="yes"/>
      <point x="337.723" y="637.143"/>
      <point x="391.803" y="585.779"/>
      <point x="391.803" y="525.188" type="curve" smooth="yes"/>
      <point x="391.803" y="477.844"/>
      <point x="359.268" y="445.312"/>
      <point x="345.062" y="432.22" type="curve" smooth="yes"/>
      <point x="305.344" y="395.614"/>
      <point x="250.047" y="369.667"/>
      <point x="194.175" y="307.229" type="curve"/>
      <point x="376.268" y="307.229" type="line" smooth="yes"/>
      <point x="380.828" y="307.229"/>
      <point x="382.906" y="307.867"/>
      <point x="386.962" y="311.365" type="curve" smooth="yes"/>
      <point x="389.04" y="313.158"/>
      <point x="393.941" y="318.012"/>
      <point x="400.432" y="315.858" type="curve"/>
      <point x="400.432" y="252.859" type="line"/>
      <point x="120.82" y="252.859" type="line"/>
      <point x="120.82" y="296.872" type="line"/>
      <point x="176.53" y="373.917"/>
      <point x="249.984" y="422.679"/>
      <point x="279.933" y="447.03" type="curve" smooth="yes"/>
      <point x="308.949" y="470.627"/>
      <point x="331.49" y="494.767"/>
      <point x="331.49" y="524.848" type="curve" smooth="yes"/>
      <point x="331.49" y="556.576"/>
      <point x="304.015" y="585.905"/>
      <point x="256.204" y="585.905" type="curve" smooth="yes"/>
      <point x="217.798" y="585.905"/>
      <point x="185.157" y="565.922"/>
      <point x="167.572" y="543.675" type="curve" smooth="yes"/>
      <point x="162.179" y="536.852"/>
      <point x="162.887" y="532.389"/>
      <point x="157.929" y="522.979" type="curve"/>
    </contour>
  </outline>
</glyph>
<glyph name="uni00B3" format="1">
  <advance width="500"/>
  <unicode hex="00B3"/>
  <outline>
    <contour>
      <point x="257.645" y="637.853" type="curve" smooth="yes"/>
      <point x="332.154" y="637.853"/>
      <point x="388.53" y="587.916"/>
      <point x="388.53" y="530.356" type="curve" smooth="yes"/>
      <point x="388.53" y="493.767"/>
      <point x="365.418" y="462.771"/>
      <point x="332.255" y="452.212" type="curve"/>
      <point x="374.595" y="444.729"/>
      <point x="405.611" y="408.563"/>
      <point x="405.611" y="366.489" type="curve" smooth="yes"/>
      <point x="405.611" y="301.138"/>
      <point x="334.251" y="251.125"/>
      <point x="254.502" y="251.125" type="curve" smooth="yes"/>
      <point x="199.956" y="251.125"/>
      <point x="148.09" y="274.84"/>
      <point x="112.19" y="315.858" type="curve"/>
      <point x="158.792" y="367.638" type="line"/>
      <point x="167.604" y="358.277"/>
      <point x="163.419" y="348.865"/>
      <point x="172.733" y="339.775" type="curve" smooth="yes"/>
      <point x="178" y="334.634"/>
      <point x="208.177" y="307.217"/>
      <point x="255.517" y="307.217" type="curve" smooth="yes"/>
      <point x="304.544" y="307.217"/>
      <point x="343.866" y="336.37"/>
      <point x="343.866" y="371.961" type="curve" smooth="yes"/>
      <point x="343.866" y="390.355"/>
      <point x="332.536" y="427.271"/>
      <point x="255.997" y="427.271" type="curve" smooth="yes"/>
      <point x="245.633" y="427.271"/>
      <point x="235.757" y="426.64"/>
      <point x="226.106" y="425.459" type="curve"/>
      <point x="226.106" y="475.513" type="line"/>
      <point x="232.695" y="474.883"/>
      <point x="239.311" y="474.559"/>
      <point x="245.931" y="474.559" type="curve" smooth="yes"/>
      <point x="311.447" y="474.559"/>
      <point x="329.27" y="503.04"/>
      <point x="329.27" y="526" type="curve" smooth="yes"/>
      <point x="329.27" y="555.92"/>
      <point x="299.599" y="585.146"/>
      <point x="254.62" y="585.146" type="curve" smooth="yes"/>
      <point x="220.798" y="585.146"/>
      <point x="185.396" y="568.524"/>
      <point x="161.381" y="538.512" type="curve"/>
      <point x="125.135" y="575.621" type="line"/>
      <point x="158.732" y="615.332"/>
      <point x="207.307" y="637.853"/>
    </contour>
  </outline>
</glyph>
<glyph name="acute" format="1">
  <advance width="500"/>
  <unicode hex="00B4"/>
  <outline>
    <contour>
      <point x="291.694" y="699.03" type="line"/>
      <point x="354.693" y="656.743" type="line"/>
      <point x="253.722" y="522.115" type="line"/>
      <point x="203.668" y="552.32" type="line"/>
    </contour>
  </outline>
</glyph>
<glyph name="micro" format="1">
  <advance width="500"/>
  <unicode hex="00B5"/>
  <outline>
    <contour>
      <point x="24.1641" y="-166.559" type="line"/>
      <point x="24.9736" y="-50.9053"/>
      <point x="44.0127" y="75.3555"/>
      <point x="44.0127" y="201.942" type="curve" smooth="yes"/>
      <point x="44.0127" y="456.527" type="line"/>
      <point x="109.601" y="456.527" type="line"/>
      <point x="109.601" y="185.545" type="line" smooth="yes"/>
      <point x="109.601" y="155.539"/>
      <point x="110.623" y="126.981"/>
      <point x="124.486" y="98.8701" type="curve" smooth="yes"/>
      <point x="142.274" y="62.7959"/>
      <point x="174.157" y="43.1367"/>
      <point x="205.964" y="43.1367" type="curve" smooth="yes"/>
      <point x="242.153" y="43.1367"/>
      <point x="277.507" y="68.0781"/>
      <point x="295.17" y="108.421" type="curve" smooth="yes"/>
      <point x="306.575" y="134.472"/>
      <point x="308.091" y="160.911"/>
      <point x="308.091" y="191.586" type="curve" smooth="yes"/>
      <point x="308.091" y="456.527" type="line"/>
      <point x="371.953" y="456.527" type="line"/>
      <point x="371.953" y="115.642" type="line" smooth="yes"/>
      <point x="371.953" y="100.286"/>
      <point x="371.818" y="82.0059"/>
      <point x="380.362" y="66.9902" type="curve" smooth="yes"/>
      <point x="387.847" y="53.8359"/>
      <point x="399.777" y="47.3496"/>
      <point x="411.856" y="47.3496" type="curve" smooth="yes"/>
      <point x="445.75" y="47.3496"/>
      <point x="466.883" y="95.793"/>
      <point x="466.883" y="95.793" type="curve"/>
      <point x="493.636" y="44.876" type="line"/>
      <point x="474.493" y="15.6357"/>
      <point x="442.881" y="-10.4434"/>
      <point x="405.814" y="-10.4434" type="curve" smooth="yes"/>
      <point x="363.49" y="-10.4434"/>
      <point x="329.216" y="24.2803"/>
      <point x="323.625" y="67.3145" type="curve"/>
      <point x="300.492" y="19.5049"/>
      <point x="252.471" y="-11.2227"/>
      <point x="200.967" y="-11.2227" type="curve" smooth="yes"/>
      <point x="152.323" y="-11.2227"/>
      <point x="107.952" y="16.3965"/>
      <point x="87.1631" y="60.4102" type="curve"/>
      <point x="87.335" y="-15.5547"/>
      <point x="87.043" y="-91.1914"/>
      <point x="86.2998" y="-166.559" type="curve"/>
    </contour>
  </outline>
</glyph>
<glyph name="paragraph" format="1">
  <advance width="500"/>
  <unicode hex="00B6"/>
  <outline>
    <contour>
      <point x="435.815" y="665.373" type="line"/>
      <point x="435.815" y="-68.1768" type="line"/>
      <point x="377.994" y="-68.1768" type="line"/>
      <point x="377.994" y="608.415" type="line"/>
      <point x="302.05" y="608.415" type="line"/>
      <point x="302.05" y="-68.1768" type="line"/>
      <point x="242.503" y="-68.1768" type="line"/>
      <point x="242.503" y="321.899" type="line"/>
      <point x="141.148" y="328.537"/>
      <point x="63.8125" y="405.736"/>
      <point x="63.8125" y="495.832" type="curve" smooth="yes"/>
      <point x="63.8125" y="557.196"/>
      <point x="100.08" y="615.649"/>
      <point x="166.454" y="644.388" type="curve" smooth="yes"/>
      <point x="214.46" y="665.174"/>
      <point x="264.277" y="665.373"/>
      <point x="310.68" y="665.373" type="curve" smooth="yes"/>
    </contour>
  </outline>
</glyph>
<glyph name="periodcentered" format="1">
  <advance width="500"/>
  <unicode hex="00B7"/>
  <outline>
    <contour>
      <point x="297.736" y="330.955" type="curve" smooth="yes"/>
      <point x="297.736" y="299.469"/>
      <point x="271.458" y="273.531"/>
      <point x="238.569" y="273.531" type="curve" smooth="yes"/>
      <point x="205.752" y="273.531"/>
      <point x="179.463" y="299.444"/>
      <point x="179.463" y="330.968" type="curve" smooth="yes"/>
      <point x="179.463" y="362.428"/>
      <point x="205.725" y="388.352"/>
      <point x="238.587" y="388.352" type="curve" smooth="yes"/>
      <point x="271.462" y="388.352"/>
      <point x="297.736" y="362.427"/>
    </contour>
  </outline>
</glyph>
<glyph name="cedilla" format="1">
  <advance width="500"/>
  <unicode hex="00B8"/>
  <outline>
    <contour>
      <point x="261.489" y="0" type="line"/>
      <point x="304.639" y="0" type="line"/>
      <point x="299.461" y="-47.4648" type="line"/>
      <point x="315.858" y="-48.3281" type="line" smooth="yes"/>
      <point x="328.617" y="-49"/>
      <point x="341.743" y="-49.8096"/>
      <point x="354.592" y="-56.0449" type="curve" smooth="yes"/>
      <point x="373.655" y="-65.2949"/>
      <point x="384.096" y="-83.2725"/>
      <point x="384.096" y="-102.659" type="curve" smooth="yes"/>
      <point x="384.096" y="-138.384"/>
      <point x="349.025" y="-176.994"/>
      <point x="275.633" y="-176.994" type="curve" smooth="yes"/>
      <point x="237.214" y="-176.994"/>
      <point x="194.431" y="-166.082"/>
      <point x="157.066" y="-139.806" type="curve"/>
      <point x="182.093" y="-98.3818" type="line"/>
      <point x="213.504" y="-123.713"/>
      <point x="251.16" y="-133.774"/>
      <point x="281.394" y="-133.774" type="curve" smooth="yes"/>
      <point x="320.275" y="-133.774"/>
      <point x="327.079" y="-118.081"/>
      <point x="327.079" y="-109.376" type="curve" smooth="yes"/>
      <point x="327.079" y="-103.486"/>
      <point x="324.021" y="-96.8076"/>
      <point x="316.186" y="-92.0059" type="curve" smooth="yes"/>
      <point x="305.418" y="-85.4062"/>
      <point x="291.004" y="-85.4365"/>
      <point x="279.612" y="-85.4365" type="curve" smooth="yes"/>
      <point x="250.27" y="-85.4365" type="line"/>
    </contour>
  </outline>
</glyph>
<glyph name="uni00B9" format="1">
  <advance width="500"/>
  <unicode hex="00B9"/>
  <outline>
    <contour>
      <point x="298.598" y="632.579" type="line"/>
      <point x="298.598" y="252.859" type="line"/>
      <point x="234.736" y="252.859" type="line"/>
      <point x="234.736" y="553.183" type="line"/>
      <point x="138.08" y="528.156" type="line"/>
      <point x="121.683" y="559.224" type="line"/>
      <point x="255.448" y="632.579" type="line"/>
    </contour>
  </outline>
</glyph>
<glyph name="ordmasculine" format="1">
  <advance width="500"/>
  <unicode hex="00BA"/>
  <outline>
    <contour>
      <point x="251.846" y="622.232" type="curve" smooth="yes"/>
      <point x="323.817" y="622.232"/>
      <point x="397.072" y="564.236"/>
      <point x="397.072" y="444.234" type="curve" smooth="yes"/>
      <point x="397.072" y="314.816"/>
      <point x="318.762" y="256.26"/>
      <point x="245.607" y="256.26" type="curve" smooth="yes"/>
      <point x="166.407" y="256.26"/>
      <point x="95.6436" y="323.147"/>
      <point x="95.6436" y="432.25" type="curve" smooth="yes"/>
      <point x="95.6436" y="546.951"/>
      <point x="168.718" y="622.232"/>
    </contour>
    <contour>
      <point x="156.191" y="436.862" type="curve" smooth="yes"/>
      <point x="156.191" y="353.137"/>
      <point x="202.719" y="314.067"/>
      <point x="247.157" y="314.067" type="curve" smooth="yes"/>
      <point x="289.907" y="314.067"/>
      <point x="337.433" y="350.786"/>
      <point x="337.433" y="436.856" type="curve" smooth="yes"/>
      <point x="337.433" y="522.554"/>
      <point x="293.026" y="566.128"/>
      <point x="246.995" y="566.128" type="curve" smooth="yes"/>
      <point x="201.366" y="566.128"/>
      <point x="156.191" y="523.027"/>
    </contour>
    <contour>
      <point x="75.9443" y="206.257" type="line"/>
      <point x="425.459" y="206.257" type="line"/>
      <point x="425.459" y="151.888" type="line"/>
      <point x="75.9443" y="151.888" type="line"/>
    </contour>
  </outline>
</glyph>
<glyph name="guillemotright" format="1">
  <advance width="500"/>
  <unicode hex="00BB"/>
  <outline>
    <contour>
      <point x="264.941" y="252.859" type="line"/>
      <point x="264.941" y="229.558" type="line"/>
      <point x="107.012" y="61.2734" type="line"/>
      <point x="67.3145" y="100.971" type="line"/>
      <point x="195.038" y="240.777" type="line"/>
      <point x="74.2178" y="359.008" type="line"/>
      <point x="113.053" y="400.432" type="line"/>
    </contour>
    <contour>
      <point x="446.171" y="252.859" type="line"/>
      <point x="446.171" y="229.558" type="line"/>
      <point x="288.242" y="61.2734" type="line"/>
      <point x="248.544" y="100.971" type="line"/>
      <point x="376.268" y="240.777" type="line"/>
      <point x="255.448" y="359.008" type="line"/>
      <point x="294.283" y="400.432" type="line"/>
    </contour>
  </outline>
</glyph>
<glyph name="onequarter" format="1">
  <advance width="500"/>
  <unicode hex="00BC"/>
  <outline>
    <contour>
      <point x="75.9443" y="-16.3975" type="line"/>
      <point x="389.213" y="664.51" type="line"/>
      <point x="436.678" y="637.757" type="line"/>
      <point x="122.546" y="-42.2871" type="line"/>
    </contour>
    <contour>
      <point x="395.771" y="241.554" type="line"/>
      <point x="426.84" y="241.554" type="line"/>
      <point x="426.84" y="45.4805" type="line"/>
      <point x="477.239" y="45.4805" type="line"/>
      <point x="477.239" y="7.50879" type="line"/>
      <point x="426.84" y="7.50879" type="line"/>
      <point x="426.84" y="-69.8164" type="line"/>
      <point x="381.273" y="-69.8164" type="line"/>
      <point x="381.273" y="8.19824" type="line"/>
      <point x="235.599" y="8.19824" type="line"/>
      <point x="235.599" y="36.5049" type="line"/>
    </contour>
    <contour>
      <point x="381.964" y="163.539" type="line"/>
      <point x="288.069" y="45.4805" type="line"/>
      <point x="381.964" y="45.4805" type="line"/>
    </contour>
    <contour>
      <point x="146.192" y="677.455" type="line"/>
      <point x="146.192" y="373.68" type="line"/>
      <point x="95.1025" y="373.68" type="line"/>
      <point x="95.1025" y="613.938" type="line"/>
      <point x="17.7783" y="593.917" type="line"/>
      <point x="4.66016" y="618.771" type="line"/>
      <point x="111.673" y="677.455" type="line"/>
    </contour>
  </outline>
</glyph>
<glyph name="onehalf" format="1">
  <advance width="500"/>
  <unicode hex="00BD"/>
  <outline>
    <contour>
      <point x="75.9443" y="-16.3975" type="line"/>
      <point x="389.213" y="664.51" type="line"/>
      <point x="436.678" y="637.757" type="line"/>
      <point x="122.546" y="-42.2871" type="line"/>
    </contour>
    <contour>
      <point x="262.783" y="168.05" type="line"/>
      <point x="286.792" y="209.811"/>
      <point x="331.704" y="234.527"/>
      <point x="380.218" y="234.527" type="curve" smooth="yes"/>
      <point x="443.9" y="234.527"/>
      <point x="487.164" y="193.437"/>
      <point x="487.164" y="144.964" type="curve" smooth="yes"/>
      <point x="487.164" y="107.089"/>
      <point x="461.136" y="81.0625"/>
      <point x="449.771" y="70.5889" type="curve" smooth="yes"/>
      <point x="417.997" y="41.3047"/>
      <point x="373.76" y="20.5469"/>
      <point x="329.062" y="-29.4033" type="curve"/>
      <point x="474.736" y="-29.4033" type="line" smooth="yes"/>
      <point x="478.385" y="-29.4033"/>
      <point x="480.047" y="-28.8926"/>
      <point x="483.291" y="-26.0947" type="curve" smooth="yes"/>
      <point x="484.954" y="-24.6602"/>
      <point x="488.875" y="-20.7773"/>
      <point x="494.067" y="-22.5" type="curve"/>
      <point x="494.067" y="-72.8994" type="line"/>
      <point x="270.378" y="-72.8994" type="line"/>
      <point x="270.378" y="-37.6885" type="line"/>
      <point x="314.946" y="23.9473"/>
      <point x="373.709" y="62.9561"/>
      <point x="397.668" y="82.4375" type="curve" smooth="yes"/>
      <point x="420.881" y="101.315"/>
      <point x="438.914" y="120.627"/>
      <point x="438.914" y="144.691" type="curve" smooth="yes"/>
      <point x="438.914" y="170.074"/>
      <point x="416.934" y="193.538"/>
      <point x="378.686" y="193.538" type="curve" smooth="yes"/>
      <point x="347.96" y="193.538"/>
      <point x="321.848" y="177.551"/>
      <point x="307.779" y="159.753" type="curve" smooth="yes"/>
      <point x="303.465" y="154.295"/>
      <point x="304.031" y="150.725"/>
      <point x="300.064" y="143.196" type="curve"/>
    </contour>
    <contour>
      <point x="146.192" y="677.455" type="line"/>
      <point x="146.192" y="373.68" type="line"/>
      <point x="95.1025" y="373.68" type="line"/>
      <point x="95.1025" y="613.938" type="line"/>
      <point x="17.7783" y="593.917" type="line"/>
      <point x="4.66016" y="618.771" type="line"/>
      <point x="111.673" y="677.455" type="line"/>
    </contour>
  </outline>
</glyph>
<glyph name="threequarters" format="1">
  <advance width="500"/>
  <unicode hex="00BE"/>
  <outline>
    <contour>
      <point x="81.1221" y="-16.3975" type="line"/>
      <point x="394.391" y="664.51" type="line"/>
      <point x="441.855" y="637.757" type="line"/>
      <point x="127.724" y="-42.2871" type="line"/>
    </contour>
    <contour>
      <point x="127.583" y="683.754" type="curve" smooth="yes"/>
      <point x="187.19" y="683.754"/>
      <point x="232.291" y="643.805"/>
      <point x="232.291" y="597.757" type="curve" smooth="yes"/>
      <point x="232.291" y="568.485"/>
      <point x="213.802" y="543.688"/>
      <point x="187.271" y="535.241" type="curve"/>
      <point x="221.143" y="529.255"/>
      <point x="245.956" y="500.322"/>
      <point x="245.956" y="466.663" type="curve" smooth="yes"/>
      <point x="245.956" y="414.382"/>
      <point x="188.868" y="374.372"/>
      <point x="125.068" y="374.372" type="curve" smooth="yes"/>
      <point x="81.4316" y="374.372"/>
      <point x="39.9385" y="393.344"/>
      <point x="11.2197" y="426.158" type="curve"/>
      <point x="48.501" y="467.582" type="line"/>
      <point x="55.5508" y="460.094"/>
      <point x="52.2021" y="452.563"/>
      <point x="59.6533" y="445.292" type="curve" smooth="yes"/>
      <point x="63.8672" y="441.179"/>
      <point x="88.0088" y="419.245"/>
      <point x="125.88" y="419.245" type="curve" smooth="yes"/>
      <point x="165.103" y="419.245"/>
      <point x="196.561" y="442.567"/>
      <point x="196.561" y="471.04" type="curve" smooth="yes"/>
      <point x="196.561" y="485.756"/>
      <point x="187.496" y="515.289"/>
      <point x="126.265" y="515.289" type="curve" smooth="yes"/>
      <point x="117.974" y="515.289"/>
      <point x="110.072" y="514.783"/>
      <point x="102.353" y="513.839" type="curve"/>
      <point x="102.353" y="553.882" type="line"/>
      <point x="107.623" y="553.378"/>
      <point x="112.915" y="553.118"/>
      <point x="118.212" y="553.118" type="curve" smooth="yes"/>
      <point x="170.625" y="553.118"/>
      <point x="184.883" y="575.903"/>
      <point x="184.883" y="594.271" type="curve" smooth="yes"/>
      <point x="184.883" y="618.208"/>
      <point x="161.146" y="641.589"/>
      <point x="125.163" y="641.589" type="curve" smooth="yes"/>
      <point x="98.1055" y="641.589"/>
      <point x="69.7832" y="628.291"/>
      <point x="50.5713" y="604.281" type="curve"/>
      <point x="21.5752" y="633.969" type="line"/>
      <point x="48.4531" y="665.737"/>
      <point x="87.3125" y="683.754"/>
    </contour>
    <contour>
      <point x="395.771" y="241.554" type="line"/>
      <point x="426.84" y="241.554" type="line"/>
      <point x="426.84" y="45.4805" type="line"/>
      <point x="477.239" y="45.4805" type="line"/>
      <point x="477.239" y="7.50879" type="line"/>
      <point x="426.84" y="7.50879" type="line"/>
      <point x="426.84" y="-69.8164" type="line"/>
      <point x="381.273" y="-69.8164" type="line"/>
      <point x="381.273" y="8.19824" type="line"/>
      <point x="235.599" y="8.19824" type="line"/>
      <point x="235.599" y="36.5049" type="line"/>
    </contour>
    <contour>
      <point x="381.964" y="163.539" type="line"/>
      <point x="288.069" y="45.4805" type="line"/>
      <point x="381.964" y="45.4805" type="line"/>
    </contour>
  </outline>
</glyph>
<glyph name="questiondown" format="1">
  <advance width="500"/>
  <unicode hex="00BF"/>
  <outline>
    <contour>
      <point x="181.365" y="607.963" type="curve" smooth="yes"/>
      <point x="181.365" y="639.449"/>
      <point x="207.644" y="665.386"/>
      <point x="240.533" y="665.386" type="curve" smooth="yes"/>
      <point x="273.35" y="665.386"/>
      <point x="299.64" y="639.474"/>
      <point x="299.64" y="607.949" type="curve" smooth="yes"/>
      <point x="299.64" y="576.489"/>
      <point x="273.378" y="550.565"/>
      <point x="240.516" y="550.565" type="curve" smooth="yes"/>
      <point x="207.641" y="550.565"/>
      <point x="181.365" y="576.491"/>
    </contour>
    <contour>
      <point x="437.678" y="91.4512" type="line"/>
      <point x="394.161" y="24.4033"/>
      <point x="319.761" y="-13.0234"/>
      <point x="244.882" y="-13.0234" type="curve" smooth="yes"/>
      <point x="131.572" y="-13.0234"/>
      <point x="67.2441" y="70.1934"/>
      <point x="67.2441" y="163.393" type="curve" smooth="yes"/>
      <point x="67.2441" y="257.358"/>
      <point x="133.344" y="295.407"/>
      <point x="166.347" y="324.741" type="curve" smooth="yes"/>
      <point x="207.522" y="361.339"/>
      <point x="209.846" y="391.055"/>
      <point x="209.846" y="426.295" type="curve" smooth="yes"/>
      <point x="209.846" y="467.72" type="line"/>
      <point x="275.434" y="467.72" type="line"/>
      <point x="275.434" y="426.295" type="line" smooth="yes"/>
      <point x="275.434" y="381.407"/>
      <point x="272.621" y="346.204"/>
      <point x="228.444" y="297.697" type="curve" smooth="yes"/>
      <point x="198.221" y="264.511"/>
      <point x="146.35" y="223.667"/>
      <point x="146.35" y="158.153" type="curve" smooth="yes"/>
      <point x="146.35" y="99.0615"/>
      <point x="191.768" y="52.4844"/>
      <point x="251.586" y="52.4844" type="curve" smooth="yes"/>
      <point x="302.147" y="52.4844"/>
      <point x="355.226" y="86.1768"/>
      <point x="386.761" y="138.916" type="curve"/>
    </contour>
  </outline>
</glyph>
<glyph name="Agrave" format="1">
  <advance width="500"/>
  <unicode hex="00C0"/>
  <outline>
    <contour>
      <point x="181.23" y="791.371" type="line"/>
      <point x="333.981" y="701.619" type="line"/>
      <point x="310.681" y="660.194" type="line"/>
      <point x="141.532" y="721.468" type="line"/>
    </contour>
    <contour>
      <point x="14.6709" y="-0.863281" type="line"/>
      <point x="234.736" y="634.305" type="line"/>
      <point x="242.503" y="634.305" type="line"/>
      <point x="483.28" y="0" type="line"/>
      <point x="410.788" y="0" type="line"/>
      <point x="341.748" y="182.093" type="line"/>
      <point x="144.121" y="182.093" type="line"/>
      <point x="83.7109" y="-0.863281" type="line"/>
    </contour>
    <contour>
      <point x="326.214" y="236.462" type="line"/>
      <point x="238.188" y="473.787" type="line"/>
      <point x="157.929" y="236.462" type="line"/>
    </contour>
  </outline>
</glyph>
<glyph name="Acircumflex" format="1">
  <advance width="500"/>
  <unicode hex="00C2"/>
  <outline>
    <contour>
      <point x="101.834" y="692.126" type="line"/>
      <point x="233.01" y="791.371" type="line"/>
      <point x="254.585" y="791.371" type="line"/>
      <point x="377.994" y="693.853" type="line"/>
      <point x="345.2" y="655.88" type="line"/>
      <point x="241.64" y="726.646" type="line"/>
      <point x="130.312" y="658.469" type="line"/>
    </contour>
    <contour>
      <point x="14.6709" y="-0.863281" type="line"/>
      <point x="234.736" y="634.305" type="line"/>
      <point x="242.503" y="634.305" type="line"/>
      <point x="483.28" y="0" type="line"/>
      <point x="410.788" y="0" type="line"/>
      <point x="341.748" y="182.093" type="line"/>
      <point x="144.121" y="182.093" type="line"/>
      <point x="83.7109" y="-0.863281" type="line"/>
    </contour>
    <contour>
      <point x="326.214" y="236.462" type="line"/>
      <point x="238.188" y="473.787" type="line"/>
      <point x="157.929" y="236.462" type="line"/>
    </contour>
  </outline>
</glyph>
<glyph name="Atilde" format="1">
  <advance width="500"/>
  <unicode hex="00C3"/>
  <outline>
    <contour>
      <point x="131.176" y="683.496" type="curve"/>
      <point x="86.2998" y="715.427" type="line"/>
      <point x="123.288" y="773.971"/>
      <point x="160.392" y="801.958"/>
      <point x="199.378" y="801.958" type="curve" smooth="yes"/>
      <point x="239.795" y="801.958"/>
      <point x="266.641" y="772.443"/>
      <point x="279.492" y="759.052" type="curve" smooth="yes"/>
      <point x="295.699" y="742.161"/>
      <point x="310.715" y="727.448"/>
      <point x="329.37" y="727.448" type="curve" smooth="yes"/>
      <point x="354.034" y="727.448"/>
      <point x="365.738" y="750.803"/>
      <point x="387.486" y="780.152" type="curve"/>
      <point x="424.596" y="740.454" type="line"/>
      <point x="390.027" y="697.425"/>
      <point x="362.796" y="669.476"/>
      <point x="325.912" y="669.476" type="curve" smooth="yes"/>
      <point x="267.757" y="669.476"/>
      <point x="240.677" y="745.142"/>
      <point x="196.629" y="745.142" type="curve" smooth="yes"/>
      <point x="170.143" y="745.142"/>
      <point x="155.135" y="722.146"/>
    </contour>
    <contour>
      <point x="14.6709" y="-0.863281" type="line"/>
      <point x="234.736" y="634.305" type="line"/>
      <point x="242.503" y="634.305" type="line"/>
      <point x="483.28" y="0" type="line"/>
      <point x="410.788" y="0" type="line"/>
      <point x="341.748" y="182.093" type="line"/>
      <point x="144.121" y="182.093" type="line"/>
      <point x="83.7109" y="-0.863281" type="line"/>
    </contour>
    <contour>
      <point x="326.214" y="236.462" type="line"/>
      <point x="238.188" y="473.787" type="line"/>
      <point x="157.929" y="236.462" type="line"/>
    </contour>
  </outline>
</glyph>
<glyph name="Adieresis" format="1">
  <advance width="500"/>
  <unicode hex="00C4"/>
  <outline>
    <contour>
      <point x="201.958" y="738.295" type="curve" smooth="yes"/>
      <point x="201.958" y="710.432"/>
      <point x="179.322" y="687.795"/>
      <point x="151.458" y="687.795" type="curve" smooth="yes"/>
      <point x="123.592" y="687.795"/>
      <point x="100.955" y="710.43"/>
      <point x="100.955" y="738.295" type="curve" smooth="yes"/>
      <point x="100.955" y="766.162"/>
      <point x="123.591" y="788.799"/>
      <point x="151.457" y="788.799" type="curve" smooth="yes"/>
      <point x="179.323" y="788.799"/>
      <point x="201.958" y="766.162"/>
    </contour>
    <contour>
      <point x="379.722" y="738.307" type="curve" smooth="yes"/>
      <point x="379.722" y="710.395"/>
      <point x="357.244" y="687.803"/>
      <point x="329.671" y="687.803" type="curve" smooth="yes"/>
      <point x="302.103" y="687.803"/>
      <point x="279.61" y="710.383"/>
      <point x="279.61" y="738.309" type="curve" smooth="yes"/>
      <point x="279.61" y="766.225"/>
      <point x="302.095" y="788.812"/>
      <point x="329.673" y="788.812" type="curve" smooth="yes"/>
      <point x="357.227" y="788.812"/>
      <point x="379.722" y="766.238"/>
    </contour>
    <contour>
      <point x="14.6709" y="-0.863281" type="line"/>
      <point x="234.736" y="634.305" type="line"/>
      <point x="242.503" y="634.305" type="line"/>
      <point x="483.28" y="0" type="line"/>
      <point x="410.788" y="0" type="line"/>
      <point x="341.748" y="182.093" type="line"/>
      <point x="144.121" y="182.093" type="line"/>
      <point x="83.7109" y="-0.863281" type="line"/>
    </contour>
    <contour>
      <point x="326.214" y="236.462" type="line"/>
      <point x="238.188" y="473.787" type="line"/>
      <point x="157.929" y="236.462" type="line"/>
    </contour>
  </outline>
</glyph>
<glyph name="Aring" format="1">
  <advance width="500"/>
  <unicode hex="00C5"/>
  <outline>
    <contour>
      <point x="199.279" y="707.465" type="curve" smooth="yes"/>
      <point x="199.279" y="681.865"/>
      <point x="218.017" y="661.832"/>
      <point x="240.772" y="661.832" type="curve" smooth="yes"/>
      <point x="263.243" y="661.832"/>
      <point x="282.231" y="681.629"/>
      <point x="282.231" y="707.719" type="curve" smooth="yes"/>
      <point x="282.231" y="733.401"/>
      <point x="263.478" y="753.409"/>
      <point x="240.772" y="753.409" type="curve" smooth="yes"/>
      <point x="218.315" y="753.409"/>
      <point x="199.279" y="733.612"/>
    </contour>
    <contour>
      <point x="326.214" y="236.462" type="line"/>
      <point x="238.188" y="473.787" type="line"/>
      <point x="157.929" y="236.462" type="line"/>
    </contour>
    <contour>
      <point x="248.274" y="619.102" type="curve"/>
      <point x="483.28" y="0" type="line"/>
      <point x="410.788" y="0" type="line"/>
      <point x="341.748" y="182.093" type="line"/>
      <point x="144.121" y="182.093" type="line"/>
      <point x="83.7109" y="-0.863281" type="line"/>
      <point x="14.6709" y="-0.863281" type="line"/>
      <point x="229.532" y="619.285" type="line"/>
      <point x="183.574" y="624.23"/>
      <point x="148.368" y="661.864"/>
      <point x="148.368" y="706.854" type="curve" smooth="yes"/>
      <point x="148.368" y="755.001"/>
      <point x="188.877" y="794.827"/>
      <point x="239.837" y="794.827" type="curve" smooth="yes"/>
      <point x="290.842" y="794.827"/>
      <point x="331.396" y="754.984"/>
      <point x="331.396" y="706.795" type="curve" smooth="yes"/>
      <point x="331.396" y="661.283"/>
      <point x="295.252" y="623.209"/>
    </contour>
  </outline>
</glyph>
<glyph name="AE" format="1">
  <advance width="500"/>
  <unicode hex="00C6"/>
  <outline>
    <contour>
      <point x="200.216" y="623.949" type="line"/>
      <point x="484.143" y="623.949" type="line"/>
      <point x="484.143" y="561.813" type="line"/>
      <point x="310.68" y="561.813" type="line"/>
      <point x="312.406" y="357.282" type="line"/>
      <point x="458.253" y="357.282" type="line"/>
      <point x="458.253" y="293.42" type="line"/>
      <point x="313.269" y="293.42" type="line"/>
      <point x="314.995" y="62.1357" type="line"/>
      <point x="481.554" y="62.1357" type="line"/>
      <point x="481.554" y="0" type="line"/>
      <point x="251.996" y="0" type="line"/>
      <point x="251.996" y="169.148" type="line"/>
      <point x="121.683" y="169.148" type="line"/>
      <point x="68.1768" y="0" type="line"/>
      <point x="4.31543" y="0" type="line"/>
    </contour>
    <contour>
      <point x="251.996" y="561.813" type="line"/>
      <point x="240.777" y="561.813" type="line"/>
      <point x="136.354" y="226.969" type="line"/>
      <point x="251.996" y="226.969" type="line"/>
    </contour>
  </outline>
</glyph>
<glyph name="Ccedilla" format="1">
  <advance width="500"/>
  <unicode hex="00C7"/>
  <outline>
    <contour>
      <point x="277.557" y="628.264" type="curve" smooth="yes"/>
      <point x="360.339" y="628.264"/>
      <point x="435.104" y="579.973"/>
      <point x="468.609" y="504.855" type="curve"/>
      <point x="402.158" y="472.061" type="line"/>
      <point x="397.479" y="475.341"/>
      <point x="397.598" y="480.707"/>
      <point x="397.598" y="481.878" type="curve" smooth="yes"/>
      <point x="397.598" y="484.364"/>
      <point x="398.021" y="486.854"/>
      <point x="398.021" y="489.335" type="curve" smooth="yes"/>
      <point x="398.021" y="493.984"/>
      <point x="396.562" y="496.567"/>
      <point x="394.577" y="499.995" type="curve" smooth="yes"/>
      <point x="369.428" y="543.43"/>
      <point x="323.968" y="572.314"/>
      <point x="275.195" y="572.314" type="curve" smooth="yes"/>
      <point x="187.112" y="572.314"/>
      <point x="108.727" y="479.638"/>
      <point x="108.727" y="314.105" type="curve" smooth="yes"/>
      <point x="108.727" y="145.708"/>
      <point x="189.357" y="50.0488"/>
      <point x="281.041" y="50.0488" type="curve" smooth="yes"/>
      <point x="329.939" y="50.0488"/>
      <point x="379.463" y="78.4336"/>
      <point x="408.199" y="125.998" type="curve"/>
      <point x="459.979" y="92.3408" type="line"/>
      <point x="425.585" y="36.1484"/>
      <point x="367.705" y="-0.651367"/>
      <point x="303.69" y="-8.69531" type="curve"/>
      <point x="299.461" y="-47.4648" type="line"/>
      <point x="315.858" y="-48.3281" type="line" smooth="yes"/>
      <point x="328.617" y="-49"/>
      <point x="341.743" y="-49.8096"/>
      <point x="354.592" y="-56.0449" type="curve" smooth="yes"/>
      <point x="373.655" y="-65.2949"/>
      <point x="384.096" y="-83.2725"/>
      <point x="384.096" y="-102.659" type="curve" smooth="yes"/>
      <point x="384.096" y="-138.384"/>
      <point x="349.025" y="-176.994"/>
      <point x="275.633" y="-176.994" type="curve" smooth="yes"/>
      <point x="237.214" y="-176.994"/>
      <point x="194.431" y="-166.082"/>
      <point x="157.066" y="-139.806" type="curve"/>
      <point x="182.093" y="-98.3818" type="line"/>
      <point x="213.504" y="-123.713"/>
      <point x="251.16" y="-133.774"/>
      <point x="281.394" y="-133.774" type="curve" smooth="yes"/>
      <point x="320.275" y="-133.774"/>
      <point x="327.079" y="-118.081"/>
      <point x="327.079" y="-109.376" type="curve" smooth="yes"/>
      <point x="327.079" y="-103.486"/>
      <point x="324.021" y="-96.8076"/>
      <point x="316.186" y="-92.0059" type="curve" smooth="yes"/>
      <point x="305.418" y="-85.4062"/>
      <point x="291.004" y="-85.4365"/>
      <point x="279.612" y="-85.4365" type="curve" smooth="yes"/>
      <point x="250.27" y="-85.4365" type="line"/>
      <point x="260.22" y="-9.66406" type="line"/>
      <point x="160.386" y="-1.49512"/>
      <point x="40.5322" y="80.2021"/>
      <point x="40.5322" y="307.924" type="curve" smooth="yes"/>
      <point x="40.5322" y="557.358"/>
      <point x="180.649" y="628.264"/>
    </contour>
  </outline>
</glyph>
<glyph name="Egrave" format="1">
  <advance width="500"/>
  <unicode hex="00C8"/>
  <outline>
    <contour>
      <point x="181.23" y="791.371" type="line"/>
      <point x="333.981" y="701.619" type="line"/>
      <point x="310.681" y="660.194" type="line"/>
      <point x="141.532" y="721.468" type="line"/>
    </contour>
    <contour>
      <point x="58.6836" y="623.949" type="line"/>
      <point x="440.993" y="623.949" type="line"/>
      <point x="440.993" y="561.813" type="line"/>
      <point x="125.135" y="561.813" type="line"/>
      <point x="125.135" y="357.282" type="line"/>
      <point x="385.761" y="357.282" type="line"/>
      <point x="385.761" y="293.42" type="line"/>
      <point x="125.135" y="293.42" type="line"/>
      <point x="125.135" y="62.1357" type="line"/>
      <point x="438.404" y="62.1357" type="line"/>
      <point x="438.404" y="0" type="line"/>
      <point x="58.6836" y="0" type="line"/>
    </contour>
  </outline>
</glyph>
<glyph name="Eacute" format="1">
  <advance width="500"/>
  <unicode hex="00C9"/>
  <outline>
    <contour>
      <point x="325.351" y="791.371" type="line"/>
      <point x="365.049" y="721.468" type="line"/>
      <point x="195.901" y="660.194" type="line"/>
      <point x="172.6" y="701.619" type="line"/>
    </contour>
    <contour>
      <point x="58.6836" y="623.949" type="line"/>
      <point x="440.993" y="623.949" type="line"/>
      <point x="440.993" y="561.813" type="line"/>
      <point x="125.135" y="561.813" type="line"/>
      <point x="125.135" y="357.282" type="line"/>
      <point x="385.761" y="357.282" type="line"/>
      <point x="385.761" y="293.42" type="line"/>
      <point x="125.135" y="293.42" type="line"/>
      <point x="125.135" y="62.1357" type="line"/>
      <point x="438.404" y="62.1357" type="line"/>
      <point x="438.404" y="0" type="line"/>
      <point x="58.6836" y="0" type="line"/>
    </contour>
  </outline>
</glyph>
<glyph name="Ecircumflex" format="1">
  <advance width="500"/>
  <unicode hex="00CA"/>
  <outline>
    <contour>
      <point x="110.464" y="692.126" type="line"/>
      <point x="241.64" y="791.371" type="line"/>
      <point x="263.215" y="791.371" type="line"/>
      <point x="386.624" y="693.853" type="line"/>
      <point x="353.83" y="655.88" type="line"/>
      <point x="250.27" y="726.646" type="line"/>
      <point x="138.942" y="658.469" type="line"/>
    </contour>
    <contour>
      <point x="58.6836" y="623.949" type="line"/>
      <point x="440.993" y="623.949" type="line"/>
      <point x="440.993" y="561.813" type="line"/>
      <point x="125.135" y="561.813" type="line"/>
      <point x="125.135" y="357.282" type="line"/>
      <point x="385.761" y="357.282" type="line"/>
      <point x="385.761" y="293.42" type="line"/>
      <point x="125.135" y="293.42" type="line"/>
      <point x="125.135" y="62.1357" type="line"/>
      <point x="438.404" y="62.1357" type="line"/>
      <point x="438.404" y="0" type="line"/>
      <point x="58.6836" y="0" type="line"/>
    </contour>
  </outline>
</glyph>
<glyph name="Edieresis" format="1">
  <advance width="500"/>
  <unicode hex="00CB"/>
  <outline>
    <contour>
      <point x="208.861" y="738.295" type="curve" smooth="yes"/>
      <point x="208.861" y="710.432"/>
      <point x="186.226" y="687.795"/>
      <point x="158.361" y="687.795" type="curve" smooth="yes"/>
      <point x="130.495" y="687.795"/>
      <point x="107.858" y="710.43"/>
      <point x="107.858" y="738.295" type="curve" smooth="yes"/>
      <point x="107.858" y="766.162"/>
      <point x="130.494" y="788.799"/>
      <point x="158.36" y="788.799" type="curve" smooth="yes"/>
      <point x="186.227" y="788.799"/>
      <point x="208.861" y="766.162"/>
    </contour>
    <contour>
      <point x="386.625" y="738.307" type="curve" smooth="yes"/>
      <point x="386.625" y="710.395"/>
      <point x="364.147" y="687.803"/>
      <point x="336.574" y="687.803" type="curve" smooth="yes"/>
      <point x="309.006" y="687.803"/>
      <point x="286.514" y="710.383"/>
      <point x="286.514" y="738.309" type="curve" smooth="yes"/>
      <point x="286.514" y="766.225"/>
      <point x="308.998" y="788.812"/>
      <point x="336.576" y="788.812" type="curve" smooth="yes"/>
      <point x="364.13" y="788.812"/>
      <point x="386.625" y="766.238"/>
    </contour>
    <contour>
      <point x="58.6836" y="623.949" type="line"/>
      <point x="440.993" y="623.949" type="line"/>
      <point x="440.993" y="561.813" type="line"/>
      <point x="125.135" y="561.813" type="line"/>
      <point x="125.135" y="357.282" type="line"/>
      <point x="385.761" y="357.282" type="line"/>
      <point x="385.761" y="293.42" type="line"/>
      <point x="125.135" y="293.42" type="line"/>
      <point x="125.135" y="62.1357" type="line"/>
      <point x="438.404" y="62.1357" type="line"/>
      <point x="438.404" y="0" type="line"/>
      <point x="58.6836" y="0" type="line"/>
    </contour>
  </outline>
</glyph>
<glyph name="Igrave" format="1">
  <advance width="500"/>
  <unicode hex="00CC"/>
  <outline>
    <contour>
      <point x="181.23" y="791.371" type="line"/>
      <point x="333.981" y="701.619" type="line"/>
      <point x="310.681" y="660.194" type="line"/>
      <point x="141.532" y="721.468" type="line"/>
    </contour>
    <contour>
      <point x="88.0264" y="623.086" type="line"/>
      <point x="396.98" y="623.086" type="line"/>
      <point x="396.98" y="564.402" type="line"/>
      <point x="273.571" y="564.402" type="line"/>
      <point x="273.571" y="56.958" type="line"/>
      <point x="403.021" y="56.958" type="line"/>
      <point x="403.021" y="-0.863281" type="line"/>
      <point x="81.1221" y="-0.863281" type="line"/>
      <point x="81.1221" y="57.8213" type="line"/>
      <point x="203.668" y="57.8213" type="line"/>
      <point x="203.668" y="564.402" type="line"/>
      <point x="88.0264" y="564.402" type="line"/>
    </contour>
  </outline>
</glyph>
<glyph name="Iacute" format="1">
  <advance width="500"/>
  <unicode hex="00CD"/>
  <outline>
    <contour>
      <point x="325.351" y="791.371" type="line"/>
      <point x="365.049" y="721.468" type="line"/>
      <point x="195.901" y="660.194" type="line"/>
      <point x="172.6" y="701.619" type="line"/>
    </contour>
    <contour>
      <point x="88.0264" y="623.086" type="line"/>
      <point x="396.98" y="623.086" type="line"/>
      <point x="396.98" y="564.402" type="line"/>
      <point x="273.571" y="564.402" type="line"/>
      <point x="273.571" y="56.958" type="line"/>
      <point x="403.021" y="56.958" type="line"/>
      <point x="403.021" y="-0.863281" type="line"/>
      <point x="81.1221" y="-0.863281" type="line"/>
      <point x="81.1221" y="57.8213" type="line"/>
      <point x="203.668" y="57.8213" type="line"/>
      <point x="203.668" y="564.402" type="line"/>
      <point x="88.0264" y="564.402" type="line"/>
    </contour>
  </outline>
</glyph>
<glyph name="Icircumflex" format="1">
  <advance width="500"/>
  <unicode hex="00CE"/>
  <outline>
    <contour>
      <point x="100.971" y="692.126" type="line"/>
      <point x="232.146" y="791.371" type="line"/>
      <point x="253.722" y="791.371" type="line"/>
      <point x="377.131" y="693.853" type="line"/>
      <point x="344.337" y="655.88" type="line"/>
      <point x="240.776" y="726.646" type="line"/>
      <point x="129.449" y="658.469" type="line"/>
    </contour>
    <contour>
      <point x="88.0264" y="623.086" type="line"/>
      <point x="396.98" y="623.086" type="line"/>
      <point x="396.98" y="564.402" type="line"/>
      <point x="273.571" y="564.402" type="line"/>
      <point x="273.571" y="56.958" type="line"/>
      <point x="403.021" y="56.958" type="line"/>
      <point x="403.021" y="-0.863281" type="line"/>
      <point x="81.1221" y="-0.863281" type="line"/>
      <point x="81.1221" y="57.8213" type="line"/>
      <point x="203.668" y="57.8213" type="line"/>
      <point x="203.668" y="564.402" type="line"/>
      <point x="88.0264" y="564.402" type="line"/>
    </contour>
  </outline>
</glyph>
<glyph name="Idieresis" format="1">
  <advance width="500"/>
  <unicode hex="00CF"/>
  <outline>
    <contour>
      <point x="205.41" y="738.295" type="curve" smooth="yes"/>
      <point x="205.41" y="710.432"/>
      <point x="182.774" y="687.795"/>
      <point x="154.91" y="687.795" type="curve" smooth="yes"/>
      <point x="127.044" y="687.795"/>
      <point x="104.407" y="710.43"/>
      <point x="104.407" y="738.295" type="curve" smooth="yes"/>
      <point x="104.407" y="766.162"/>
      <point x="127.043" y="788.799"/>
      <point x="154.909" y="788.799" type="curve" smooth="yes"/>
      <point x="182.775" y="788.799"/>
      <point x="205.41" y="766.162"/>
    </contour>
    <contour>
      <point x="383.174" y="738.307" type="curve" smooth="yes"/>
      <point x="383.174" y="710.395"/>
      <point x="360.696" y="687.803"/>
      <point x="333.123" y="687.803" type="curve" smooth="yes"/>
      <point x="305.555" y="687.803"/>
      <point x="283.062" y="710.383"/>
      <point x="283.062" y="738.309" type="curve" smooth="yes"/>
      <point x="283.062" y="766.225"/>
      <point x="305.547" y="788.812"/>
      <point x="333.125" y="788.812" type="curve" smooth="yes"/>
      <point x="360.679" y="788.812"/>
      <point x="383.174" y="766.238"/>
    </contour>
    <contour>
      <point x="88.0264" y="623.086" type="line"/>
      <point x="396.98" y="623.086" type="line"/>
      <point x="396.98" y="564.402" type="line"/>
      <point x="273.571" y="564.402" type="line"/>
      <point x="273.571" y="56.958" type="line"/>
      <point x="403.021" y="56.958" type="line"/>
      <point x="403.021" y="-0.863281" type="line"/>
      <point x="81.1221" y="-0.863281" type="line"/>
      <point x="81.1221" y="57.8213" type="line"/>
      <point x="203.668" y="57.8213" type="line"/>
      <point x="203.668" y="564.402" type="line"/>
      <point x="88.0264" y="564.402" type="line"/>
    </contour>
  </outline>
</glyph>
<glyph name="Ntilde" format="1">
  <advance width="500"/>
  <unicode hex="00D1"/>
  <outline>
    <contour>
      <point x="135.491" y="683.496" type="curve"/>
      <point x="90.6152" y="715.427" type="line"/>
      <point x="127.604" y="773.971"/>
      <point x="164.707" y="801.958"/>
      <point x="203.693" y="801.958" type="curve" smooth="yes"/>
      <point x="244.11" y="801.958"/>
      <point x="270.956" y="772.443"/>
      <point x="283.808" y="759.052" type="curve" smooth="yes"/>
      <point x="300.015" y="742.161"/>
      <point x="315.03" y="727.448"/>
      <point x="333.686" y="727.448" type="curve" smooth="yes"/>
      <point x="358.35" y="727.448"/>
      <point x="370.054" y="750.803"/>
      <point x="391.802" y="780.152" type="curve"/>
      <point x="428.911" y="740.454" type="line"/>
      <point x="394.343" y="697.425"/>
      <point x="367.111" y="669.476"/>
      <point x="330.228" y="669.476" type="curve" smooth="yes"/>
      <point x="272.072" y="669.476"/>
      <point x="244.992" y="745.142"/>
      <point x="200.944" y="745.142" type="curve" smooth="yes"/>
      <point x="174.458" y="745.142"/>
      <point x="159.45" y="722.146"/>
    </contour>
    <contour>
      <point x="50.0537" y="0" type="line"/>
      <point x="50.0537" y="623.086" type="line"/>
      <point x="118.231" y="623.086" type="line"/>
      <point x="379.72" y="161.381" type="line"/>
      <point x="379.72" y="623.949" type="line"/>
      <point x="453.938" y="623.949" type="line"/>
      <point x="454.739" y="618.128"/>
      <point x="452.14" y="613.319"/>
      <point x="451.022" y="611.193" type="curve" smooth="yes"/>
      <point x="448.625" y="606.635"/>
      <point x="447.034" y="604.149"/>
      <point x="447.034" y="597.196" type="curve" smooth="yes"/>
      <point x="447.034" y="-0.863281" type="line"/>
      <point x="391.802" y="-0.863281" type="line"/>
      <point x="117.368" y="490.184" type="line"/>
      <point x="117.368" y="0" type="line"/>
    </contour>
  </outline>
</glyph>
<glyph name="Ograve" format="1">
  <advance width="500"/>
  <unicode hex="00D2"/>
  <outline>
    <contour>
      <point x="181.23" y="791.371" type="line"/>
      <point x="333.981" y="701.619" type="line"/>
      <point x="310.681" y="660.194" type="line"/>
      <point x="141.532" y="721.468" type="line"/>
    </contour>
    <contour>
      <point x="471.205" y="310.252" type="curve" smooth="yes"/>
      <point x="471.205" y="255.529"/>
      <point x="467.252" y="178.014"/>
      <point x="434.148" y="111.021" type="curve" smooth="yes"/>
      <point x="393.129" y="28.0107"/>
      <point x="321.403" y="-9.50586"/>
      <point x="254.141" y="-9.50586" type="curve" smooth="yes"/>
      <point x="158.771" y="-9.50586"/>
      <point x="29.3418" y="67.6582"/>
      <point x="29.3418" y="312.504" type="curve" smooth="yes"/>
      <point x="29.3418" y="557.397"/>
      <point x="160.588" y="629.99"/>
      <point x="253.516" y="629.99" type="curve" smooth="yes"/>
      <point x="321.34" y="629.99"/>
      <point x="392.185" y="592.596"/>
      <point x="433.047" y="512.538" type="curve" smooth="yes"/>
      <point x="467.031" y="445.953"/>
      <point x="471.205" y="368.544"/>
    </contour>
    <contour>
      <point x="250.582" y="564.41" type="curve" smooth="yes"/>
      <point x="185.11" y="564.41"/>
      <point x="98.3564" y="507.367"/>
      <point x="98.3564" y="321.604" type="curve" smooth="yes"/>
      <point x="98.3564" y="123.454"/>
      <point x="184.354" y="58.6729"/>
      <point x="254.441" y="58.6729" type="curve" smooth="yes"/>
      <point x="296.367" y="58.6729"/>
      <point x="344.644" y="82.3691"/>
      <point x="373.476" y="143.014" type="curve" smooth="yes"/>
      <point x="399.013" y="196.722"/>
      <point x="401.368" y="260.293"/>
      <point x="401.368" y="301.099" type="curve" smooth="yes"/>
      <point x="401.368" y="353.839"/>
      <point x="398.176" y="413.51"/>
      <point x="377.117" y="465.89" type="curve" smooth="yes"/>
      <point x="348.078" y="538.117"/>
      <point x="294.793" y="564.41"/>
    </contour>
  </outline>
</glyph>
<glyph name="Otilde" format="1">
  <advance width="500"/>
  <unicode hex="00D5"/>
  <outline>
    <contour>
      <point x="135.491" y="683.496" type="curve"/>
      <point x="90.6152" y="715.427" type="line"/>
      <point x="127.604" y="773.971"/>
      <point x="164.707" y="801.958"/>
      <point x="203.693" y="801.958" type="curve" smooth="yes"/>
      <point x="244.11" y="801.958"/>
      <point x="270.956" y="772.443"/>
      <point x="283.808" y="759.052" type="curve" smooth="yes"/>
      <point x="300.015" y="742.161"/>
      <point x="315.03" y="727.448"/>
      <point x="333.686" y="727.448" type="curve" smooth="yes"/>
      <point x="358.35" y="727.448"/>
      <point x="370.054" y="750.803"/>
      <point x="391.802" y="780.152" type="curve"/>
      <point x="428.911" y="740.454" type="line"/>
      <point x="394.343" y="697.425"/>
      <point x="367.111" y="669.476"/>
      <point x="330.228" y="669.476" type="curve" smooth="yes"/>
      <point x="272.072" y="669.476"/>
      <point x="244.992" y="745.142"/>
      <point x="200.944" y="745.142" type="curve" smooth="yes"/>
      <point x="174.458" y="745.142"/>
      <point x="159.45" y="722.146"/>
    </contour>
    <contour>
      <point x="471.205" y="310.252" type="curve" smooth="yes"/>
      <point x="471.205" y="255.529"/>
      <point x="467.252" y="178.014"/>
      <point x="434.148" y="111.021" type="curve" smooth="yes"/>
      <point x="393.129" y="28.0107"/>
      <point x="321.403" y="-9.50586"/>
      <point x="254.141" y="-9.50586" type="curve" smooth="yes"/>
      <point x="158.771" y="-9.50586"/>
      <point x="29.3418" y="67.6582"/>
      <point x="29.3418" y="312.504" type="curve" smooth="yes"/>
      <point x="29.3418" y="557.397"/>
      <point x="160.588" y="629.99"/>
      <point x="253.516" y="629.99" type="curve" smooth="yes"/>
      <point x="321.34" y="629.99"/>
      <point x="392.185" y="592.596"/>
      <point x="433.047" y="512.538" type="curve" smooth="yes"/>
      <point x="467.031" y="445.953"/>
      <point x="471.205" y="368.544"/>
    </contour>
    <contour>
      <point x="250.582" y="564.41" type="curve" smooth="yes"/>
      <point x="185.11" y="564.41"/>
      <point x="98.3564" y="507.367"/>
      <point x="98.3564" y="321.604" type="curve" smooth="yes"/>
      <point x="98.3564" y="123.454"/>
      <point x="184.354" y="58.6729"/>
      <point x="254.441" y="58.6729" type="curve" smooth="yes"/>
      <point x="296.367" y="58.6729"/>
      <point x="344.644" y="82.3691"/>
      <point x="373.476" y="143.014" type="curve" smooth="yes"/>
      <point x="399.013" y="196.722"/>
      <point x="401.368" y="260.293"/>
      <point x="401.368" y="301.099" type="curve" smooth="yes"/>
      <point x="401.368" y="353.839"/>
      <point x="398.176" y="413.51"/>
      <point x="377.117" y="465.89" type="curve" smooth="yes"/>
      <point x="348.078" y="538.117"/>
      <point x="294.793" y="564.41"/>
    </contour>
  </outline>
</glyph>
<glyph name="Odieresis" format="1">
  <advance width="500"/>
  <unicode hex="00D6"/>
  <outline>
    <contour>
      <point x="208.861" y="738.295" type="curve" smooth="yes"/>
      <point x="208.861" y="710.432"/>
      <point x="186.226" y="687.795"/>
      <point x="158.361" y="687.795" type="curve" smooth="yes"/>
      <point x="130.495" y="687.795"/>
      <point x="107.858" y="710.43"/>
      <point x="107.858" y="738.295" type="curve" smooth="yes"/>
      <point x="107.858" y="766.162"/>
      <point x="130.494" y="788.799"/>
      <point x="158.36" y="788.799" type="curve" smooth="yes"/>
      <point x="186.227" y="788.799"/>
      <point x="208.861" y="766.162"/>
    </contour>
    <contour>
      <point x="386.625" y="738.307" type="curve" smooth="yes"/>
      <point x="386.625" y="710.395"/>
      <point x="364.147" y="687.803"/>
      <point x="336.574" y="687.803" type="curve" smooth="yes"/>
      <point x="309.006" y="687.803"/>
      <point x="286.514" y="710.383"/>
      <point x="286.514" y="738.309" type="curve" smooth="yes"/>
      <point x="286.514" y="766.225"/>
      <point x="308.998" y="788.812"/>
      <point x="336.576" y="788.812" type="curve" smooth="yes"/>
      <point x="364.13" y="788.812"/>
      <point x="386.625" y="766.238"/>
    </contour>
    <contour>
      <point x="471.205" y="310.252" type="curve" smooth="yes"/>
      <point x="471.205" y="255.529"/>
      <point x="467.252" y="178.014"/>
      <point x="434.148" y="111.021" type="curve" smooth="yes"/>
      <point x="393.129" y="28.0107"/>
      <point x="321.403" y="-9.50586"/>
      <point x="254.141" y="-9.50586" type="curve" smooth="yes"/>
      <point x="158.771" y="-9.50586"/>
      <point x="29.3418" y="67.6582"/>
      <point x="29.3418" y="312.504" type="curve" smooth="yes"/>
      <point x="29.3418" y="557.397"/>
      <point x="160.588" y="629.99"/>
      <point x="253.516" y="629.99" type="curve" smooth="yes"/>
      <point x="321.34" y="629.99"/>
      <point x="392.185" y="592.596"/>
      <point x="433.047" y="512.538" type="curve" smooth="yes"/>
      <point x="467.031" y="445.953"/>
      <point x="471.205" y="368.544"/>
    </contour>
    <contour>
      <point x="250.582" y="564.41" type="curve" smooth="yes"/>
      <point x="185.11" y="564.41"/>
      <point x="98.3564" y="507.367"/>
      <point x="98.3564" y="321.604" type="curve" smooth="yes"/>
      <point x="98.3564" y="123.454"/>
      <point x="184.354" y="58.6729"/>
      <point x="254.441" y="58.6729" type="curve" smooth="yes"/>
      <point x="296.367" y="58.6729"/>
      <point x="344.644" y="82.3691"/>
      <point x="373.476" y="143.014" type="curve" smooth="yes"/>
      <point x="399.013" y="196.722"/>
      <point x="401.368" y="260.293"/>
      <point x="401.368" y="301.099" type="curve" smooth="yes"/>
      <point x="401.368" y="353.839"/>
      <point x="398.176" y="413.51"/>
      <point x="377.117" y="465.89" type="curve" smooth="yes"/>
      <point x="348.078" y="538.117"/>
      <point x="294.793" y="564.41"/>
    </contour>
  </outline>
</glyph>
<glyph name="multiply" format="1">
  <advance width="500"/>
  <unicode hex="00D7"/>
  <outline>
    <contour>
      <point x="382.309" y="503.129" type="line"/>
      <point x="429.774" y="459.116" type="line"/>
      <point x="300.05" y="325.292" type="line"/>
      <point x="427.185" y="190.723" type="line"/>
      <point x="380.583" y="144.984" type="line"/>
      <point x="254.379" y="278.178" type="line"/>
      <point x="129.45" y="149.299" type="line"/>
      <point x="84.5742" y="193.312" type="line"/>
      <point x="210.567" y="324.418" type="line"/>
      <point x="84.5742" y="457.39" type="line"/>
      <point x="132.039" y="503.129" type="line"/>
      <point x="256.107" y="371.806" type="line"/>
    </contour>
  </outline>
</glyph>
<glyph name="Oslash" format="1">
  <advance width="500"/>
  <unicode hex="00D8"/>
  <outline>
    <contour>
      <point x="250.582" y="564.41" type="curve" smooth="yes"/>
      <point x="185.11" y="564.41"/>
      <point x="98.3564" y="507.367"/>
      <point x="98.3564" y="321.604" type="curve" smooth="yes"/>
      <point x="98.3564" y="243.186"/>
      <point x="111.826" y="185.655"/>
      <point x="132.447" y="144.762" type="curve"/>
      <point x="336.361" y="528.436" type="line"/>
      <point x="309.69" y="554.041"/>
      <point x="278.347" y="564.41"/>
    </contour>
    <contour>
      <point x="471.205" y="310.252" type="curve" smooth="yes"/>
      <point x="471.205" y="255.529"/>
      <point x="467.252" y="178.014"/>
      <point x="434.148" y="111.021" type="curve" smooth="yes"/>
      <point x="393.129" y="28.0107"/>
      <point x="321.403" y="-9.50586"/>
      <point x="254.141" y="-9.50586" type="curve" smooth="yes"/>
      <point x="217.333" y="-9.50586"/>
      <point x="175.451" y="1.98828"/>
      <point x="137.896" y="30.1807" type="curve"/>
      <point x="88.0264" y="-62.999" type="line"/>
      <point x="36.2461" y="-36.2461" type="line"/>
      <point x="94.5986" y="73.5469" type="line"/>
      <point x="56.2637" y="124.045"/>
      <point x="29.3418" y="200.835"/>
      <point x="29.3418" y="312.504" type="curve" smooth="yes"/>
      <point x="29.3418" y="557.397"/>
      <point x="160.588" y="629.99"/>
      <point x="253.516" y="629.99" type="curve" smooth="yes"/>
      <point x="293.282" y="629.99"/>
      <point x="334.086" y="617.136"/>
      <point x="369.275" y="590.365" type="curve"/>
      <point x="415.104" y="676.592" type="line"/>
      <point x="468.609" y="648.113" type="line"/>
      <point x="413.352" y="544.866" type="line"/>
      <point x="420.486" y="534.987"/>
      <point x="427.086" y="524.216"/>
      <point x="433.047" y="512.538" type="curve" smooth="yes"/>
      <point x="467.031" y="445.953"/>
      <point x="471.205" y="368.544"/>
    </contour>
    <contour>
      <point x="374.465" y="472.207" type="line"/>
      <point x="171.169" y="92.3516" type="line"/>
      <point x="197.311" y="68.54"/>
      <point x="227.088" y="58.6729"/>
      <point x="254.441" y="58.6729" type="curve" smooth="yes"/>
      <point x="296.367" y="58.6729"/>
      <point x="344.643" y="82.3691"/>
      <point x="373.476" y="143.014" type="curve" smooth="yes"/>
      <point x="399.011" y="196.722"/>
      <point x="401.368" y="260.293"/>
      <point x="401.368" y="301.099" type="curve" smooth="yes"/>
      <point x="401.368" y="353.839"/>
      <point x="398.176" y="413.51"/>
      <point x="377.117" y="465.89" type="curve" smooth="yes"/>
    </contour>
  </outline>
</glyph>
